InterAlia-Black.ufo
<glyph name="percent" format="2">
  <advance height="2479" width="1824"/>
  <unicode hex="0025"/>
  <anchor x="1165" y="791" name="dnom"/>
  <anchor x="656" y="698" name="numr"/>
  <outline>
    <contour>
      <point x="951" y="279" type="line" smooth="yes"/>
      <point x="951" y="90"/>
      <point x="1075" y="-73"/>
      <point x="1303" y="-73" type="curve" smooth="yes"/>
      <point x="1532" y="-73"/>
      <point x="1658" y="90"/>
      <point x="1658" y="279" type="curve" smooth="yes"/>
      <point x="1658" y="358" type="line" smooth="yes"/>
      <point x="1658" y="550"/>
      <point x="1535" y="710"/>
      <point x="1303" y="710" type="curve" smooth="yes"/>
      <point x="1078" y="710"/>
      <point x="951" y="547"/>
      <point x="951" y="358" type="curve" smooth="yes"/>
    </contour>
    <contour>
      <point x="1204" y="358" type="line" smooth="yes"/>
      <point x="1204" y="416"/>
      <point x="1226" y="483"/>
      <point x="1303" y="483" type="curve" smooth="yes"/>
      <point x="1386" y="483"/>
      <point x="1402" y="416"/>
      <point x="1402" y="358" type="curve" smooth="yes"/>
      <point x="1402" y="279" type="line" smooth="yes"/>
      <point x="1402" y="221"/>
      <point x="1383" y="157"/>
      <point x="1303" y="157" type="curve" smooth="yes"/>
      <point x="1226" y="157"/>
      <point x="1204" y="224"/>
      <point x="1204" y="279" type="curve" smooth="yes"/>
    </contour>
    <contour>
      <point x="172" y="1132" type="line" smooth="yes"/>
      <point x="172" y="943"/>
      <point x="295" y="783"/>
      <point x="524" y="783" type="curve" smooth="yes"/>
      <point x="752" y="783"/>
      <point x="879" y="940"/>
      <point x="879" y="1132" type="curve" smooth="yes"/>
      <point x="879" y="1210" type="line" smooth="yes"/>
      <point x="879" y="1402"/>
      <point x="755" y="1562"/>
      <point x="524" y="1562" type="curve" smooth="yes"/>
      <point x="301" y="1562"/>
      <point x="172" y="1402"/>
      <point x="172" y="1210" type="curve" smooth="yes"/>
    </contour>
    <contour>
      <point x="428" y="1210" type="line" smooth="yes"/>
      <point x="428" y="1265"/>
      <point x="447" y="1335"/>
      <point x="524" y="1335" type="curve" smooth="yes"/>
      <point x="607" y="1335"/>
      <point x="623" y="1268"/>
      <point x="623" y="1210" type="curve" smooth="yes"/>
      <point x="623" y="1132" type="line" smooth="yes"/>
      <point x="623" y="1073"/>
      <point x="604" y="1009"/>
      <point x="524" y="1009" type="curve" smooth="yes"/>
      <point x="449" y="1009"/>
      <point x="428" y="1073"/>
      <point x="428" y="1132" type="curve" smooth="yes"/>
    </contour>
    <component base="fraction" xOffset="633"/>
  </outline>
</glyph>
<glyph name="parenleft" format="2">
  <advance height="2479" width="902"/>
  <unicode hex="0028"/>
  <outline>
    <contour>
      <point x="175" y="576" type="curve" smooth="yes"/>
      <point x="175" y="218"/>
      <point x="268" y="-79"/>
      <point x="480" y="-337" type="curve"/>
      <point x="873" y="-337" type="line"/>
      <point x="713" y="-145"/>
      <point x="593" y="233"/>
      <point x="593" y="576" type="curve" smooth="yes"/>
      <point x="593" y="919"/>
      <point x="713" y="1297"/>
      <point x="873" y="1489" type="curve"/>
      <point x="480" y="1489" type="line"/>
      <point x="268" y="1231"/>
      <point x="175" y="934"/>
    </contour>
  </outline>
</glyph>
<glyph name="plus" format="2">
  <advance height="2479" width="1420"/>
  <unicode hex="002B"/>
  <outline>
    <contour>
      <point x="547" y="67" type="line"/>
      <point x="873" y="67" type="line"/>
      <point x="873" y="1143" type="line"/>
      <point x="547" y="1143" type="line"/>
    </contour>
    <contour>
      <point x="172" y="442" type="line"/>
      <point x="1248" y="442" type="line"/>
      <point x="1248" y="768" type="line"/>
      <point x="172" y="768" type="line"/>
    </contour>
  </outline>
</glyph>
<glyph name="comma" format="2">
  <advance height="2479" width="652"/>
  <unicode hex="002C"/>
  <outline>
    <contour>
      <point x="492" y="204" type="line"/>
      <point x="189" y="204" type="line"/>
      <point x="189" y="122" type="line" smooth="yes"/>
      <point x="189" y="-76"/>
      <point x="122" y="-283"/>
      <point x="99" y="-364" type="curve"/>
      <point x="346" y="-364" type="line"/>
      <point x="381" y="-283"/>
      <point x="471" y="-88"/>
      <point x="486" y="122" type="curve" smooth="yes"/>
    </contour>
  </outline>
</glyph>
<glyph name="hyphen" format="2">
  <advance height="2479" width="972"/>
  <unicode hex="002D"/>
  <outline>
    <contour>
      <point x="835" y="745" type="line"/>
      <point x="137" y="745" type="line"/>
      <point x="137" y="442" type="line"/>
      <point x="835" y="442" type="line"/>
    </contour>
  </outline>
</glyph>
<glyph name="period" format="2">
  <advance height="2479" width="640"/>
  <unicode hex="002E"/>
  <outline>
    <contour>
      <point x="320" y="-23" type="curve" smooth="yes"/>
      <point x="427" y="-23"/>
      <point x="522" y="67"/>
      <point x="524" y="180" type="curve" smooth="yes"/>
      <point x="522" y="291"/>
      <point x="427" y="381"/>
      <point x="320" y="381" type="curve" smooth="yes"/>
      <point x="207" y="381"/>
      <point x="115" y="291"/>
      <point x="116" y="180" type="curve" smooth="yes"/>
      <point x="115" y="67"/>
      <point x="207" y="-23"/>
    </contour>
  </outline>
</glyph>
<glyph name="one" format="2">
  <advance height="2479" width="1036"/>
  <unicode hex="0031"/>
  <outline>
    <contour>
      <point x="829" y="1489" type="line"/>
      <point x="457" y="1489" type="line"/>
      <point x="90" y="1265" type="line"/>
      <point x="90" y="922" type="line"/>
      <point x="416" y="1117" type="line"/>
      <point x="425" y="1117" type="line"/>
      <point x="425" y="0" type="line"/>
      <point x="829" y="0" type="line"/>
    </contour>
  </outline>
</glyph>
<glyph name="five" format="2">
  <advance height="2479" width="1370"/>
  <unicode hex="0035"/>
  <outline>
    <contour>
      <point x="695" y="-20" type="curve" smooth="yes"/>
      <point x="1058" y="-20"/>
      <point x="1295" y="200"/>
      <point x="1295" y="512" type="curve" smooth="yes"/>
      <point x="1295" y="795"/>
      <point x="1097" y="995"/>
      <point x="832" y="995" type="curve" smooth="yes"/>
      <point x="681" y="995"/>
      <point x="559" y="928"/>
      <point x="512" y="838" type="curve"/>
      <point x="503" y="838" type="line"/>
      <point x="532" y="1167" type="line"/>
      <point x="1201" y="1167" type="line"/>
      <point x="1201" y="1489" type="line"/>
      <point x="201" y="1489" type="line"/>
      <point x="143" y="669" type="line"/>
      <point x="497" y="599" type="line"/>
      <point x="532" y="672"/>
      <point x="609" y="716"/>
      <point x="695" y="716" type="curve" smooth="yes"/>
      <point x="819" y="716"/>
      <point x="905" y="631"/>
      <point x="905" y="500" type="curve" smooth="yes"/>
      <point x="905" y="370"/>
      <point x="819" y="285"/>
      <point x="695" y="285" type="curve" smooth="yes"/>
      <point x="588" y="285"/>
      <point x="500" y="351"/>
      <point x="497" y="454" type="curve"/>
      <point x="105" y="454" type="line"/>
      <point x="107" y="176"/>
      <point x="352" y="-20"/>
    </contour>
  </outline>
</glyph>
<glyph name="six" format="2">
  <advance height="2479" width="1402"/>
  <unicode hex="0036"/>
  <outline>
    <contour>
      <point x="721" y="-20" type="curve" smooth="yes"/>
      <point x="1073" y="-20"/>
      <point x="1319" y="191"/>
      <point x="1318" y="512" type="curve" smooth="yes"/>
      <point x="1319" y="785"/>
      <point x="1137" y="983"/>
      <point x="867" y="983" type="curve" smooth="yes"/>
      <point x="697" y="983"/>
      <point x="543" y="902"/>
      <point x="486" y="765" type="curve"/>
      <point x="477" y="765" type="line"/>
      <point x="479" y="1006"/>
      <point x="554" y="1167"/>
      <point x="724" y="1167" type="curve" smooth="yes"/>
      <point x="809" y="1167"/>
      <point x="884" y="1129"/>
      <point x="902" y="1044" type="curve"/>
      <point x="1300" y="1044" type="line"/>
      <point x="1275" y="1299"/>
      <point x="1053" y="1510"/>
      <point x="724" y="1510" type="curve" smooth="yes"/>
      <point x="334" y="1510"/>
      <point x="77" y="1210"/>
      <point x="76" y="727" type="curve" smooth="yes"/>
      <point x="74" y="186"/>
      <point x="374" y="-20"/>
    </contour>
    <contour>
      <point x="719" y="285" type="curve" smooth="yes"/>
      <point x="601" y="285"/>
      <point x="513" y="375"/>
      <point x="512" y="497" type="curve" smooth="yes"/>
      <point x="513" y="620"/>
      <point x="601" y="710"/>
      <point x="719" y="710" type="curve" smooth="yes"/>
      <point x="839" y="710"/>
      <point x="927" y="620"/>
      <point x="925" y="497" type="curve" smooth="yes"/>
      <point x="927" y="375"/>
      <point x="839" y="285"/>
    </contour>
  </outline>
</glyph>
<glyph name="seven" format="2">
  <advance height="2479" width="1251"/>
  <unicode hex="0037"/>
  <outline>
    <contour>
      <point x="166" y="0" type="line"/>
      <point x="582" y="0" type="line"/>
      <point x="1169" y="1167" type="line"/>
      <point x="1169" y="1489" type="line"/>
      <point x="64" y="1489" type="line"/>
      <point x="64" y="1167" type="line"/>
      <point x="751" y="1167" type="line"/>
      <point x="751" y="1158" type="line"/>
    </contour>
  </outline>
</glyph>
<glyph name="eight" format="2">
  <advance height="2479" width="1414"/>
  <unicode hex="0038"/>
  <outline>
    <contour>
      <point x="707" y="-20" type="curve" smooth="yes"/>
      <point x="1068" y="-20"/>
      <point x="1332" y="163"/>
      <point x="1332" y="404" type="curve" smooth="yes"/>
      <point x="1332" y="588"/>
      <point x="1177" y="736"/>
      <point x="986" y="765" type="curve"/>
      <point x="986" y="777" type="line"/>
      <point x="1153" y="806"/>
      <point x="1277" y="939"/>
      <point x="1277" y="1105" type="curve" smooth="yes"/>
      <point x="1277" y="1338"/>
      <point x="1036" y="1510"/>
      <point x="707" y="1510" type="curve" smooth="yes"/>
      <point x="378" y="1510"/>
      <point x="137" y="1339"/>
      <point x="137" y="1105" type="curve" smooth="yes"/>
      <point x="137" y="940"/>
      <point x="258" y="806"/>
      <point x="428" y="777" type="curve"/>
      <point x="428" y="765" type="line"/>
      <point x="233" y="736"/>
      <point x="81" y="588"/>
      <point x="81" y="404" type="curve" smooth="yes"/>
      <point x="81" y="163"/>
      <point x="346" y="-20"/>
    </contour>
    <contour>
      <point x="707" y="259" type="curve" smooth="yes"/>
      <point x="593" y="259"/>
      <point x="509" y="336"/>
      <point x="509" y="439" type="curve" smooth="yes"/>
      <point x="509" y="543"/>
      <point x="593" y="617"/>
      <point x="707" y="617" type="curve" smooth="yes"/>
      <point x="821" y="617"/>
      <point x="905" y="542"/>
      <point x="905" y="439" type="curve" smooth="yes"/>
      <point x="905" y="335"/>
      <point x="821" y="259"/>
    </contour>
    <contour>
      <point x="707" y="896" type="curve" smooth="yes"/>
      <point x="606" y="896"/>
      <point x="532" y="966"/>
      <point x="532" y="1059" type="curve" smooth="yes"/>
      <point x="532" y="1152"/>
      <point x="606" y="1219"/>
      <point x="707" y="1219" type="curve" smooth="yes"/>
      <point x="808" y="1219"/>
      <point x="881" y="1151"/>
      <point x="881" y="1059" type="curve" smooth="yes"/>
      <point x="881" y="965"/>
      <point x="808" y="896"/>
    </contour>
  </outline>
</glyph>
<glyph name="nine" format="2">
  <advance height="2479" width="1402"/>
  <unicode hex="0039"/>
  <outline>
    <contour>
      <point x="681" y="1510" type="curve" smooth="yes"/>
      <point x="327" y="1510"/>
      <point x="83" y="1297"/>
      <point x="84" y="980" type="curve" smooth="yes"/>
      <point x="86" y="710"/>
      <point x="266" y="512"/>
      <point x="535" y="512" type="curve" smooth="yes"/>
      <point x="705" y="512"/>
      <point x="860" y="593"/>
      <point x="916" y="730" type="curve"/>
      <point x="925" y="730" type="line"/>
      <point x="924" y="483"/>
      <point x="848" y="323"/>
      <point x="678" y="323" type="curve" smooth="yes"/>
      <point x="592" y="323"/>
      <point x="519" y="361"/>
      <point x="500" y="451" type="curve"/>
      <point x="102" y="451" type="line"/>
      <point x="127" y="189"/>
      <point x="348" y="-20"/>
      <point x="678" y="-20" type="curve" smooth="yes"/>
      <point x="1069" y="-20"/>
      <point x="1328" y="279"/>
      <point x="1327" y="768" type="curve" smooth="yes"/>
      <point x="1325" y="1303"/>
      <point x="1028" y="1510"/>
    </contour>
    <contour>
      <point x="684" y="1204" type="curve" smooth="yes"/>
      <point x="801" y="1204"/>
      <point x="889" y="1114"/>
      <point x="890" y="995" type="curve" smooth="yes"/>
      <point x="892" y="876"/>
      <point x="801" y="785"/>
      <point x="684" y="785" type="curve" smooth="yes"/>
      <point x="563" y="785"/>
      <point x="479" y="876"/>
      <point x="477" y="995" type="curve" smooth="yes"/>
      <point x="476" y="1114"/>
      <point x="563" y="1204"/>
    </contour>
  </outline>
</glyph>
<glyph name="equal" format="2">
  <advance height="2479" width="1420"/>
  <unicode hex="003D"/>
  <outline>
    <contour>
      <point x="172" y="701" type="line"/>
      <point x="1248" y="701" type="line"/>
      <point x="1248" y="1027" type="line"/>
      <point x="172" y="1027" type="line"/>
    </contour>
    <contour>
      <point x="172" y="183" type="line"/>
      <point x="1248" y="183" type="line"/>
      <point x="1248" y="509" type="line"/>
      <point x="172" y="509" type="line"/>
    </contour>
  </outline>
</glyph>
<glyph name="greater" format="2">
  <advance height="2479" width="1420"/>
  <unicode hex="003E"/>
  <outline>
    <contour>
      <point x="1251" y="431" type="line"/>
      <point x="1251" y="780" type="line"/>
      <point x="169" y="1213" type="line"/>
      <point x="169" y="847" type="line"/>
      <point x="858" y="608" type="line"/>
      <point x="847" y="625" type="line"/>
      <point x="847" y="585" type="line"/>
      <point x="858" y="602" type="line"/>
      <point x="169" y="364" type="line"/>
      <point x="169" y="-3" type="line"/>
    </contour>
  </outline>
</glyph>
<glyph name="A" format="2">
  <advance height="2479" width="1629"/>
  <unicode hex="0041"/>
  <anchor x="815" y="0" name="bottom"/>
  <anchor x="1583" y="0" name="ogonek"/>
  <anchor x="460" y="1489" name="tonos"/>
  <anchor x="815" y="1676" name="top"/>
  <outline>
    <contour>
      <point x="483" y="0" type="line"/>
      <point x="809" y="1079" type="line"/>
      <point x="820" y="1079" type="line"/>
      <point x="1146" y="0" type="line"/>
      <point x="1583" y="0" type="line"/>
      <point x="1091" y="1489" type="line"/>
      <point x="538" y="1489" type="line"/>
      <point x="47" y="0" type="line"/>
    </contour>
    <contour>
      <point x="401" y="588" type="line"/>
      <point x="401" y="285" type="line"/>
      <point x="1222" y="285" type="line"/>
      <point x="1222" y="588" type="line"/>
    </contour>
  </outline>
</glyph>
<glyph name="C" format="2">
  <advance height="2479" width="1574"/>
  <unicode hex="0043"/>
  <anchor x="800" y="6" name="cedilla"/>
  <anchor x="809" y="1676" name="top"/>
  <outline>
    <contour>
      <point x="1487" y="931" type="line"/>
      <point x="1455" y="1300"/>
      <point x="1184" y="1510"/>
      <point x="809" y="1510" type="curve" smooth="yes"/>
      <point x="407" y="1510"/>
      <point x="90" y="1242"/>
      <point x="90" y="745" type="curve"/>
      <point x="90" y="249"/>
      <point x="399" y="-20"/>
      <point x="809" y="-20" type="curve" smooth="yes"/>
      <point x="1245" y="-20"/>
      <point x="1466" y="282"/>
      <point x="1487" y="535" type="curve"/>
      <point x="1076" y="538" type="line"/>
      <point x="1056" y="411"/>
      <point x="966" y="332"/>
      <point x="817" y="332" type="curve" smooth="yes"/>
      <point x="620" y="332"/>
      <point x="506" y="471"/>
      <point x="506" y="745" type="curve"/>
      <point x="506" y="1004"/>
      <point x="617" y="1158"/>
      <point x="820" y="1158" type="curve" smooth="yes"/>
      <point x="976" y="1158"/>
      <point x="1065" y="1066"/>
      <point x="1076" y="931" type="curve"/>
    </contour>
  </outline>
</glyph>
<glyph name="D" format="2">
  <advance height="2479" width="1501"/>
  <unicode hex="0044"/>
  <anchor x="675" y="0" name="bottom"/>
  <anchor x="297" y="788" name="cross"/>
  <anchor x="593" y="1676" name="top"/>
  <outline>
    <contour>
      <point x="669" y="0" type="line"/>
      <point x="1123" y="0"/>
      <point x="1411" y="279"/>
      <point x="1411" y="745" type="curve"/>
      <point x="1411" y="1210"/>
      <point x="1123" y="1489"/>
      <point x="663" y="1489" type="curve"/>
      <point x="256" y="1489" type="line"/>
      <point x="256" y="1146" type="line"/>
      <point x="643" y="1146" type="line"/>
      <point x="876" y="1146"/>
      <point x="1004" y="1056"/>
      <point x="1004" y="745" type="curve"/>
      <point x="1004" y="433"/>
      <point x="876" y="343"/>
      <point x="655" y="343" type="curve"/>
      <point x="262" y="343" type="line"/>
      <point x="262" y="0" type="line"/>
    </contour>
    <contour>
      <point x="500" y="1489" type="line"/>
      <point x="96" y="1489" type="line"/>
      <point x="96" y="0" type="line"/>
      <point x="500" y="0" type="line"/>
    </contour>
  </outline>
</glyph>
<glyph name="E" format="2">
  <advance height="2479" width="1274"/>
  <unicode hex="0045"/>
  <anchor x="637" y="0" name="bottom"/>
  <anchor x="640" y="0" name="cedilla"/>
  <anchor x="1167" y="0" name="ogonek"/>
  <anchor x="55" y="1489" name="tonos"/>
  <anchor x="637" y="1676" name="top"/>
  <outline>
    <contour>
      <point x="96" y="0" type="line"/>
      <point x="1167" y="0" type="line"/>
      <point x="1167" y="326" type="line"/>
      <point x="500" y="326" type="line"/>
      <point x="500" y="582" type="line"/>
      <point x="1114" y="582" type="line"/>
      <point x="1114" y="908" type="line"/>
      <point x="500" y="908" type="line"/>
      <point x="500" y="1164" type="line"/>
      <point x="1169" y="1164" type="line"/>
      <point x="1169" y="1489" type="line"/>
      <point x="96" y="1489" type="line"/>
    </contour>
  </outline>
</glyph>
<glyph name="I" format="2">
  <advance height="2479" width="596"/>
  <unicode hex="0049"/>
  <anchor x="297" y="0" name="bottom"/>
  <anchor x="297" y="788" name="cross"/>
  <anchor x="500" y="0" name="ogonek"/>
  <anchor x="527" y="0" name="right"/>
  <anchor x="96" y="1489" name="tonos"/>
  <anchor x="300" y="1676" name="top"/>
  <outline>
    <contour>
      <point x="500" y="1489" type="line"/>
      <point x="96" y="1489" type="line"/>
      <point x="96" y="0" type="line"/>
      <point x="500" y="0" type="line"/>
    </contour>
  </outline>
</glyph>
<glyph name="J" format="2">
  <advance height="2479" width="1204"/>
  <unicode hex="004A"/>
  <anchor x="905" y="884" name="cross"/>
  <anchor x="908" y="1676" name="top"/>
  <outline>
    <contour>
      <point x="710" y="1489" type="line"/>
      <point x="710" y="468" type="line"/>
      <point x="708" y="353"/>
      <point x="660" y="294"/>
      <point x="570" y="294" type="curve" smooth="yes"/>
      <point x="481" y="294"/>
      <point x="432" y="353"/>
      <point x="428" y="465" type="curve"/>
      <point x="23" y="465" type="line"/>
      <point x="22" y="122"/>
      <point x="257" y="-20"/>
      <point x="544" y="-20" type="curve" smooth="yes"/>
      <point x="874" y="-20"/>
      <point x="1107" y="177"/>
      <point x="1108" y="468" type="curve"/>
      <point x="1108" y="1489" type="line"/>
    </contour>
  </outline>
</glyph>
<glyph name="K" format="2">
  <advance height="2479" width="1463"/>
  <unicode hex="004B"/>
  <anchor x="721" y="3" name="bottom"/>
  <anchor x="724" y="1676" name="top"/>
  <outline>
    <contour>
      <point x="96" y="0" type="line"/>
      <point x="500" y="0" type="line"/>
      <point x="500" y="384" type="line"/>
      <point x="634" y="559" type="line"/>
      <point x="969" y="0" type="line"/>
      <point x="1452" y="0" type="line"/>
      <point x="937" y="826" type="line"/>
      <point x="1440" y="1489" type="line"/>
      <point x="969" y="1489" type="line"/>
      <point x="521" y="887" type="line"/>
      <point x="500" y="887" type="line"/>
      <point x="500" y="1489" type="line"/>
      <point x="96" y="1489" type="line"/>
    </contour>
  </outline>
</glyph>
<glyph name="L" format="2">
  <advance height="2479" width="1169"/>
  <unicode hex="004C"/>
  <anchor x="599" y="0" name="bottom"/>
  <anchor x="297" y="788" name="cross"/>
  <anchor x="605" y="873" name="dot"/>
  <anchor x="704" y="1489" name="raccent"/>
  <anchor x="294" y="1676" name="top"/>
  <outline>
    <contour>
      <point x="96" y="0" type="line"/>
      <point x="1103" y="0" type="line"/>
      <point x="1103" y="326" type="line"/>
      <point x="500" y="326" type="line"/>
      <point x="500" y="1489" type="line"/>
      <point x="96" y="1489" type="line"/>
    </contour>
  </outline>
</glyph>
<glyph name="N" format="2">
  <advance height="2479" width="1481"/>
  <unicode hex="004E"/>
  <anchor x="742" y="0" name="bottom"/>
  <anchor x="1455" y="0" name="right"/>
  <anchor x="742" y="1676" name="top"/>
  <outline>
    <contour>
      <point x="1385" y="1489" type="line"/>
      <point x="980" y="1489" type="line"/>
      <point x="980" y="710" type="line"/>
      <point x="969" y="710" type="line"/>
      <point x="439" y="1489" type="line"/>
      <point x="96" y="1489" type="line"/>
      <point x="96" y="0" type="line"/>
      <point x="500" y="0" type="line"/>
      <point x="500" y="783" type="line"/>
      <point x="509" y="783" type="line"/>
      <point x="1047" y="0" type="line"/>
      <point x="1385" y="0" type="line"/>
    </contour>
  </outline>
</glyph>
<glyph name="O" format="2">
  <advance height="2479" width="1629"/>
  <unicode hex="004F"/>
  <anchor x="815" y="0" name="bottom"/>
  <anchor x="1021" y="6" name="ogonek"/>
  <anchor x="172" y="1489" name="tonos"/>
  <anchor x="815" y="1676" name="top"/>
  <outline>
    <contour>
      <point x="1539" y="745" type="curve" smooth="yes"/>
      <point x="1539" y="1242"/>
      <point x="1219" y="1510"/>
      <point x="815" y="1510" type="curve" smooth="yes"/>
      <point x="407" y="1510"/>
      <point x="90" y="1242"/>
      <point x="90" y="745" type="curve" smooth="yes"/>
      <point x="90" y="250"/>
      <point x="407" y="-20"/>
      <point x="815" y="-20" type="curve" smooth="yes"/>
      <point x="1219" y="-20"/>
      <point x="1539" y="247"/>
    </contour>
    <contour>
      <point x="1123" y="745" type="curve" smooth="yes"/>
      <point x="1123" y="477"/>
      <point x="1015" y="332"/>
      <point x="815" y="332" type="curve" smooth="yes"/>
      <point x="614" y="332"/>
      <point x="506" y="477"/>
      <point x="506" y="745" type="curve" smooth="yes"/>
      <point x="506" y="1012"/>
      <point x="614" y="1158"/>
      <point x="815" y="1158" type="curve" smooth="yes"/>
      <point x="1015" y="1158"/>
      <point x="1123" y="1012"/>
    </contour>
  </outline>
</glyph>
<glyph name="R" format="2">
  <advance height="2479" width="1367"/>
  <unicode hex="0052"/>
  <anchor x="698" y="0" name="bottom"/>
  <anchor x="675" y="1676" name="top"/>
  <outline>
    <contour>
      <point x="96" y="0" type="line"/>
      <point x="500" y="0" type="line"/>
      <point x="500" y="1167" type="line"/>
      <point x="643" y="1167" type="line" smooth="yes"/>
      <point x="785" y="1167"/>
      <point x="870" y="1111"/>
      <point x="870" y="983" type="curve" smooth="yes"/>
      <point x="870" y="856"/>
      <point x="785" y="806"/>
      <point x="643" y="806" type="curve" smooth="yes"/>
      <point x="340" y="806" type="line"/>
      <point x="340" y="492" type="line"/>
      <point x="724" y="492" type="line" smooth="yes"/>
      <point x="1064" y="492"/>
      <point x="1292" y="663"/>
      <point x="1292" y="983" type="curve" smooth="yes"/>
      <point x="1292" y="1300"/>
      <point x="1070" y="1489"/>
      <point x="739" y="1489" type="curve" smooth="yes"/>
      <point x="96" y="1489" type="line"/>
    </contour>
    <contour>
      <point x="969" y="684" type="line"/>
      <point x="538" y="684" type="line"/>
      <point x="902" y="0" type="line"/>
      <point x="1341" y="0" type="line"/>
    </contour>
  </outline>
</glyph>
<glyph name="U" format="2">
  <advance height="2479" width="1478"/>
  <unicode hex="0055"/>
  <anchor x="739" y="9" name="bottom"/>
  <anchor x="960" y="10" name="ogonek"/>
  <anchor x="867" y="0" name="right"/>
  <anchor x="739" y="1676" name="top"/>
  <outline>
    <contour>
      <point x="977" y="1489" type="line"/>
      <point x="977" y="570" type="line" smooth="yes"/>
      <point x="977" y="431"/>
      <point x="878" y="332"/>
      <point x="739" y="332" type="curve" smooth="yes"/>
      <point x="600" y="332"/>
      <point x="500" y="431"/>
      <point x="500" y="570" type="curve" smooth="yes"/>
      <point x="500" y="1489" type="line"/>
      <point x="96" y="1489" type="line"/>
      <point x="96" y="535" type="line" smooth="yes"/>
      <point x="96" y="195"/>
      <point x="353" y="-17"/>
      <point x="739" y="-17" type="curve" smooth="yes"/>
      <point x="1121" y="-17"/>
      <point x="1382" y="195"/>
      <point x="1382" y="535" type="curve" smooth="yes"/>
      <point x="1382" y="1489" type="line"/>
    </contour>
  </outline>
</glyph>
<glyph name="W" format="2">
  <advance height="2479" width="2231"/>
  <unicode hex="0057"/>
  <anchor x="1116" y="0" name="bottom"/>
  <anchor x="1116" y="1676" name="top"/>
  <outline>
    <contour>
      <point x="470" y="0" type="line"/>
      <point x="857" y="0" type="line"/>
      <point x="1110" y="832" type="line"/>
      <point x="1122" y="832" type="line"/>
      <point x="1375" y="0" type="line"/>
      <point x="1762" y="0" type="line"/>
      <point x="2201" y="1489" type="line"/>
      <point x="1750" y="1489" type="line"/>
      <point x="1547" y="570" type="line"/>
      <point x="1535" y="570" type="line"/>
      <point x="1293" y="1489" type="line"/>
      <point x="939" y="1489" type="line"/>
      <point x="697" y="573" type="line"/>
      <point x="685" y="573" type="line"/>
      <point x="482" y="1489" type="line"/>
      <point x="31" y="1489" type="line"/>
    </contour>
  </outline>
</glyph>
<glyph name="bracketleft" format="2">
  <advance height="2479" width="902"/>
  <unicode hex="005B"/>
  <outline>
    <contour>
      <point x="201" y="-337" type="line"/>
      <point x="870" y="-337" type="line"/>
      <point x="870" y="-47" type="line"/>
      <point x="591" y="-47" type="line"/>
      <point x="591" y="1199" type="line"/>
      <point x="870" y="1199" type="line"/>
      <point x="870" y="1489" type="line"/>
      <point x="201" y="1489" type="line"/>
    </contour>
  </outline>
</glyph>
<glyph name="underscore" format="2">
  <advance height="2479" width="1009"/>
  <unicode hex="005F"/>
  <anchor x="506" y="125" name="_bottom"/>
  <outline>
    <contour>
      <point x="1009" y="0" type="line"/>
      <point x="0" y="0" type="line"/>
      <point x="0" y="-285" type="line"/>
      <point x="1009" y="-285" type="line"/>
    </contour>
  </outline>
</glyph>
<glyph name="grave" format="2">
  <advance height="2479" width="1018"/>
  <unicode hex="0060"/>
  <anchor x="617" y="1303" name="_top"/>
  <anchor x="617" y="1676" name="top"/>
  <outline>
    <contour>
      <point x="486" y="1257" type="line"/>
      <point x="751" y="1257" type="line"/>
      <point x="611" y="1583" type="line"/>
      <point x="268" y="1583" type="line"/>
    </contour>
  </outline>
</glyph>
<glyph name="a" format="2">
  <advance height="2479" width="1210"/>
  <unicode hex="0061"/>
  <anchor x="602" y="0" name="bottom"/>
  <anchor x="1120" y="0" name="ogonek"/>
  <anchor x="625" y="1303" name="rhalfring"/>
  <anchor x="617" y="1303" name="top"/>
  <outline>
    <contour>
      <point x="413" y="-23" type="curve" smooth="yes"/>
      <point x="559" y="-23"/>
      <point x="668" y="32"/>
      <point x="736" y="157" type="curve"/>
      <point x="745" y="157" type="line"/>
      <point x="745" y="0" type="line"/>
      <point x="1120" y="0" type="line"/>
      <point x="1120" y="765" type="line" smooth="yes"/>
      <point x="1120" y="972"/>
      <point x="924" y="1132"/>
      <point x="605" y="1132" type="curve" smooth="yes"/>
      <point x="271" y="1132"/>
      <point x="107" y="957"/>
      <point x="93" y="753" type="curve"/>
      <point x="463" y="753" type="line"/>
      <point x="472" y="823"/>
      <point x="523" y="855"/>
      <point x="599" y="855" type="curve" smooth="yes"/>
      <point x="669" y="855"/>
      <point x="719" y="823"/>
      <point x="719" y="765" type="curve" smooth="yes"/>
      <point x="719" y="762" type="line" smooth="yes"/>
      <point x="719" y="697"/>
      <point x="647" y="677"/>
      <point x="460" y="663" type="curve" smooth="yes"/>
      <point x="229" y="647"/>
      <point x="49" y="553"/>
      <point x="49" y="308" type="curve" smooth="yes"/>
      <point x="49" y="86"/>
      <point x="199" y="-23"/>
    </contour>
    <contour>
      <point x="544" y="230" type="curve" smooth="yes"/>
      <point x="476" y="230"/>
      <point x="428" y="269"/>
      <point x="428" y="332" type="curve" smooth="yes"/>
      <point x="428" y="389"/>
      <point x="468" y="433"/>
      <point x="561" y="448" type="curve" smooth="yes"/>
      <point x="625" y="458"/>
      <point x="679" y="471"/>
      <point x="721" y="489" type="curve"/>
      <point x="721" y="396" type="line" smooth="yes"/>
      <point x="721" y="294"/>
      <point x="635" y="230"/>
    </contour>
  </outline>
</glyph>
<glyph name="b" format="2">
  <advance height="2479" width="1321"/>
  <unicode hex="0062"/>
  <anchor x="631" y="0" name="bottom"/>
  <anchor x="294" y="1280" name="cross"/>
  <anchor x="832" y="1303" name="top"/>
  <outline>
    <contour>
      <point x="96" y="0" type="line"/>
      <point x="495" y="0" type="line"/>
      <point x="495" y="183" type="line"/>
      <point x="503" y="183" type="line"/>
      <point x="550" y="70"/>
      <point x="657" y="-15"/>
      <point x="815" y="-15" type="curve" smooth="yes"/>
      <point x="1053" y="-15"/>
      <point x="1254" y="172"/>
      <point x="1254" y="559" type="curve"/>
      <point x="1254" y="963"/>
      <point x="1039" y="1132"/>
      <point x="817" y="1132" type="curve" smooth="yes"/>
      <point x="652" y="1132"/>
      <point x="547" y="1036"/>
      <point x="503" y="922" type="curve"/>
      <point x="497" y="922" type="line"/>
      <point x="497" y="1489" type="line"/>
      <point x="96" y="1489" type="line"/>
    </contour>
    <contour>
      <point x="489" y="559" type="curve"/>
      <point x="489" y="724"/>
      <point x="556" y="823"/>
      <point x="666" y="823" type="curve" smooth="yes"/>
      <point x="777" y="823"/>
      <point x="841" y="724"/>
      <point x="841" y="559" type="curve" smooth="yes"/>
      <point x="841" y="393"/>
      <point x="777" y="294"/>
      <point x="666" y="294" type="curve" smooth="yes"/>
      <point x="556" y="294"/>
      <point x="489" y="396"/>
    </contour>
  </outline>
</glyph>
<glyph name="c" format="2">
  <advance height="2479" width="1242"/>
  <unicode hex="0063"/>
  <anchor x="643" y="0" name="cedilla"/>
  <anchor x="643" y="1303" name="top"/>
  <outline>
    <contour>
      <point x="640" y="-20" type="curve" smooth="yes"/>
      <point x="971" y="-20"/>
      <point x="1174" y="169"/>
      <point x="1178" y="465" type="curve"/>
      <point x="806" y="465" type="line"/>
      <point x="797" y="348"/>
      <point x="734" y="285"/>
      <point x="646" y="285" type="curve" smooth="yes"/>
      <point x="540" y="285"/>
      <point x="471" y="375"/>
      <point x="471" y="559" type="curve" smooth="yes"/>
      <point x="471" y="742"/>
      <point x="540" y="832"/>
      <point x="646" y="832" type="curve" smooth="yes"/>
      <point x="735" y="832"/>
      <point x="795" y="769"/>
      <point x="806" y="652" type="curve"/>
      <point x="1178" y="652" type="line"/>
      <point x="1176" y="943"/>
      <point x="969" y="1132"/>
      <point x="640" y="1132" type="curve" smooth="yes"/>
      <point x="276" y="1132"/>
      <point x="61" y="899"/>
      <point x="61" y="556" type="curve" smooth="yes"/>
      <point x="61" y="212"/>
      <point x="276" y="-20"/>
    </contour>
  </outline>
</glyph>
<glyph name="d" format="2">
  <advance height="2479" width="1321"/>
  <unicode hex="0064"/>
  <anchor x="660" y="0" name="bottom"/>
  <anchor x="1024" y="1280" name="cross"/>
  <anchor x="1341" y="1489" name="raccent"/>
  <anchor x="547" y="1489" name="top"/>
  <outline>
    <contour>
      <point x="506" y="-15" type="curve" smooth="yes"/>
      <point x="663" y="-15"/>
      <point x="771" y="70"/>
      <point x="817" y="183" type="curve"/>
      <point x="826" y="183" type="line"/>
      <point x="826" y="0" type="line"/>
      <point x="1225" y="0" type="line"/>
      <point x="1225" y="1489" type="line"/>
      <point x="823" y="1489" type="line"/>
      <point x="823" y="922" type="line"/>
      <point x="817" y="922" type="line"/>
      <point x="774" y="1036"/>
      <point x="669" y="1132"/>
      <point x="503" y="1132" type="curve" smooth="yes"/>
      <point x="282" y="1132"/>
      <point x="67" y="963"/>
      <point x="67" y="559" type="curve"/>
      <point x="67" y="172"/>
      <point x="268" y="-15"/>
    </contour>
    <contour>
      <point x="655" y="294" type="curve" smooth="yes"/>
      <point x="544" y="294"/>
      <point x="480" y="393"/>
      <point x="480" y="559" type="curve" smooth="yes"/>
      <point x="480" y="724"/>
      <point x="544" y="823"/>
      <point x="655" y="823" type="curve" smooth="yes"/>
      <point x="765" y="823"/>
      <point x="832" y="724"/>
      <point x="832" y="559" type="curve"/>
      <point x="832" y="396"/>
      <point x="765" y="294"/>
    </contour>
  </outline>
</glyph>
<glyph name="f" format="2">
  <advance height="2479" width="823"/>
  <unicode hex="0066"/>
  <anchor x="364" y="0" name="bottom"/>
  <anchor x="367" y="610" name="cross"/>
  <anchor x="492" y="1676" name="top"/>
  <outline>
    <contour>
      <point x="771" y="1117" type="line"/>
      <point x="23" y="1117" type="line"/>
      <point x="23" y="826" type="line"/>
      <point x="771" y="826" type="line"/>
    </contour>
    <component base="_part.f_base" xOffset="-17"/>
  </outline>
</glyph>
<glyph name="g" format="2">
  <advance height="2479" width="1330"/>
  <unicode hex="0067"/>
  <anchor x="640" y="-416" name="bottom"/>
  <anchor x="1024" y="567" name="cross"/>
  <anchor x="640" y="1303" name="top"/>
  <outline>
    <contour>
      <point x="640" y="-442" type="curve" smooth="yes"/>
      <point x="993" y="-442"/>
      <point x="1228" y="-281"/>
      <point x="1228" y="3" type="curve" smooth="yes"/>
      <point x="1228" y="1117" type="line"/>
      <point x="826" y="1117" type="line"/>
      <point x="826" y="922" type="line"/>
      <point x="817" y="922" type="line"/>
      <point x="774" y="1036"/>
      <point x="669" y="1132"/>
      <point x="503" y="1132" type="curve" smooth="yes"/>
      <point x="282" y="1132"/>
      <point x="67" y="963"/>
      <point x="67" y="559" type="curve" smooth="yes"/>
      <point x="67" y="172"/>
      <point x="268" y="15"/>
      <point x="506" y="15" type="curve" smooth="yes"/>
      <point x="657" y="15"/>
      <point x="777" y="79"/>
      <point x="820" y="192" type="curve"/>
      <point x="832" y="192" type="line"/>
      <point x="832" y="3" type="line" smooth="yes"/>
      <point x="832" y="-129"/>
      <point x="756" y="-172"/>
      <point x="652" y="-172" type="curve" smooth="yes"/>
      <point x="559" y="-172"/>
      <point x="492" y="-144"/>
      <point x="480" y="-73" type="curve"/>
      <point x="93" y="-73" type="line"/>
      <point x="108" y="-288"/>
      <point x="304" y="-442"/>
    </contour>
    <contour>
      <point x="655" y="300" type="curve" smooth="yes"/>
      <point x="544" y="300"/>
      <point x="480" y="393"/>
      <point x="480" y="559" type="curve" smooth="yes"/>
      <point x="480" y="724"/>
      <point x="544" y="823"/>
      <point x="655" y="823" type="curve" smooth="yes"/>
      <point x="765" y="823"/>
      <point x="832" y="724"/>
      <point x="832" y="559" type="curve" smooth="yes"/>
      <point x="832" y="396"/>
      <point x="765" y="300"/>
    </contour>
  </outline>
</glyph>
<glyph name="h" format="2">
  <advance height="2479" width="1324"/>
  <unicode hex="0068"/>
  <anchor x="663" y="0" name="bottom"/>
  <anchor x="294" y="0" name="cedilla"/>
  <anchor x="294" y="1271" name="cross"/>
  <anchor x="297" y="1676" name="top"/>
  <outline>
    <contour>
      <point x="503" y="628" type="line" smooth="yes"/>
      <point x="504" y="739"/>
      <point x="568" y="806"/>
      <point x="666" y="806" type="curve" smooth="yes"/>
      <point x="769" y="806"/>
      <point x="827" y="739"/>
      <point x="826" y="628" type="curve" smooth="yes"/>
      <point x="826" y="0" type="line"/>
      <point x="1228" y="0" type="line"/>
      <point x="1228" y="713" type="line" smooth="yes"/>
      <point x="1228" y="957"/>
      <point x="1074" y="1132"/>
      <point x="838" y="1132" type="curve" smooth="yes"/>
      <point x="673" y="1132"/>
      <point x="551" y="1047"/>
      <point x="500" y="905" type="curve"/>
      <point x="489" y="905" type="line"/>
      <point x="489" y="1489" type="line"/>
      <point x="102" y="1489" type="line"/>
      <point x="102" y="0" type="line"/>
      <point x="503" y="0" type="line"/>
    </contour>
  </outline>
</glyph>
<glyph name="n" format="2">
  <advance height="2479" width="1324"/>
  <unicode hex="006E"/>
  <anchor x="663" y="0" name="bottom"/>
  <anchor x="663" y="1303" name="top"/>
  <outline>
    <contour>
      <point x="503" y="628" type="line" smooth="yes"/>
      <point x="504" y="739"/>
      <point x="567" y="806"/>
      <point x="666" y="806" type="curve" smooth="yes"/>
      <point x="767" y="806"/>
      <point x="827" y="739"/>
      <point x="826" y="628" type="curve" smooth="yes"/>
      <point x="826" y="0" type="line"/>
      <point x="1228" y="0" type="line"/>
      <point x="1228" y="713" type="line" smooth="yes"/>
      <point x="1228" y="956"/>
      <point x="1075" y="1132"/>
      <point x="838" y="1132" type="curve" smooth="yes"/>
      <point x="673" y="1132"/>
      <point x="543" y="1046"/>
      <point x="495" y="905" type="curve"/>
      <point x="483" y="905" type="line"/>
      <point x="483" y="1117" type="line"/>
      <point x="102" y="1117" type="line"/>
      <point x="102" y="0" type="line"/>
      <point x="503" y="0" type="line"/>
    </contour>
  </outline>
</glyph>
<glyph name="o" format="2">
  <advance height="2479" width="1280"/>
  <unicode hex="006F"/>
  <anchor x="640" y="0" name="bottom"/>
  <anchor x="806" y="0" name="ogonek"/>
  <anchor x="640" y="1303" name="top"/>
  <outline>
    <contour>
      <point x="640" y="-20" type="curve" smooth="yes"/>
      <point x="1004" y="-20"/>
      <point x="1219" y="212"/>
      <point x="1219" y="556" type="curve" smooth="yes"/>
      <point x="1219" y="899"/>
      <point x="1004" y="1132"/>
      <point x="640" y="1132" type="curve" smooth="yes"/>
      <point x="276" y="1132"/>
      <point x="61" y="899"/>
      <point x="61" y="556" type="curve" smooth="yes"/>
      <point x="61" y="212"/>
      <point x="276" y="-20"/>
    </contour>
    <contour>
      <point x="643" y="276" type="curve" smooth="yes"/>
      <point x="535" y="276"/>
      <point x="471" y="383"/>
      <point x="471" y="559" type="curve" smooth="yes"/>
      <point x="471" y="734"/>
      <point x="535" y="841"/>
      <point x="643" y="841" type="curve" smooth="yes"/>
      <point x="745" y="841"/>
      <point x="809" y="734"/>
      <point x="809" y="559" type="curve" smooth="yes"/>
      <point x="809" y="383"/>
      <point x="745" y="276"/>
    </contour>
  </outline>
</glyph>
<glyph name="q" format="2">
  <advance height="2479" width="1321"/>
  <unicode hex="0071"/>
  <anchor x="1015" y="-401" name="bottom"/>
  <anchor x="1021" y="-163" name="cross"/>
  <anchor x="593" y="1303" name="top"/>
  <outline>
    <contour>
      <point x="817" y="-419" type="line"/>
      <point x="1219" y="-419" type="line"/>
      <point x="1219" y="1117" type="line"/>
      <point x="820" y="1117" type="line"/>
      <point x="820" y="922" type="line"/>
      <point x="812" y="922" type="line"/>
      <point x="768" y="1036"/>
      <point x="663" y="1132"/>
      <point x="497" y="1132" type="curve" smooth="yes"/>
      <point x="276" y="1132"/>
      <point x="61" y="963"/>
      <point x="61" y="559" type="curve"/>
      <point x="61" y="172"/>
      <point x="262" y="-15"/>
      <point x="500" y="-15" type="curve" smooth="yes"/>
      <point x="657" y="-15"/>
      <point x="765" y="70"/>
      <point x="812" y="183" type="curve"/>
      <point x="817" y="183" type="line"/>
    </contour>
    <contour>
      <point x="649" y="294" type="curve" smooth="yes"/>
      <point x="538" y="294"/>
      <point x="474" y="393"/>
      <point x="474" y="559" type="curve" smooth="yes"/>
      <point x="474" y="724"/>
      <point x="538" y="823"/>
      <point x="649" y="823" type="curve" smooth="yes"/>
      <point x="759" y="823"/>
      <point x="826" y="724"/>
      <point x="826" y="559" type="curve"/>
      <point x="826" y="396"/>
      <point x="759" y="294"/>
    </contour>
  </outline>
</glyph>
<glyph name="r" format="2">
  <advance height="2479" width="887"/>
  <unicode hex="0072"/>
  <anchor x="305" y="0" name="bottom"/>
  <anchor x="303" y="535" name="cross"/>
  <anchor x="483" y="1303" name="top"/>
  <outline>
    <contour>
      <point x="102" y="0" type="line"/>
      <point x="503" y="0" type="line"/>
      <point x="503" y="582" type="line" smooth="yes"/>
      <point x="503" y="710"/>
      <point x="591" y="794"/>
      <point x="710" y="794" type="curve" smooth="yes"/>
      <point x="751" y="794"/>
      <point x="818" y="788"/>
      <point x="858" y="774" type="curve"/>
      <point x="858" y="1116" type="line"/>
      <point x="826" y="1126"/>
      <point x="791" y="1132"/>
      <point x="756" y="1132" type="curve"/>
      <point x="637" y="1132"/>
      <point x="544" y="1062"/>
      <point x="503" y="905" type="curve"/>
      <point x="492" y="905" type="line"/>
      <point x="492" y="1117" type="line"/>
      <point x="102" y="1117" type="line"/>
    </contour>
  </outline>
</glyph>
<glyph name="v" format="2">
  <advance height="2479" width="1239"/>
  <unicode hex="0076"/>
  <anchor x="620" y="0" name="bottom"/>
  <anchor x="620" y="1303" name="top"/>
  <outline>
    <contour>
      <point x="1228" y="1117" type="line"/>
      <point x="806" y="1117" type="line"/>
      <point x="625" y="378" type="line"/>
      <point x="614" y="378" type="line"/>
      <point x="433" y="1117" type="line"/>
      <point x="12" y="1117" type="line"/>
      <point x="387" y="0" type="line"/>
      <point x="852" y="0" type="line"/>
    </contour>
  </outline>
</glyph>
<glyph name="w" format="2">
  <advance height="2479" width="1792"/>
  <unicode hex="0077"/>
  <anchor x="887" y="0" name="bottom"/>
  <anchor x="896" y="1303" name="top"/>
  <outline>
    <contour>
      <point x="300" y="0" type="line"/>
      <point x="733" y="0" type="line"/>
      <point x="890" y="599" type="line"/>
      <point x="902" y="599" type="line"/>
      <point x="1059" y="0" type="line"/>
      <point x="1492" y="0" type="line"/>
      <point x="1772" y="1117" type="line"/>
      <point x="1370" y="1117" type="line"/>
      <point x="1248" y="442" type="line"/>
      <point x="1239" y="442" type="line"/>
      <point x="1091" y="1117" type="line"/>
      <point x="701" y="1117" type="line"/>
      <point x="559" y="436" type="line"/>
      <point x="550" y="436" type="line"/>
      <point x="422" y="1117" type="line"/>
      <point x="20" y="1117" type="line"/>
    </contour>
  </outline>
</glyph>
<glyph name="z" format="2">
  <advance height="2479" width="1213"/>
  <unicode hex="007A"/>
  <anchor x="611" y="0" name="bottom"/>
  <anchor x="602" y="559" name="cross"/>
  <anchor x="605" y="1303" name="top"/>
  <outline>
    <contour>
      <point x="113" y="0" type="line"/>
      <point x="1094" y="0" type="line"/>
      <point x="1094" y="305" type="line"/>
      <point x="631" y="305" type="line"/>
      <point x="631" y="311" type="line"/>
      <point x="1076" y="873" type="line"/>
      <point x="1076" y="1117" type="line"/>
      <point x="131" y="1117" type="line"/>
      <point x="131" y="812" type="line"/>
      <point x="602" y="812" type="line"/>
      <point x="602" y="806" type="line"/>
      <point x="113" y="221" type="line"/>
    </contour>
  </outline>
</glyph>
<glyph name="bar" format="2">
  <advance height="2479" width="829"/>
  <unicode hex="007C"/>
  <outline>
    <contour>
      <point x="611" y="1969" type="line"/>
      <point x="218" y="1969" type="line"/>
      <point x="218" y="-480" type="line"/>
      <point x="611" y="-480" type="line"/>
    </contour>
  </outline>
</glyph>
<glyph name="cent" format="2">
  <advance height="2479" width="1242"/>
  <unicode hex="00A2"/>
  <anchor x="643" y="189" name="cedilla"/>
  <anchor x="643" y="1492" name="top"/>
  <outline>
    <contour>
      <point x="585" y="0" type="line"/>
      <point x="704" y="0" type="line"/>
      <point x="704" y="1489" type="line"/>
      <point x="585" y="1489" type="line"/>
    </contour>
    <component base="c" yOffset="189"/>
  </outline>
</glyph>
<glyph name="yen" format="2">
  <advance height="2479" width="1204"/>
  <unicode hex="00A5"/>
  <outline>
    <contour>
      <point x="433" y="1489" type="line"/>
      <point x="29" y="1489" type="line"/>
      <point x="431" y="561" type="line"/>
      <point x="692" y="791" type="line"/>
    </contour>
    <contour>
      <point x="518" y="803" type="line"/>
      <point x="771" y="561" type="line"/>
      <point x="1175" y="1489" type="line"/>
      <point x="771" y="1489" type="line"/>
    </contour>
    <contour>
      <point x="794" y="785" type="line"/>
      <point x="396" y="785" type="line"/>
      <point x="396" y="0" type="line"/>
      <point x="794" y="0" type="line"/>
    </contour>
    <contour>
      <point x="1068" y="785" type="line"/>
      <point x="84" y="785" type="line"/>
      <point x="84" y="573" type="line"/>
      <point x="1068" y="573" type="line"/>
    </contour>
    <contour>
      <point x="1068" y="497" type="line"/>
      <point x="84" y="497" type="line"/>
      <point x="84" y="285" type="line"/>
      <point x="1068" y="285" type="line"/>
    </contour>
  </outline>
</glyph>
<glyph name="brokenbar" format="2">
  <advance height="2479" width="815"/>
  <unicode hex="00A6"/>
  <outline>
    <contour>
      <point x="230" y="425" type="line"/>
      <point x="230" y="-279" type="line"/>
      <point x="585" y="-279" type="line"/>
      <point x="585" y="425" type="line"/>
    </contour>
    <contour>
      <point x="585" y="1489" type="line"/>
      <point x="230" y="1489" type="line"/>
      <point x="230" y="788" type="line"/>
      <point x="585" y="788" type="line"/>
    </contour>
  </outline>
</glyph>
<glyph name="section" format="2">
  <advance height="2479" width="1271"/>
  <unicode hex="00A7"/>
  <outline>
    <contour>
      <point x="1085" y="1108" type="line"/>
      <point x="1084" y="1338"/>
      <point x="895" y="1510"/>
      <point x="620" y="1510" type="curve"/>
      <point x="348" y="1510"/>
      <point x="159" y="1341"/>
      <point x="160" y="1114" type="curve"/>
      <point x="159" y="989"/>
      <point x="215" y="896"/>
      <point x="297" y="817" type="curve"/>
      <point x="297" y="817" type="line"/>
      <point x="252" y="806"/>
      <point x="142" y="788"/>
      <point x="125" y="655" type="curve" smooth="yes"/>
      <point x="95" y="419"/>
      <point x="287" y="335"/>
      <point x="369" y="305" type="curve" smooth="yes"/>
      <point x="646" y="204" type="line" smooth="yes"/>
      <point x="689" y="186"/>
      <point x="764" y="148"/>
      <point x="765" y="96" type="curve" smooth="yes"/>
      <point x="764" y="49"/>
      <point x="700" y="35"/>
      <point x="649" y="32" type="curve" smooth="yes"/>
      <point x="546" y="23"/>
      <point x="494" y="58"/>
      <point x="495" y="116" type="curve"/>
      <point x="151" y="116" type="line"/>
      <point x="151" y="-134"/>
      <point x="348" y="-300"/>
      <point x="643" y="-300" type="curve" smooth="yes"/>
      <point x="921" y="-300"/>
      <point x="1113" y="-143"/>
      <point x="1114" y="96" type="curve" smooth="yes"/>
      <point x="1113" y="218"/>
      <point x="1064" y="311"/>
      <point x="975" y="390" type="curve"/>
      <point x="980" y="393" type="line"/>
      <point x="1015" y="401"/>
      <point x="1131" y="425"/>
      <point x="1149" y="556" type="curve" smooth="yes"/>
      <point x="1180" y="788"/>
      <point x="985" y="873"/>
      <point x="908" y="902" type="curve" smooth="yes"/>
      <point x="631" y="1007" type="line"/>
      <point x="581" y="1018"/>
      <point x="505" y="1056"/>
      <point x="506" y="1114" type="curve" smooth="yes"/>
      <point x="505" y="1181"/>
      <point x="578" y="1181"/>
      <point x="620" y="1181" type="curve" smooth="yes"/>
      <point x="697" y="1181"/>
      <point x="741" y="1149"/>
      <point x="742" y="1108" type="curve"/>
    </contour>
    <contour>
      <point x="832" y="529" type="curve" smooth="yes"/>
      <point x="820" y="506"/>
      <point x="802" y="500"/>
      <point x="768" y="512" type="curve" smooth="yes"/>
      <point x="544" y="588" type="line" smooth="yes"/>
      <point x="456" y="617"/>
      <point x="427" y="657"/>
      <point x="439" y="681" type="curve"/>
      <point x="450" y="701"/>
      <point x="468" y="710"/>
      <point x="512" y="695" type="curve" smooth="yes"/>
      <point x="727" y="623" type="line" smooth="yes"/>
      <point x="820" y="591"/>
      <point x="843" y="556"/>
    </contour>
  </outline>
</glyph>
<glyph name="copyright" format="2">
  <advance height="2479" width="1873"/>
  <unicode hex="00A9"/>
  <outline>
    <contour>
      <point x="545" y="745" type="curve" smooth="yes"/>
      <point x="545" y="527"/>
      <point x="723" y="349"/>
      <point x="941" y="349" type="curve" smooth="yes"/>
      <point x="1135" y="349"/>
      <point x="1297" y="490"/>
      <point x="1316" y="675" type="curve"/>
      <point x="1073" y="675" type="line"/>
      <point x="1062" y="620"/>
      <point x="1006" y="582"/>
      <point x="941" y="582" type="curve" smooth="yes"/>
      <point x="852" y="582"/>
      <point x="778" y="656"/>
      <point x="778" y="746" type="curve" smooth="yes"/>
      <point x="778" y="836"/>
      <point x="852" y="908"/>
      <point x="941" y="908" type="curve" smooth="yes"/>
      <point x="1006" y="908"/>
      <point x="1062" y="870"/>
      <point x="1073" y="815" type="curve"/>
      <point x="1316" y="815" type="line"/>
      <point x="1297" y="999"/>
      <point x="1135" y="1140"/>
      <point x="941" y="1140" type="curve" smooth="yes"/>
      <point x="723" y="1140"/>
      <point x="545" y="963"/>
    </contour>
    <component base="whiteCircle"/>
  </outline>
</glyph>
<glyph name="logicalnot" format="2">
  <advance height="2479" width="1242"/>
  <unicode hex="00AC"/>
  <outline>
    <contour>
      <point x="1062" y="806" type="line"/>
      <point x="186" y="806" type="line"/>
      <point x="186" y="634" type="line"/>
      <point x="1062" y="634" type="line"/>
    </contour>
    <contour>
      <point x="1062" y="727" type="line"/>
      <point x="852" y="727" type="line"/>
      <point x="852" y="375" type="line"/>
      <point x="1062" y="375" type="line"/>
    </contour>
  </outline>
</glyph>
<glyph name="registered" format="2">
  <advance height="2479" width="1350"/>
  <unicode hex="00AE"/>
  <outline>
    <contour>
      <point x="460" y="666" type="line"/>
      <point x="614" y="666" type="line"/>
      <point x="614" y="1089" type="line"/>
      <point x="687" y="1089" type="line" smooth="yes"/>
      <point x="733" y="1089"/>
      <point x="758" y="1066"/>
      <point x="758" y="1021" type="curve" smooth="yes"/>
      <point x="758" y="978"/>
      <point x="733" y="956"/>
      <point x="687" y="956" type="curve" smooth="yes"/>
      <point x="543" y="956" type="line"/>
      <point x="543" y="845" type="line"/>
      <point x="711" y="845" type="line" smooth="yes"/>
      <point x="839" y="845"/>
      <point x="916" y="909"/>
      <point x="916" y="1021" type="curve" smooth="yes"/>
      <point x="916" y="1132"/>
      <point x="842" y="1203"/>
      <point x="716" y="1203" type="curve" smooth="yes"/>
      <point x="460" y="1203" type="line"/>
    </contour>
    <contour>
      <point x="815" y="911" type="line"/>
      <point x="657" y="911" type="line"/>
      <point x="761" y="666" type="line"/>
      <point x="929" y="666" type="line"/>
    </contour>
    <contour>
      <point x="675" y="346" type="curve" smooth="yes"/>
      <point x="997" y="346"/>
      <point x="1257" y="607"/>
      <point x="1257" y="928" type="curve" smooth="yes"/>
      <point x="1257" y="1249"/>
      <point x="996" y="1510"/>
      <point x="675" y="1510" type="curve" smooth="yes"/>
      <point x="353" y="1510"/>
      <point x="93" y="1249"/>
      <point x="93" y="928" type="curve" smooth="yes"/>
      <point x="93" y="607"/>
      <point x="353" y="346"/>
    </contour>
    <contour>
      <point x="675" y="509" type="curve" smooth="yes"/>
      <point x="444" y="509"/>
      <point x="256" y="697"/>
      <point x="256" y="928" type="curve" smooth="yes"/>
      <point x="256" y="1159"/>
      <point x="444" y="1347"/>
      <point x="675" y="1347" type="curve" smooth="yes"/>
      <point x="906" y="1347"/>
      <point x="1094" y="1159"/>
      <point x="1094" y="928" type="curve" smooth="yes"/>
      <point x="1094" y="696"/>
      <point x="907" y="509"/>
    </contour>
  </outline>
</glyph>
<glyph name="macron" format="2">
  <advance height="2479" width="1315"/>
  <unicode hex="00AF"/>
  <anchor x="657" y="1303" name="_top"/>
  <outline>
    <contour>
      <point x="1021" y="1489" type="line"/>
      <point x="294" y="1489" type="line"/>
      <point x="294" y="1306" type="line"/>
      <point x="1021" y="1306" type="line"/>
    </contour>
  </outline>
</glyph>
<glyph name="plusminus" format="2">
  <advance height="2479" width="1420"/>
  <unicode hex="00B1"/>
  <outline>
    <contour>
      <point x="169" y="47" type="line"/>
      <point x="1251" y="47" type="line"/>
      <point x="1251" y="349" type="line"/>
      <point x="169" y="349" type="line"/>
    </contour>
    <contour>
      <point x="169" y="663" type="line"/>
      <point x="1251" y="663" type="line"/>
      <point x="1251" y="954" type="line"/>
      <point x="169" y="954" type="line"/>
    </contour>
    <contour>
      <point x="547" y="442" type="line"/>
      <point x="873" y="442" type="line"/>
      <point x="873" y="1175" type="line"/>
      <point x="547" y="1175" type="line"/>
    </contour>
  </outline>
</glyph>
<glyph name="threesuperior" format="2">
  <advance height="2479" width="922"/>
  <unicode hex="00B3"/>
  <outline>
    <contour>
      <point x="457" y="733" type="curve" smooth="yes"/>
      <point x="692" y="733"/>
      <point x="867" y="844"/>
      <point x="867" y="1007" type="curve" smooth="yes"/>
      <point x="867" y="1123"/>
      <point x="783" y="1193"/>
      <point x="643" y="1201" type="curve"/>
      <point x="643" y="1210" type="line"/>
      <point x="742" y="1222"/>
      <point x="826" y="1283"/>
      <point x="826" y="1388" type="curve" smooth="yes"/>
      <point x="826" y="1530"/>
      <point x="684" y="1649"/>
      <point x="463" y="1649" type="curve" smooth="yes"/>
      <point x="244" y="1649"/>
      <point x="76" y="1539"/>
      <point x="73" y="1379" type="curve"/>
      <point x="329" y="1379" type="line"/>
      <point x="332" y="1414"/>
      <point x="387" y="1440"/>
      <point x="460" y="1440" type="curve" smooth="yes"/>
      <point x="524" y="1440"/>
      <point x="567" y="1414"/>
      <point x="567" y="1370" type="curve" smooth="yes"/>
      <point x="567" y="1329"/>
      <point x="521" y="1297"/>
      <point x="442" y="1297" type="curve" smooth="yes"/>
      <point x="320" y="1297" type="line"/>
      <point x="320" y="1100" type="line"/>
      <point x="442" y="1100" type="line" smooth="yes"/>
      <point x="535" y="1100"/>
      <point x="588" y="1068"/>
      <point x="588" y="1024" type="curve" smooth="yes"/>
      <point x="588" y="975"/>
      <point x="527" y="954"/>
      <point x="457" y="954" type="curve" smooth="yes"/>
      <point x="387" y="954"/>
      <point x="332" y="972"/>
      <point x="326" y="1009" type="curve"/>
      <point x="52" y="1009" type="line"/>
      <point x="58" y="844"/>
      <point x="224" y="733"/>
    </contour>
  </outline>
</glyph>
<glyph name="acute" format="2">
  <advance height="2479" width="1018"/>
  <unicode hex="00B4"/>
  <anchor x="509" y="1303" name="_top"/>
  <anchor x="509" y="1676" name="top"/>
  <outline>
    <contour>
      <point x="375" y="1257" type="line"/>
      <point x="640" y="1257" type="line"/>
      <point x="858" y="1583" type="line"/>
      <point x="515" y="1583" type="line"/>
    </contour>
  </outline>
</glyph>
<glyph name="cedilla" format="2">
  <advance height="2479" width="913"/>
  <unicode hex="00B8"/>
  <anchor x="457" y="0" name="_cedilla"/>
  <outline>
    <contour>
      <point x="387" y="6" type="line"/>
      <point x="352" y="-145" type="line"/>
      <point x="446" y="-160"/>
      <point x="492" y="-196"/>
      <point x="489" y="-250" type="curve" smooth="yes"/>
      <point x="485" y="-309"/>
      <point x="408" y="-340"/>
      <point x="265" y="-340" type="curve"/>
      <point x="265" y="-495" type="line"/>
      <point x="537" y="-495"/>
      <point x="703" y="-399"/>
      <point x="701" y="-241" type="curve" smooth="yes"/>
      <point x="700" y="-147"/>
      <point x="633" y="-79"/>
      <point x="518" y="-61" type="curve"/>
      <point x="529" y="6" type="line"/>
    </contour>
  </outline>
</glyph>
<glyph name="ordmasculine" format="2">
  <advance height="2479" width="1041"/>
  <unicode hex="00BA"/>
  <outline>
    <contour>
      <point x="157" y="1044" type="line"/>
      <point x="157" y="838"/>
      <point x="297" y="689"/>
      <point x="524" y="689" type="curve" smooth="yes"/>
      <point x="748" y="689"/>
      <point x="884" y="838"/>
      <point x="884" y="1044" type="curve"/>
      <point x="884" y="1120" type="line"/>
      <point x="884" y="1329"/>
      <point x="745" y="1478"/>
      <point x="521" y="1478" type="curve" smooth="yes"/>
      <point x="300" y="1478"/>
      <point x="157" y="1329"/>
      <point x="157" y="1120" type="curve"/>
    </contour>
    <contour>
      <point x="340" y="1120" type="line"/>
      <point x="340" y="1236"/>
      <point x="401" y="1329"/>
      <point x="521" y="1329" type="curve" smooth="yes"/>
      <point x="643" y="1329"/>
      <point x="701" y="1236"/>
      <point x="701" y="1120" type="curve"/>
      <point x="701" y="1044" type="line"/>
      <point x="701" y="925"/>
      <point x="643" y="838"/>
      <point x="524" y="838" type="curve" smooth="yes"/>
      <point x="401" y="838"/>
      <point x="340" y="925"/>
      <point x="340" y="1044" type="curve"/>
    </contour>
  </outline>
</glyph>
<glyph name="AE" format="2">
  <advance height="2479" width="2165"/>
  <unicode hex="00C6"/>
  <anchor x="1353" y="1676" name="top"/>
  <outline>
    <contour>
      <point x="47" y="0" type="line"/>
      <point x="492" y="0" type="line"/>
      <point x="884" y="1079" type="line"/>
      <point x="986" y="1079" type="line"/>
      <point x="986" y="0" type="line"/>
      <point x="2057" y="0" type="line"/>
      <point x="2057" y="326" type="line"/>
      <point x="1391" y="326" type="line"/>
      <point x="1391" y="582" type="line"/>
      <point x="2004" y="582" type="line"/>
      <point x="2004" y="908" type="line"/>
      <point x="1391" y="908" type="line"/>
      <point x="1391" y="1164" type="line"/>
      <point x="2060" y="1164" type="line"/>
      <point x="2060" y="1489" type="line"/>
      <point x="628" y="1489" type="line"/>
    </contour>
    <contour>
      <point x="404" y="285" type="line"/>
      <point x="1225" y="285" type="line"/>
      <point x="1225" y="588" type="line"/>
      <point x="404" y="588" type="line"/>
    </contour>
  </outline>
</glyph>
<glyph name="germandbls" format="2">
  <advance height="2479" width="1416"/>
  <unicode hex="00DF"/>
  <outline>
    <contour>
      <point x="96" y="0" type="line"/>
      <point x="497" y="0" type="line"/>
      <point x="497" y="1012" type="line" smooth="yes"/>
      <point x="497" y="1119"/>
      <point x="566" y="1184"/>
      <point x="678" y="1184" type="curve" smooth="yes"/>
      <point x="785" y="1184"/>
      <point x="848" y="1124"/>
      <point x="847" y="1036" type="curve" smooth="yes"/>
      <point x="845" y="956"/>
      <point x="793" y="899"/>
      <point x="716" y="899" type="curve" smooth="yes"/>
      <point x="649" y="899" type="line"/>
      <point x="649" y="605" type="line"/>
      <point x="753" y="605" type="line" smooth="yes"/>
      <point x="882" y="605"/>
      <point x="961" y="552"/>
      <point x="963" y="460" type="curve" smooth="yes"/>
      <point x="964" y="369"/>
      <point x="890" y="314"/>
      <point x="777" y="314" type="curve" smooth="yes"/>
      <point x="643" y="314" type="line"/>
      <point x="643" y="0" type="line"/>
      <point x="861" y="0" type="line" smooth="yes"/>
      <point x="1158" y="0"/>
      <point x="1368" y="132"/>
      <point x="1370" y="410" type="curve" smooth="yes"/>
      <point x="1372" y="620"/>
      <point x="1255" y="779"/>
      <point x="1059" y="788" type="curve"/>
      <point x="1059" y="806" type="line"/>
      <point x="1188" y="836"/>
      <point x="1260" y="951"/>
      <point x="1260" y="1094" type="curve" smooth="yes"/>
      <point x="1260" y="1377"/>
      <point x="981" y="1510"/>
      <point x="663" y="1510" type="curve" smooth="yes"/>
      <point x="315" y="1510"/>
      <point x="96" y="1351"/>
      <point x="96" y="1088" type="curve" smooth="yes"/>
    </contour>
  </outline>
</glyph>
<glyph name="divide" format="2">
  <advance height="2479" width="1420"/>
  <unicode hex="00F7"/>
  <outline>
    <contour>
      <point x="1248" y="756" type="line"/>
      <point x="172" y="756" type="line"/>
      <point x="172" y="454" type="line"/>
      <point x="1248" y="454" type="line"/>
    </contour>
    <contour>
      <point x="710" y="-23" type="curve" smooth="yes"/>
      <point x="822" y="-23"/>
      <point x="913" y="68"/>
      <point x="913" y="183" type="curve" smooth="yes"/>
      <point x="913" y="295"/>
      <point x="822" y="387"/>
      <point x="710" y="387" type="curve" smooth="yes"/>
      <point x="595" y="387"/>
      <point x="503" y="295"/>
      <point x="503" y="183" type="curve" smooth="yes"/>
      <point x="503" y="68"/>
      <point x="595" y="-23"/>
    </contour>
    <contour>
      <point x="710" y="823" type="curve" smooth="yes"/>
      <point x="823" y="823"/>
      <point x="913" y="916"/>
      <point x="913" y="1030" type="curve" smooth="yes"/>
      <point x="913" y="1143"/>
      <point x="823" y="1233"/>
      <point x="710" y="1233" type="curve" smooth="yes"/>
      <point x="596" y="1233"/>
      <point x="503" y="1143"/>
      <point x="503" y="1030" type="curve" smooth="yes"/>
      <point x="503" y="916"/>
      <point x="596" y="823"/>
    </contour>
  </outline>
</glyph>
<glyph name="oslash" format="2">
  <advance height="2479" width="1280"/>
  <unicode hex="00F8"/>
  <anchor x="640" y="-3" name="bottom"/>
  <anchor x="806" y="-3" name="ogonek"/>
  <anchor x="640" y="1300" name="top"/>
  <outline>
    <contour>
      <point x="311" y="-79" type="line"/>
      <point x="1132" y="1076" type="line"/>
      <point x="966" y="1187" type="line"/>
      <point x="148" y="32" type="line"/>
    </contour>
    <component base="o" yOffset="-3"/>
  </outline>
</glyph>
<glyph name="Hbar" format="2">
  <advance height="2479" width="1704"/>
  <unicode hex="0126"/>
  <anchor x="852" y="0" name="bottom"/>
  <anchor x="372" y="0" name="cedilla"/>
  <anchor x="1716" y="163" name="cyrtic"/>
  <anchor x="1524" y="0" name="right"/>
  <anchor x="145" y="1489" name="tonos"/>
  <anchor x="852" y="1676" name="top"/>
  <outline>
    <contour>
      <point x="1649" y="1268" type="line"/>
      <point x="55" y="1268" type="line"/>
      <point x="55" y="1076" type="line"/>
      <point x="1649" y="1076" type="line"/>
    </contour>
    <component base="H" xOffset="84"/>
  </outline>
</glyph>
<glyph name="idotless" format="2">
  <advance height="2479" width="605"/>
  <unicode hex="0131"/>
  <anchor x="305" y="0" name="bottom"/>
  <anchor x="300" y="611" name="cross"/>
  <anchor x="503" y="0" name="ogonek"/>
  <anchor x="303" y="1303" name="top"/>
  <outline>
    <contour>
      <point x="102" y="0" type="line"/>
      <point x="503" y="0" type="line"/>
      <point x="503" y="1117" type="line"/>
      <point x="102" y="1117" type="line"/>
    </contour>
  </outline>
</glyph>
<glyph name="lslash" format="2">
  <advance height="2479" width="605"/>
  <unicode hex="0142"/>
  <anchor x="303" y="0" name="bottom"/>
  <anchor x="303" y="768" name="cross"/>
  <anchor x="620" y="1489" name="raccent"/>
  <anchor x="303" y="1676" name="top"/>
  <outline>
    <contour>
      <point x="628" y="995" type="line"/>
      <point x="-23" y="806" type="line"/>
      <point x="-23" y="605" type="line"/>
      <point x="628" y="794" type="line"/>
    </contour>
    <component base="l"/>
  </outline>
</glyph>
<glyph name="Eng" format="2">
  <advance height="2479" width="1481"/>
  <unicode hex="014A"/>
  <anchor x="742" y="0" name="bottom"/>
  <anchor x="1455" y="0" name="right"/>
  <anchor x="742" y="1676" name="top"/>
  <outline>
    <contour>
      <point x="1047" y="0" type="line" name="hr00"/>
      <point x="1047" y="-29" type="line" smooth="yes"/>
      <point x="1047" y="-111"/>
      <point x="981" y="-160"/>
      <point x="873" y="-160" type="curve" smooth="yes"/>
      <point x="823" y="-160"/>
      <point x="769" y="-154"/>
      <point x="730" y="-145" type="curve"/>
      <point x="730" y="-436" type="line"/>
      <point x="769" y="-449"/>
      <point x="816" y="-457"/>
      <point x="852" y="-457" type="curve" smooth="yes"/>
      <point x="1183" y="-457"/>
      <point x="1385" y="-364"/>
      <point x="1385" y="-20" type="curve" smooth="yes"/>
      <point x="1385" y="0" type="line"/>
    </contour>
    <component base="N"/>
  </outline>
</glyph>
<glyph name="Bhook" format="2">
  <advance height="2479" width="1862"/>
  <unicode hex="0181"/>
  <anchor x="1158" y="0" name="bottom"/>
  <anchor x="1161" y="1676" name="top"/>
  <outline>
    <contour>
      <point x="832" y="1167" type="line" name="hr00"/>
      <point x="832" y="1489" type="line"/>
      <point x="567" y="1489" type="line" smooth="yes"/>
      <point x="255" y="1489"/>
      <point x="54" y="1329"/>
      <point x="55" y="1047" type="curve" smooth="yes"/>
      <point x="55" y="870" type="line"/>
      <point x="410" y="870" type="line"/>
      <point x="410" y="977" type="line" smooth="yes"/>
      <point x="409" y="1065"/>
      <point x="444" y="1167"/>
      <point x="567" y="1167" type="curve" smooth="yes"/>
    </contour>
    <component base="B" xOffset="495"/>
  </outline>
</glyph>
<glyph name="Btopbar" format="2">
  <advance height="2479" width="1344"/>
  <unicode hex="0182"/>
  <outline>
    <contour>
      <point x="96" y="0" type="line"/>
      <point x="652" y="0" type="line" smooth="yes"/>
      <point x="1027" y="0"/>
      <point x="1277" y="204"/>
      <point x="1277" y="500" type="curve" smooth="yes"/>
      <point x="1277" y="797"/>
      <point x="1027" y="989"/>
      <point x="652" y="989" type="curve" smooth="yes"/>
      <point x="500" y="989" type="line"/>
      <point x="500" y="1164" type="line"/>
      <point x="1143" y="1164" type="line"/>
      <point x="1143" y="1489" type="line"/>
      <point x="96" y="1489" type="line"/>
    </contour>
    <contour>
      <point x="500" y="317" type="line"/>
      <point x="500" y="681" type="line"/>
      <point x="652" y="681" type="line" smooth="yes"/>
      <point x="797" y="681"/>
      <point x="876" y="605"/>
      <point x="876" y="503" type="curve" smooth="yes"/>
      <point x="876" y="396"/>
      <point x="797" y="317"/>
      <point x="652" y="317" type="curve" smooth="yes"/>
    </contour>
  </outline>
</glyph>
<glyph name="Tonesix" format="2">
  <advance height="2479" width="1702"/>
  <unicode hex="0184"/>
  <outline>
    <contour>
      <point x="713" y="1489" type="line"/>
      <point x="29" y="1489" type="line"/>
      <point x="29" y="1164" type="line"/>
      <point x="713" y="1164" type="line"/>
    </contour>
    <contour>
      <point x="643" y="989" type="line"/>
      <point x="643" y="681" type="line"/>
      <point x="951" y="681" type="line"/>
      <point x="1097" y="681"/>
      <point x="1175" y="605"/>
      <point x="1175" y="503" type="curve"/>
      <point x="1175" y="396"/>
      <point x="1097" y="317"/>
      <point x="951" y="317" type="curve"/>
      <point x="800" y="317" type="line"/>
      <point x="800" y="1489" type="line"/>
      <point x="396" y="1489" type="line"/>
      <point x="396" y="0" type="line"/>
      <point x="951" y="0" type="line"/>
      <point x="1327" y="0"/>
      <point x="1577" y="204"/>
      <point x="1577" y="500" type="curve"/>
      <point x="1577" y="797"/>
      <point x="1327" y="989"/>
      <point x="951" y="989" type="curve"/>
    </contour>
  </outline>
</glyph>
<glyph name="tonesix" format="2">
  <advance height="2479" width="1575"/>
  <unicode hex="0185"/>
  <outline>
    <contour>
      <point x="1091" y="-23" type="curve" smooth="yes"/>
      <point x="1358" y="-23"/>
      <point x="1509" y="137"/>
      <point x="1508" y="417" type="curve" smooth="yes"/>
      <point x="1508" y="695"/>
      <point x="1359" y="851"/>
      <point x="1117" y="851" type="curve" smooth="yes"/>
      <point x="998" y="851"/>
      <point x="894" y="812"/>
      <point x="831" y="745" type="curve"/>
      <point x="823" y="745" type="line"/>
      <point x="825" y="1117" type="line"/>
      <point x="423" y="1117" type="line"/>
      <point x="423" y="887" type="line"/>
      <point x="420" y="887" type="line"/>
      <point x="420" y="1" type="line"/>
      <point x="822" y="1" type="line"/>
      <point x="822" y="63" type="line"/>
      <point x="831" y="63" type="line"/>
      <point x="875" y="8"/>
      <point x="972" y="-23"/>
    </contour>
    <contour>
      <point x="966" y="271" type="curve" smooth="yes"/>
      <point x="876" y="271"/>
      <point x="825" y="324"/>
      <point x="825" y="415" type="curve" smooth="yes"/>
      <point x="825" y="503"/>
      <point x="876" y="553"/>
      <point x="966" y="553" type="curve" smooth="yes"/>
      <point x="1055" y="553"/>
      <point x="1106" y="503"/>
      <point x="1107" y="413" type="curve" smooth="yes"/>
      <point x="1108" y="324"/>
      <point x="1056" y="271"/>
    </contour>
    <contour>
      <point x="324" y="559" type="line"/>
      <point x="653" y="887" type="line"/>
      <point x="423" y="1117" type="line"/>
      <point x="93" y="788" type="line"/>
    </contour>
  </outline>
</glyph>
<glyph name="Schwa" format="2">
  <advance height="2479" width="1583"/>
  <unicode hex="018F"/>
  <outline>
    <contour>
      <point x="763" y="-20" type="curve" smooth="yes"/>
      <point x="1198" y="-20"/>
      <point x="1493" y="271"/>
      <point x="1493" y="742" type="curve" smooth="yes"/>
      <point x="1493" y="1233"/>
      <point x="1168" y="1510"/>
      <point x="766" y="1510" type="curve" smooth="yes"/>
      <point x="414" y="1510"/>
      <point x="143" y="1297"/>
      <point x="112" y="998" type="curve"/>
      <point x="520" y="998" type="line"/>
      <point x="545" y="1100"/>
      <point x="631" y="1158"/>
      <point x="757" y="1158" type="curve" smooth="yes"/>
      <point x="961" y="1158"/>
      <point x="1077" y="1006"/>
      <point x="1077" y="748" type="curve" smooth="yes"/>
      <point x="1077" y="486"/>
      <point x="970" y="332"/>
      <point x="760" y="332" type="curve" smooth="yes"/>
      <point x="576" y="332"/>
      <point x="484" y="417"/>
      <point x="484" y="551" type="curve"/>
      <point x="414" y="544" type="line"/>
      <point x="1278" y="544" type="line"/>
      <point x="1278" y="832" type="line"/>
      <point x="94" y="832" type="line"/>
      <point x="94" y="625" type="line" smooth="yes"/>
      <point x="94" y="218"/>
      <point x="373" y="-20"/>
    </contour>
  </outline>
</glyph>
<glyph name="hv" format="2">
  <advance height="2479" width="2062"/>
  <unicode hex="0195"/>
  <outline>
    <contour>
      <point x="102" y="0" type="line"/>
      <point x="503" y="0" type="line"/>
      <point x="503" y="628" type="line" smooth="yes"/>
      <point x="504" y="739"/>
      <point x="568" y="806"/>
      <point x="666" y="806" type="curve" smooth="yes"/>
      <point x="769" y="806"/>
      <point x="826" y="739"/>
      <point x="826" y="628" type="curve" smooth="yes"/>
      <point x="826" y="559" type="line"/>
      <point x="1228" y="559" type="line"/>
      <point x="1228" y="713" type="line" smooth="yes"/>
      <point x="1228" y="957"/>
      <point x="1074" y="1132"/>
      <point x="838" y="1132" type="curve" smooth="yes"/>
      <point x="673" y="1132"/>
      <point x="551" y="1047"/>
      <point x="500" y="905" type="curve"/>
      <point x="489" y="905" type="line"/>
      <point x="489" y="1489" type="line"/>
      <point x="102" y="1489" type="line"/>
    </contour>
    <contour>
      <point x="1329" y="-20" type="curve" smooth="yes"/>
      <point x="1801" y="-20"/>
      <point x="1961" y="339"/>
      <point x="1961" y="1012" type="curve"/>
      <point x="1961" y="1117" type="line"/>
      <point x="1559" y="1117" type="line"/>
      <point x="1559" y="1012" type="line" smooth="yes"/>
      <point x="1559" y="573"/>
      <point x="1508" y="305"/>
      <point x="1341" y="305" type="curve" smooth="yes"/>
      <point x="1271" y="305"/>
      <point x="1228" y="353"/>
      <point x="1228" y="431" type="curve"/>
      <point x="1228" y="559" type="line"/>
      <point x="826" y="559" type="line"/>
      <point x="826" y="431" type="line" smooth="yes"/>
      <point x="826" y="164"/>
      <point x="991" y="-20"/>
    </contour>
  </outline>
</glyph>
<glyph name="Khook" format="2">
  <advance height="2479" width="1571"/>
  <unicode hex="0198"/>
  <outline>
    <contour>
      <point x="96" y="0" type="line"/>
      <point x="500" y="0" type="line"/>
      <point x="500" y="317" type="line"/>
      <point x="681" y="503" type="line"/>
      <point x="1065" y="0" type="line"/>
      <point x="1548" y="0" type="line"/>
      <point x="940" y="791" type="line"/>
      <point x="1242" y="1097" type="line" smooth="yes"/>
      <point x="1305" y="1159"/>
      <point x="1347" y="1196"/>
      <point x="1440" y="1152" type="curve"/>
      <point x="1559" y="1434" type="line"/>
      <point x="1327" y="1562"/>
      <point x="1120" y="1521"/>
      <point x="943" y="1341" type="curve" smooth="yes"/>
      <point x="521" y="913" type="line"/>
      <point x="500" y="913" type="line"/>
      <point x="500" y="1489" type="line"/>
      <point x="96" y="1489" type="line"/>
    </contour>
  </outline>
</glyph>
<glyph name="khook" format="2">
  <advance height="2479" width="1242"/>
  <unicode hex="0199"/>
  <outline>
    <contour>
      <point x="823" y="0" type="line"/>
      <point x="1251" y="0" type="line"/>
      <point x="829" y="640" type="line"/>
      <point x="1239" y="1117" type="line"/>
      <point x="783" y="1117" type="line"/>
      <point x="518" y="800" type="line"/>
      <point x="503" y="800" type="line"/>
      <point x="503" y="1033" type="line"/>
      <point x="102" y="1033" type="line"/>
      <point x="102" y="0" type="line"/>
      <point x="503" y="0" type="line"/>
      <point x="503" y="256" type="line"/>
      <point x="593" y="355" type="line"/>
    </contour>
    <contour>
      <point x="503" y="913" type="line"/>
      <point x="503" y="1126" type="line" smooth="yes"/>
      <point x="504" y="1193"/>
      <point x="585" y="1207"/>
      <point x="655" y="1207" type="curve" smooth="yes"/>
      <point x="684" y="1207"/>
      <point x="713" y="1204"/>
      <point x="745" y="1201" type="curve"/>
      <point x="745" y="1498" type="line"/>
      <point x="699" y="1501"/>
      <point x="632" y="1510"/>
      <point x="547" y="1510" type="curve" smooth="yes"/>
      <point x="341" y="1510"/>
      <point x="103" y="1478"/>
      <point x="102" y="1126" type="curve" smooth="yes"/>
      <point x="102" y="913" type="line"/>
    </contour>
  </outline>
</glyph>
<glyph name="lambdastroke" format="2">
  <advance height="2479" width="1274"/>
  <unicode hex="019B"/>
  <outline>
    <contour>
      <point x="221" y="893" type="line"/>
      <point x="943" y="1111" type="line"/>
      <point x="943" y="1324" type="line"/>
      <point x="221" y="1111" type="line"/>
    </contour>
    <component base="lambda"/>
  </outline>
</glyph>
<glyph name="Mturned" format="2">
  <advance height="2479" width="1977"/>
  <unicode hex="019C"/>
  <outline>
    <contour>
      <point x="496" y="-22" type="curve" smooth="yes"/>
      <point x="807" y="-22"/>
      <point x="948" y="195"/>
      <point x="948" y="506" type="curve"/>
      <point x="844" y="503" type="line"/>
      <point x="844" y="372"/>
      <point x="788" y="278"/>
      <point x="650" y="278" type="curve" smooth="yes"/>
      <point x="544" y="278"/>
      <point x="500" y="335"/>
      <point x="500" y="413" type="curve" smooth="yes"/>
      <point x="500" y="1489" type="line"/>
      <point x="96" y="1489" type="line"/>
      <point x="96" y="413" type="line" smooth="yes"/>
      <point x="96" y="102"/>
      <point x="260" y="-22"/>
    </contour>
    <contour>
      <point x="1187" y="-22" type="curve" smooth="yes"/>
      <point x="1478" y="-22"/>
      <point x="1625" y="204"/>
      <point x="1625" y="506" type="curve"/>
      <point x="1526" y="503" type="line"/>
      <point x="1526" y="375"/>
      <point x="1471" y="278"/>
      <point x="1332" y="278" type="curve" smooth="yes"/>
      <point x="1226" y="278"/>
      <point x="1183" y="335"/>
      <point x="1183" y="413" type="curve"/>
      <point x="1183" y="1489" type="line"/>
      <point x="778" y="1489" type="line"/>
      <point x="778" y="413" type="line"/>
      <point x="778" y="99"/>
      <point x="975" y="-22"/>
    </contour>
    <contour>
      <point x="1476" y="0" type="line"/>
      <point x="1881" y="0" type="line"/>
      <point x="1881" y="1489" type="line"/>
      <point x="1476" y="1489" type="line"/>
    </contour>
  </outline>
</glyph>
<glyph name="oi" format="2">
  <advance height="2479" width="1655"/>
  <unicode hex="01A3"/>
  <outline>
    <contour>
      <point x="588" y="282" type="curve" smooth="yes"/>
      <point x="433" y="282"/>
      <point x="433" y="416"/>
      <point x="434" y="532" type="curve" smooth="yes"/>
      <point x="434" y="550" type="line" smooth="yes"/>
      <point x="434" y="710"/>
      <point x="444" y="832"/>
      <point x="582" y="832" type="curve"/>
      <point x="648" y="832"/>
      <point x="686" y="809"/>
      <point x="713" y="765" type="curve"/>
      <point x="713" y="637" type="line"/>
      <point x="1088" y="602" type="line"/>
      <point x="1088" y="823" type="line"/>
      <point x="1035" y="943"/>
      <point x="860" y="1132"/>
      <point x="596" y="1132" type="curve" smooth="yes"/>
      <point x="238" y="1132"/>
      <point x="61" y="899"/>
      <point x="61" y="550" type="curve" smooth="yes"/>
      <point x="61" y="532" type="line" smooth="yes"/>
      <point x="60" y="209"/>
      <point x="238" y="-20"/>
      <point x="596" y="-20" type="curve"/>
      <point x="890" y="-20"/>
      <point x="1015" y="105"/>
      <point x="1088" y="247" type="curve"/>
      <point x="1088" y="687" type="line"/>
      <point x="713" y="687" type="line"/>
      <point x="713" y="329" type="line"/>
      <point x="689" y="297"/>
      <point x="645" y="282"/>
    </contour>
    <contour>
      <point x="1559" y="1117" type="line"/>
      <point x="1315" y="1117" type="line"/>
      <point x="928" y="963" type="line"/>
      <point x="928" y="646" type="line"/>
      <point x="1181" y="719" type="line"/>
      <point x="1181" y="-419" type="line"/>
      <point x="1559" y="-419" type="line"/>
    </contour>
  </outline>
</glyph>
<glyph name="phook" format="2">
  <advance height="2479" width="1327"/>
  <unicode hex="01A5"/>
  <anchor x="305" y="-401" name="bottom"/>
  <anchor x="1388" y="-477" name="bottom0315"/>
  <anchor x="300" y="-163" name="cross"/>
  <anchor x="727" y="1303" name="top"/>
  <outline>
    <contour>
      <point x="500" y="1117" type="line"/>
      <point x="500" y="1164"/>
      <point x="525" y="1186"/>
      <point x="593" y="1184" type="curve" smooth="yes"/>
      <point x="649" y="1182"/>
      <point x="705" y="1169"/>
      <point x="721" y="1164" type="curve"/>
      <point x="721" y="1411" type="line"/>
      <point x="684" y="1420"/>
      <point x="615" y="1434"/>
      <point x="524" y="1434" type="curve" smooth="yes"/>
      <point x="223" y="1434"/>
      <point x="102" y="1353"/>
      <point x="102" y="1117" type="curve"/>
    </contour>
    <component base="p"/>
  </outline>
</glyph>
<glyph name="Yr" format="2">
  <advance height="2479" width="1594"/>
  <unicode hex="01A6"/>
  <outline>
    <contour>
      <point x="282" y="294" type="line"/>
      <point x="672" y="294" type="line" smooth="yes"/>
      <point x="1059" y="294"/>
      <point x="1271" y="486"/>
      <point x="1271" y="765" type="curve" smooth="yes"/>
      <point x="1271" y="1044"/>
      <point x="1059" y="1239"/>
      <point x="672" y="1239" type="curve" smooth="yes"/>
      <point x="282" y="1239" type="line"/>
      <point x="282" y="940" type="line"/>
      <point x="672" y="940" type="line" smooth="yes"/>
      <point x="832" y="940"/>
      <point x="884" y="844"/>
      <point x="884" y="762" type="curve" smooth="yes"/>
      <point x="884" y="684"/>
      <point x="832" y="591"/>
      <point x="672" y="591" type="curve" smooth="yes"/>
      <point x="282" y="591" type="line"/>
    </contour>
    <contour>
      <point x="1132" y="-419" type="line"/>
      <point x="1571" y="-419" type="line"/>
      <point x="1104" y="442" type="line"/>
      <point x="673" y="442" type="line"/>
    </contour>
    <contour>
      <point x="96" y="0" type="line"/>
      <point x="500" y="0" type="line"/>
      <point x="500" y="1489" type="line"/>
      <point x="96" y="1489" type="line"/>
    </contour>
  </outline>
</glyph>
<glyph name="tonetwo" format="2">
  <advance height="2479" width="1204"/>
  <unicode hex="01A8"/>
  <outline>
    <contour>
      <point x="591" y="-20" type="curve" smooth="yes"/>
      <point x="932" y="-20"/>
      <point x="1130" y="132"/>
      <point x="1152" y="361" type="curve"/>
      <point x="753" y="361" type="line"/>
      <point x="743" y="289"/>
      <point x="679" y="250"/>
      <point x="588" y="250" type="curve" smooth="yes"/>
      <point x="514" y="250"/>
      <point x="461" y="276"/>
      <point x="460" y="323" type="curve" smooth="yes"/>
      <point x="461" y="365"/>
      <point x="500" y="388"/>
      <point x="588" y="404" type="curve" smooth="yes"/>
      <point x="785" y="439" type="line" smooth="yes"/>
      <point x="1013" y="479"/>
      <point x="1127" y="592"/>
      <point x="1126" y="768" type="curve" smooth="yes"/>
      <point x="1127" y="1001"/>
      <point x="930" y="1132"/>
      <point x="611" y="1132" type="curve" smooth="yes"/>
      <point x="288" y="1132"/>
      <point x="92" y="990"/>
      <point x="81" y="753" type="curve"/>
      <point x="451" y="753" type="line"/>
      <point x="457" y="822"/>
      <point x="523" y="864"/>
      <point x="602" y="864" type="curve" smooth="yes"/>
      <point x="671" y="864"/>
      <point x="729" y="838"/>
      <point x="727" y="791" type="curve" smooth="yes"/>
      <point x="729" y="759"/>
      <point x="705" y="728"/>
      <point x="620" y="713" type="curve" smooth="yes"/>
      <point x="393" y="672" type="line" smooth="yes"/>
      <point x="164" y="631"/>
      <point x="54" y="535"/>
      <point x="52" y="369" type="curve" smooth="yes"/>
      <point x="54" y="130"/>
      <point x="281" y="-20"/>
    </contour>
  </outline>
</glyph>
<glyph name="eshreversedloop" format="2">
  <advance height="2479" width="1489"/>
  <unicode hex="01AA"/>
  <outline>
    <contour>
      <point x="713" y="896" type="line"/>
      <point x="713" y="9" type="line" smooth="yes"/>
      <point x="713" y="-282"/>
      <point x="889" y="-442"/>
      <point x="1167" y="-442" type="curve" smooth="yes"/>
      <point x="1232" y="-442"/>
      <point x="1284" y="-439"/>
      <point x="1341" y="-428" type="curve"/>
      <point x="1341" y="-134" type="line"/>
      <point x="1296" y="-140"/>
      <point x="1267" y="-143"/>
      <point x="1233" y="-143" type="curve" smooth="yes"/>
      <point x="1142" y="-143"/>
      <point x="1088" y="-87"/>
      <point x="1088" y="9" type="curve" smooth="yes"/>
      <point x="1088" y="1100" type="line"/>
    </contour>
    <contour>
      <point x="148" y="1100" type="curve" smooth="yes"/>
      <point x="150" y="847"/>
      <point x="359" y="643"/>
      <point x="617" y="643" type="curve" smooth="yes"/>
      <point x="874" y="643"/>
      <point x="1087" y="849"/>
      <point x="1088" y="1100" type="curve" smooth="yes"/>
      <point x="1089" y="1347"/>
      <point x="874" y="1556"/>
      <point x="617" y="1556" type="curve" smooth="yes"/>
      <point x="356" y="1556"/>
      <point x="147" y="1347"/>
    </contour>
    <contour>
      <point x="620" y="954" type="curve" smooth="yes"/>
      <point x="531" y="954"/>
      <point x="470" y="1004"/>
      <point x="471" y="1103" type="curve" smooth="yes"/>
      <point x="473" y="1196"/>
      <point x="531" y="1245"/>
      <point x="620" y="1245" type="curve" smooth="yes"/>
      <point x="694" y="1245"/>
      <point x="761" y="1199"/>
      <point x="762" y="1103" type="curve" smooth="yes"/>
      <point x="764" y="1004"/>
      <point x="697" y="954"/>
    </contour>
  </outline>
</glyph>
<glyph name="Tretroflexhook" format="2">
  <advance height="2479" width="1405"/>
  <unicode hex="01AE"/>
  <anchor x="701" y="0" name="bottom"/>
  <anchor x="695" y="0" name="cedilla"/>
  <anchor x="701" y="666" name="cross"/>
  <anchor x="1076" y="163" name="cyrtic"/>
  <anchor x="855" y="0" name="right"/>
  <anchor x="704" y="1676" name="top"/>
  <outline>
    <contour>
      <point x="902" y="0" type="line"/>
      <point x="503" y="0" type="line"/>
      <point x="503" y="-32" type="line" smooth="yes"/>
      <point x="503" y="-384"/>
      <point x="729" y="-419"/>
      <point x="943" y="-419" type="curve"/>
      <point x="1117" y="-419" type="line"/>
      <point x="1117" y="-119" type="line"/>
      <point x="1050" y="-119" type="line"/>
      <point x="979" y="-119"/>
      <point x="902" y="-102"/>
      <point x="902" y="-35" type="curve" smooth="yes"/>
    </contour>
    <component base="T"/>
  </outline>
</glyph>
<glyph name="uhorn" format="2">
  <advance height="2479" width="1571"/>
  <unicode hex="01B0"/>
  <anchor x="754" y="0" name="bottom"/>
  <anchor x="1240" y="0" name="ogonek"/>
  <anchor x="678" y="1303" name="top"/>
  <outline>
    <contour>
      <point x="1399" y="1187" type="line"/>
      <point x="1398" y="1012"/>
      <point x="1363" y="922"/>
      <point x="1146" y="922" type="curve"/>
      <point x="1146" y="771" type="line"/>
      <point x="1482" y="771"/>
      <point x="1596" y="913"/>
      <point x="1597" y="1187" type="curve"/>
    </contour>
    <component base="u" xOffset="12"/>
  </outline>
</glyph>
<glyph name="Vhook" format="2">
  <advance height="2479" width="1500"/>
  <unicode hex="01B2"/>
  <outline>
    <contour>
      <point x="703" y="-23" type="curve" smooth="yes"/>
      <point x="1153" y="-23"/>
      <point x="1404" y="341"/>
      <point x="1404" y="828" type="curve" smooth="yes"/>
      <point x="1404" y="1265"/>
      <point x="1201" y="1510"/>
      <point x="935" y="1510" type="curve" smooth="yes"/>
      <point x="862" y="1510"/>
      <point x="779" y="1491"/>
      <point x="685" y="1462" type="curve"/>
      <point x="714" y="1140" type="line"/>
      <point x="742" y="1151"/>
      <point x="773" y="1159"/>
      <point x="799" y="1159" type="curve" smooth="yes"/>
      <point x="910" y="1159"/>
      <point x="987" y="1027"/>
      <point x="988" y="783" type="curve" smooth="yes"/>
      <point x="987" y="527"/>
      <point x="903" y="329"/>
      <point x="727" y="329" type="curve" smooth="yes"/>
      <point x="600" y="329"/>
      <point x="500" y="431"/>
      <point x="500" y="570" type="curve" smooth="yes"/>
      <point x="500" y="1489" type="line"/>
      <point x="96" y="1489" type="line"/>
      <point x="96" y="535" type="line" smooth="yes"/>
      <point x="96" y="195"/>
      <point x="353" y="-23"/>
    </contour>
  </outline>
</glyph>
<glyph name="Yhook" format="2">
  <advance height="2479" width="1731"/>
  <unicode hex="01B3"/>
  <outline>
    <contour>
      <point x="841" y="849" type="line"/>
      <point x="876" y="849" type="line"/>
      <point x="876" y="884" type="line"/>
      <point x="841" y="884" type="line"/>
    </contour>
    <contour>
      <point x="52" y="1489" type="line"/>
      <point x="657" y="550" type="line"/>
      <point x="657" y="0" type="line"/>
      <point x="1059" y="0" type="line"/>
      <point x="1059" y="550" type="line"/>
      <point x="1405" y="1081" type="line" smooth="yes"/>
      <point x="1466" y="1174"/>
      <point x="1508" y="1204"/>
      <point x="1626" y="1172" type="curve"/>
      <point x="1708" y="1469" type="line"/>
      <point x="1497" y="1542"/>
      <point x="1252" y="1520"/>
      <point x="1107" y="1280" type="curve" smooth="yes"/>
      <point x="858" y="870" type="line"/>
      <point x="486" y="1489" type="line"/>
    </contour>
  </outline>
</glyph>
<glyph name="yhook" format="2">
  <advance height="2479" width="1313"/>
  <unicode hex="01B4"/>
  <outline>
    <contour>
      <point x="346" y="-419" type="curve" smooth="yes"/>
      <point x="627" y="-419"/>
      <point x="777" y="-279"/>
      <point x="835" y="-93" type="curve" smooth="yes"/>
      <point x="1171" y="991" type="line" smooth="yes"/>
      <point x="1181" y="1021"/>
      <point x="1196" y="1039"/>
      <point x="1216" y="1049" type="curve" smooth="yes"/>
      <point x="1231" y="1056"/>
      <point x="1254" y="1057"/>
      <point x="1287" y="1050" type="curve"/>
      <point x="1348" y="1366" type="line"/>
      <point x="1292" y="1380"/>
      <point x="1223" y="1388"/>
      <point x="1152" y="1388" type="curve" smooth="yes"/>
      <point x="969" y="1388"/>
      <point x="862" y="1273"/>
      <point x="809" y="1068" type="curve" smooth="yes"/>
      <point x="623" y="343" type="line"/>
      <point x="611" y="343" type="line"/>
      <point x="431" y="1117" type="line"/>
      <point x="12" y="1117" type="line"/>
      <point x="404" y="-49" type="line"/>
      <point x="396" y="-70" type="line" smooth="yes"/>
      <point x="369" y="-132"/>
      <point x="291" y="-129"/>
      <point x="192" y="-95" type="curve"/>
      <point x="105" y="-380" type="line"/>
      <point x="167" y="-404"/>
      <point x="254" y="-419"/>
    </contour>
  </outline>
</glyph>
<glyph name="Ezh" format="2">
  <advance height="2479" width="1410"/>
  <unicode hex="01B7"/>
  <anchor x="707" y="1676" name="top"/>
  <outline>
    <contour>
      <point x="55" y="137" type="line"/>
      <point x="61" y="-199"/>
      <point x="333" y="-442"/>
      <point x="704" y="-442" type="curve" smooth="yes"/>
      <point x="1087" y="-442"/>
      <point x="1364" y="-164"/>
      <point x="1364" y="221" type="curve" smooth="yes"/>
      <point x="1364" y="534"/>
      <point x="1170" y="759"/>
      <point x="870" y="791" type="curve"/>
      <point x="870" y="806" type="line"/>
      <point x="1327" y="1199" type="line"/>
      <point x="1327" y="1489" type="line"/>
      <point x="137" y="1489" type="line"/>
      <point x="137" y="1158" type="line"/>
      <point x="841" y="1158" type="line"/>
      <point x="841" y="1146" type="line"/>
      <point x="480" y="832" type="line"/>
      <point x="480" y="553" type="line"/>
      <point x="675" y="553" type="line" smooth="yes"/>
      <point x="828" y="553"/>
      <point x="940" y="425"/>
      <point x="940" y="214" type="curve" smooth="yes"/>
      <point x="940" y="26"/>
      <point x="853" y="-108"/>
      <point x="698" y="-108" type="curve" smooth="yes"/>
      <point x="566" y="-108"/>
      <point x="468" y="-9"/>
      <point x="463" y="137" type="curve"/>
    </contour>
  </outline>
</glyph>
<glyph name="Ezhreversed" format="2">
  <advance height="2479" width="1410"/>
  <unicode hex="01B8"/>
  <anchor x="703" y="1676" name="top"/>
  <outline>
    <contour>
      <point x="1355" y="137" type="curve"/>
      <point x="947" y="137" type="line"/>
      <point x="942" y="-9"/>
      <point x="844" y="-108"/>
      <point x="712" y="-108" type="curve" smooth="yes"/>
      <point x="557" y="-108"/>
      <point x="470" y="26"/>
      <point x="470" y="214" type="curve" smooth="yes"/>
      <point x="470" y="425"/>
      <point x="582" y="553"/>
      <point x="735" y="553" type="curve" smooth="yes"/>
      <point x="930" y="553" type="line"/>
      <point x="930" y="832" type="line"/>
      <point x="569" y="1146" type="line"/>
      <point x="569" y="1158" type="line"/>
      <point x="1273" y="1158" type="line"/>
      <point x="1273" y="1489" type="line"/>
      <point x="83" y="1489" type="line"/>
      <point x="83" y="1199" type="line"/>
      <point x="540" y="806" type="line"/>
      <point x="540" y="791" type="line"/>
      <point x="240" y="759"/>
      <point x="46" y="534"/>
      <point x="46" y="221" type="curve" smooth="yes"/>
      <point x="46" y="-164"/>
      <point x="323" y="-442"/>
      <point x="706" y="-442" type="curve" smooth="yes"/>
      <point x="1077" y="-442"/>
      <point x="1349" y="-199"/>
    </contour>
  </outline>
</glyph>
<glyph name="ezhreversed" format="2">
  <advance height="2479" width="1329"/>
  <unicode hex="01B9"/>
  <anchor x="699" y="1303" name="top"/>
  <outline>
    <contour>
      <point x="686" y="-442" type="curve" smooth="yes"/>
      <point x="1005" y="-441"/>
      <point x="1251" y="-271"/>
      <point x="1253" y="-47" type="curve"/>
      <point x="866" y="-47" type="line"/>
      <point x="866" y="-99"/>
      <point x="787" y="-139"/>
      <point x="695" y="-140" type="curve" smooth="yes"/>
      <point x="565" y="-139"/>
      <point x="474" y="-61"/>
      <point x="474" y="55" type="curve" smooth="yes"/>
      <point x="474" y="172"/>
      <point x="565" y="244"/>
      <point x="750" y="244" type="curve" smooth="yes"/>
      <point x="939" y="244" type="line"/>
      <point x="939" y="512" type="line"/>
      <point x="637" y="783" type="line"/>
      <point x="637" y="791" type="line"/>
      <point x="1192" y="791" type="line"/>
      <point x="1192" y="1117" type="line"/>
      <point x="157" y="1117" type="line"/>
      <point x="157" y="823" type="line"/>
      <point x="558" y="474" type="line"/>
      <point x="558" y="463" type="line"/>
      <point x="240" y="422"/>
      <point x="82" y="266"/>
      <point x="82" y="45" type="curve" smooth="yes"/>
      <point x="82" y="-239"/>
      <point x="339" y="-441"/>
    </contour>
  </outline>
</glyph>
<glyph name="ezhtail" format="2">
  <advance height="2479" width="1228"/>
  <unicode hex="01BA"/>
  <outline>
    <contour>
      <point x="172" y="1117" type="line" name="hr00"/>
      <point x="172" y="817" type="line"/>
      <point x="524" y="817" type="line"/>
      <point x="335" y="663" type="line"/>
      <point x="335" y="454" type="line"/>
      <point x="556" y="454" type="line"/>
      <point x="1097" y="906" type="line"/>
      <point x="1097" y="1117" type="line"/>
    </contour>
    <contour>
      <point x="477" y="-116" type="curve" smooth="yes"/>
      <point x="476" y="-73"/>
      <point x="526" y="-42"/>
      <point x="663" y="-10" type="curve" smooth="yes"/>
      <point x="887" y="42"/>
      <point x="1092" y="140"/>
      <point x="1094" y="349" type="curve" smooth="yes"/>
      <point x="1092" y="535"/>
      <point x="924" y="698"/>
      <point x="623" y="698" type="curve" smooth="yes"/>
      <point x="445" y="698" type="line"/>
      <point x="445" y="454" type="line"/>
      <point x="623" y="454" type="line" smooth="yes"/>
      <point x="689" y="454"/>
      <point x="739" y="423"/>
      <point x="739" y="368" type="curve" smooth="yes"/>
      <point x="739" y="297"/>
      <point x="657" y="272"/>
      <point x="540" y="252" type="curve" smooth="yes"/>
      <point x="241" y="199"/>
      <point x="115" y="93"/>
      <point x="115" y="-93" type="curve" smooth="yes"/>
      <point x="115" y="-300"/>
      <point x="313" y="-442"/>
      <point x="623" y="-442" type="curve" smooth="yes"/>
      <point x="950" y="-442"/>
      <point x="1127" y="-244"/>
      <point x="1129" y="-73" type="curve"/>
      <point x="780" y="-73" type="line"/>
      <point x="775" y="-166"/>
      <point x="694" y="-192"/>
      <point x="611" y="-192" type="curve" smooth="yes"/>
      <point x="540" y="-192"/>
      <point x="478" y="-172"/>
    </contour>
  </outline>
</glyph>
<glyph name="wynn" format="2">
  <advance height="2479" width="1274"/>
  <unicode hex="01BF"/>
  <outline>
    <contour>
      <point x="375" y="-256" type="line"/>
      <point x="880" y="-99"/>
      <point x="1213" y="252"/>
      <point x="1213" y="670" type="curve" smooth="yes"/>
      <point x="1213" y="948"/>
      <point x="1065" y="1132"/>
      <point x="818" y="1132" type="curve" smooth="yes"/>
      <point x="567" y="1132"/>
      <point x="447" y="941"/>
      <point x="444" y="557" type="curve"/>
      <point x="503" y="559" type="line"/>
      <point x="503" y="735"/>
      <point x="551" y="823"/>
      <point x="647" y="823" type="curve" smooth="yes"/>
      <point x="745" y="823"/>
      <point x="800" y="729"/>
      <point x="800" y="577" type="curve" smooth="yes"/>
      <point x="800" y="299"/>
      <point x="614" y="89"/>
      <point x="332" y="38" type="curve"/>
    </contour>
    <contour>
      <point x="102" y="-419" type="line"/>
      <point x="503" y="-419" type="line"/>
      <point x="503" y="881" type="line"/>
      <point x="509" y="922" type="line"/>
      <point x="500" y="922" type="line"/>
      <point x="500" y="1117" type="line"/>
      <point x="102" y="1117" type="line"/>
    </contour>
  </outline>
</glyph>
<glyph name="clickdental" format="2">
  <advance height="2479" width="660"/>
  <unicode hex="01C0"/>
  <outline>
    <contour>
      <point x="428" y="1446" type="line"/>
      <point x="233" y="1446" type="line"/>
      <point x="233" y="0" type="line"/>
      <point x="428" y="0" type="line"/>
    </contour>
  </outline>
</glyph>
<glyph name="Gstroke" format="2">
  <advance height="2479" width="1583"/>
  <unicode hex="01E4"/>
  <anchor x="803" y="6" name="bottom"/>
  <anchor x="806" y="1676" name="top"/>
  <outline>
    <contour>
      <point x="1536" y="500" type="line"/>
      <point x="829" y="500" type="line"/>
      <point x="829" y="410" type="line"/>
      <point x="1536" y="410" type="line"/>
    </contour>
    <component base="G"/>
  </outline>
</glyph>
<glyph name="Wynn" format="2">
  <advance height="2479" width="1383"/>
  <unicode hex="01F7"/>
  <outline>
    <contour>
      <point x="320" y="-209" type="line"/>
      <point x="937" y="-17"/>
      <point x="1292" y="387"/>
      <point x="1293" y="909" type="curve" smooth="yes"/>
      <point x="1293" y="1288"/>
      <point x="1107" y="1510"/>
      <point x="791" y="1510" type="curve" smooth="yes"/>
      <point x="613" y="1510"/>
      <point x="464" y="1440"/>
      <point x="372" y="1318" type="curve"/>
      <point x="372" y="905" type="line"/>
      <point x="439" y="1082"/>
      <point x="550" y="1184"/>
      <point x="673" y="1184" type="curve" smooth="yes"/>
      <point x="804" y="1184"/>
      <point x="877" y="1070"/>
      <point x="877" y="864" type="curve" smooth="yes"/>
      <point x="876" y="520"/>
      <point x="673" y="246"/>
      <point x="320" y="116" type="curve"/>
    </contour>
    <contour>
      <point x="96" y="-419" type="line"/>
      <point x="500" y="-419" type="line"/>
      <point x="500" y="1489" type="line"/>
      <point x="96" y="1489" type="line"/>
    </contour>
  </outline>
</glyph>
<glyph name="dcurl" format="2">
  <advance height="2479" width="1469"/>
  <unicode hex="0221"/>
  <anchor x="666" y="0" name="bottom"/>
  <anchor x="1030" y="1280" name="cross"/>
  <anchor x="1347" y="1489" name="raccent"/>
  <anchor x="553" y="1489" name="top"/>
  <outline>
    <contour>
      <point x="820" y="253" type="line"/>
      <point x="820" y="-12" type="line"/>
      <point x="821" y="-256"/>
      <point x="937" y="-419"/>
      <point x="1297" y="-419" type="curve" smooth="yes"/>
      <point x="1580" y="-419"/>
      <point x="1714" y="-323"/>
      <point x="1713" y="-163" type="curve" smooth="yes"/>
      <point x="1714" y="9"/>
      <point x="1563" y="131"/>
      <point x="1271" y="131" type="curve" smooth="yes"/>
      <point x="1106" y="131"/>
      <point x="987" y="93"/>
      <point x="861" y="29" type="curve"/>
      <point x="541" y="-198" type="line"/>
      <point x="692" y="-431" type="line"/>
      <point x="1009" y="-212" type="line" smooth="yes"/>
      <point x="1129" y="-130"/>
      <point x="1220" y="-81"/>
      <point x="1274" y="-79" type="curve" smooth="yes"/>
      <point x="1356" y="-74"/>
      <point x="1388" y="-111"/>
      <point x="1388" y="-151" type="curve" smooth="yes"/>
      <point x="1388" y="-186"/>
      <point x="1353" y="-209"/>
      <point x="1309" y="-209" type="curve" smooth="yes"/>
      <point x="1263" y="-209"/>
      <point x="1225" y="-186"/>
      <point x="1225" y="-122" type="curve"/>
      <point x="1225" y="253" type="line"/>
    </contour>
    <component base="d" xOffset="6"/>
  </outline>
</glyph>
<glyph name="OU" format="2">
  <advance height="2479" width="1428"/>
  <unicode hex="0222"/>
  <outline>
    <contour>
      <point x="707" y="954" type="line"/>
      <point x="335" y="954"/>
      <point x="121" y="782"/>
      <point x="122" y="483" type="curve" smooth="yes"/>
      <point x="121" y="178"/>
      <point x="352" y="-20"/>
      <point x="707" y="-20" type="curve" smooth="yes"/>
      <point x="727" y="-20" type="line" smooth="yes"/>
      <point x="1079" y="-20"/>
      <point x="1305" y="178"/>
      <point x="1306" y="486" type="curve" smooth="yes"/>
      <point x="1305" y="783"/>
      <point x="1093" y="954"/>
      <point x="727" y="954" type="curve" smooth="yes"/>
    </contour>
    <contour>
      <point x="727" y="684" type="line"/>
      <point x="838" y="684"/>
      <point x="907" y="608"/>
      <point x="908" y="486" type="curve" smooth="yes"/>
      <point x="907" y="361"/>
      <point x="839" y="285"/>
      <point x="727" y="285" type="curve" smooth="yes"/>
      <point x="707" y="285" type="line" smooth="yes"/>
      <point x="594" y="285"/>
      <point x="520" y="364"/>
      <point x="521" y="483" type="curve" smooth="yes"/>
      <point x="520" y="605"/>
      <point x="593" y="684"/>
      <point x="707" y="684" type="curve" smooth="yes"/>
    </contour>
    <contour>
      <point x="704" y="998" type="line"/>
      <point x="572" y="998"/>
      <point x="521" y="1018"/>
      <point x="521" y="1114" type="curve" smooth="yes"/>
      <point x="520" y="1170"/>
      <point x="538" y="1198"/>
      <point x="593" y="1207" type="curve"/>
      <point x="593" y="1510" type="line"/>
      <point x="290" y="1516"/>
      <point x="121" y="1365"/>
      <point x="122" y="1114" type="curve" smooth="yes"/>
      <point x="123" y="859"/>
      <point x="330" y="730"/>
      <point x="704" y="730" type="curve" smooth="yes"/>
      <point x="724" y="730" type="line" smooth="yes"/>
      <point x="1097" y="730"/>
      <point x="1313" y="861"/>
      <point x="1312" y="1114" type="curve" smooth="yes"/>
      <point x="1311" y="1363"/>
      <point x="1139" y="1516"/>
      <point x="838" y="1510" type="curve"/>
      <point x="838" y="1207" type="line"/>
      <point x="892" y="1197"/>
      <point x="913" y="1169"/>
      <point x="913" y="1114" type="curve" smooth="yes"/>
      <point x="914" y="1021"/>
      <point x="857" y="998"/>
      <point x="724" y="998" type="curve" smooth="yes"/>
    </contour>
  </outline>
</glyph>
<glyph name="Zhook" format="2">
  <advance height="2479" width="1423"/>
  <unicode hex="0224"/>
  <outline>
    <contour>
      <point x="105" y="1164" type="line"/>
      <point x="817" y="1164" type="line"/>
      <point x="102" y="224" type="line"/>
      <point x="102" y="0" type="line"/>
      <point x="864" y="0" type="line" smooth="yes"/>
      <point x="1002" y="0"/>
      <point x="1025" y="-87"/>
      <point x="1024" y="-189" type="curve" smooth="yes"/>
      <point x="1024" y="-279" type="line"/>
      <point x="1347" y="-279" type="line"/>
      <point x="1347" y="-116" type="line" smooth="yes"/>
      <point x="1348" y="163"/>
      <point x="1180" y="326"/>
      <point x="864" y="326" type="curve" smooth="yes"/>
      <point x="605" y="326" type="line"/>
      <point x="1321" y="1265" type="line"/>
      <point x="1321" y="1489" type="line"/>
      <point x="105" y="1489" type="line"/>
    </contour>
  </outline>
</glyph>
<glyph name="tcurl" format="2">
  <advance height="2479" width="1146"/>
  <unicode hex="0236"/>
  <outline>
    <contour>
      <point x="279" y="1385" type="line"/>
      <point x="279" y="384" type="line" smooth="yes"/>
      <point x="279" y="35"/>
      <point x="539" y="-23"/>
      <point x="719" y="-23" type="curve" smooth="yes"/>
      <point x="1029" y="-23"/>
      <point x="1105" y="172"/>
      <point x="1105" y="303" type="curve" smooth="yes"/>
      <point x="1105" y="471"/>
      <point x="975" y="596"/>
      <point x="785" y="596" type="curve" smooth="yes"/>
      <point x="598" y="596"/>
      <point x="285" y="474"/>
      <point x="32" y="212" type="curve"/>
      <point x="186" y="3" type="line"/>
      <point x="404" y="236"/>
      <point x="644" y="343"/>
      <point x="751" y="343" type="curve" smooth="yes"/>
      <point x="785" y="343"/>
      <point x="809" y="321"/>
      <point x="809" y="291" type="curve" smooth="yes"/>
      <point x="809" y="255"/>
      <point x="786" y="230"/>
      <point x="753" y="230" type="curve" smooth="yes"/>
      <point x="711" y="230"/>
      <point x="681" y="261"/>
      <point x="681" y="305" type="curve" smooth="yes"/>
      <point x="681" y="1385" type="line"/>
    </contour>
    <contour>
      <point x="873" y="1117" type="line"/>
      <point x="137" y="1117" type="line"/>
      <point x="137" y="826" type="line"/>
      <point x="873" y="826" type="line"/>
    </contour>
  </outline>
</glyph>
<glyph name="jdotless" format="2">
  <advance height="2479" width="605"/>
  <unicode hex="0237"/>
  <anchor x="448" y="0" name="_right"/>
  <anchor x="244" y="-399" name="bottom"/>
  <anchor x="303" y="687" name="cross"/>
  <anchor x="303" y="1303" name="top"/>
  <outline>
    <contour>
      <point x="102" y="1117" type="line"/>
      <point x="102" y="-29" type="line" smooth="yes"/>
      <point x="102" y="-94"/>
      <point x="73" y="-122"/>
      <point x="-23" y="-122" type="curve" smooth="yes"/>
      <point x="-38" y="-122"/>
      <point x="-51" y="-121"/>
      <point x="-70" y="-119" type="curve"/>
      <point x="-70" y="-416" type="line"/>
      <point x="-40" y="-418"/>
      <point x="-17" y="-419"/>
      <point x="12" y="-419" type="curve" smooth="yes"/>
      <point x="306" y="-419"/>
      <point x="503" y="-332"/>
      <point x="503" y="-38" type="curve" smooth="yes"/>
      <point x="503" y="1117" type="line"/>
    </contour>
  </outline>
</glyph>
<glyph name="qpdigraph" format="2">
  <advance height="2479" width="2039"/>
  <unicode hex="0239"/>
  <outline>
    <contour>
      <point x="819" y="-419" type="line"/>
      <point x="1220" y="-419" type="line"/>
      <point x="1220" y="183" type="line"/>
      <point x="1228" y="183" type="line"/>
      <point x="1274" y="70"/>
      <point x="1382" y="-15"/>
      <point x="1539" y="-15" type="curve" smooth="yes"/>
      <point x="1777" y="-15"/>
      <point x="1978" y="172"/>
      <point x="1978" y="559" type="curve" smooth="yes"/>
      <point x="1978" y="963"/>
      <point x="1763" y="1132"/>
      <point x="1542" y="1132" type="curve" smooth="yes"/>
      <point x="1376" y="1132"/>
      <point x="1271" y="1036"/>
      <point x="1228" y="922" type="curve"/>
      <point x="1219" y="922" type="line"/>
      <point x="1219" y="1117" type="line"/>
      <point x="820" y="1117" type="line"/>
      <point x="820" y="922" type="line"/>
      <point x="812" y="922" type="line"/>
      <point x="768" y="1036"/>
      <point x="663" y="1132"/>
      <point x="497" y="1132" type="curve" smooth="yes"/>
      <point x="276" y="1132"/>
      <point x="61" y="963"/>
      <point x="61" y="559" type="curve" smooth="yes"/>
      <point x="61" y="172"/>
      <point x="262" y="-15"/>
      <point x="500" y="-15" type="curve" smooth="yes"/>
      <point x="657" y="-15"/>
      <point x="765" y="70"/>
      <point x="812" y="183" type="curve"/>
      <point x="819" y="183" type="line"/>
    </contour>
    <contour>
      <point x="649" y="294" type="curve" smooth="yes"/>
      <point x="538" y="294"/>
      <point x="474" y="393"/>
      <point x="474" y="559" type="curve" smooth="yes"/>
      <point x="474" y="724"/>
      <point x="538" y="823"/>
      <point x="649" y="823" type="curve" smooth="yes"/>
      <point x="759" y="823"/>
      <point x="826" y="724"/>
      <point x="826" y="559" type="curve" smooth="yes"/>
      <point x="826" y="396"/>
      <point x="759" y="294"/>
    </contour>
    <contour>
      <point x="1391" y="294" type="curve" smooth="yes"/>
      <point x="1280" y="294"/>
      <point x="1213" y="396"/>
      <point x="1213" y="559" type="curve" smooth="yes"/>
      <point x="1213" y="724"/>
      <point x="1280" y="823"/>
      <point x="1391" y="823" type="curve" smooth="yes"/>
      <point x="1501" y="823"/>
      <point x="1565" y="724"/>
      <point x="1565" y="559" type="curve" smooth="yes"/>
      <point x="1565" y="393"/>
      <point x="1501" y="294"/>
    </contour>
  </outline>
</glyph>
<glyph name="Astroke" format="2">
  <advance height="2479" width="1629"/>
  <unicode hex="023A"/>
  <unicode hex="2C65"/>
  <anchor x="815" y="0" name="bottom"/>
  <anchor x="1583" y="0" name="ogonek"/>
  <anchor x="460" y="1489" name="tonos"/>
  <anchor x="815" y="1676" name="top"/>
  <outline>
    <contour>
      <point x="1321" y="1679" type="line"/>
      <point x="1114" y="1679" type="line"/>
      <point x="550" y="-189" type="line"/>
      <point x="756" y="-189" type="line"/>
    </contour>
    <component base="A"/>
  </outline>
</glyph>
<glyph name="cstroke" format="2">
  <advance height="2479" width="1242"/>
  <unicode hex="023C"/>
  <anchor x="643" y="0" name="cedilla"/>
  <anchor x="643" y="1303" name="top"/>
  <outline>
    <contour>
      <point x="1024" y="1489" type="line"/>
      <point x="817" y="1489" type="line"/>
      <point x="236" y="-419" type="line"/>
      <point x="439" y="-419" type="line"/>
    </contour>
    <component base="c"/>
  </outline>
</glyph>
<glyph name="glottalstopsmall" format="2">
  <advance height="2479" width="1164"/>
  <unicode hex="0242"/>
  <outline>
    <contour>
      <point x="439" y="241" type="line"/>
      <point x="666" y="241" type="line" smooth="yes"/>
      <point x="943" y="241"/>
      <point x="1102" y="409"/>
      <point x="1103" y="679" type="curve" smooth="yes"/>
      <point x="1102" y="975"/>
      <point x="911" y="1132"/>
      <point x="589" y="1132" type="curve" smooth="yes"/>
      <point x="251" y="1132"/>
      <point x="63" y="957"/>
      <point x="64" y="653" type="curve" name="hr00"/>
      <point x="468" y="653" type="line"/>
      <point x="468" y="770"/>
      <point x="510" y="838"/>
      <point x="588" y="838" type="curve" smooth="yes"/>
      <point x="656" y="838"/>
      <point x="697" y="786"/>
      <point x="698" y="695" type="curve" smooth="yes"/>
      <point x="697" y="583"/>
      <point x="633" y="518"/>
      <point x="521" y="518" type="curve" smooth="yes"/>
      <point x="439" y="518" type="line"/>
    </contour>
    <contour>
      <point x="380" y="0" type="line"/>
      <point x="784" y="0" type="line"/>
      <point x="784" y="518" type="line"/>
      <point x="380" y="518" type="line"/>
    </contour>
  </outline>
</glyph>
<glyph name="Ubar" format="2">
  <advance height="2479" width="1583"/>
  <unicode hex="0244"/>
  <anchor x="800" y="9" name="bottom"/>
  <anchor x="1021" y="10" name="ogonek"/>
  <anchor x="928" y="0" name="right"/>
  <anchor x="800" y="1676" name="top"/>
  <outline>
    <contour>
      <point x="1594" y="835" type="line"/>
      <point x="-12" y="835" type="line"/>
      <point x="-12" y="614" type="line"/>
      <point x="1594" y="614" type="line"/>
    </contour>
    <component base="U" xOffset="61"/>
  </outline>
</glyph>
<glyph name="Qhooktail" format="2">
  <advance height="2479" width="1766"/>
  <unicode hex="024A"/>
  <outline>
    <contour>
      <point x="1524" y="1489" type="line"/>
      <point x="1123" y="1489" type="line"/>
      <point x="1123" y="1280" type="line"/>
      <point x="1111" y="1280" type="line"/>
      <point x="1039" y="1401"/>
      <point x="911" y="1510"/>
      <point x="710" y="1510" type="curve" smooth="yes"/>
      <point x="362" y="1510"/>
      <point x="90" y="1169"/>
      <point x="90" y="745" type="curve" smooth="yes"/>
      <point x="90" y="323"/>
      <point x="353" y="-20"/>
      <point x="710" y="-20" type="curve" smooth="yes"/>
      <point x="910" y="-20"/>
      <point x="1040" y="87"/>
      <point x="1111" y="209" type="curve"/>
      <point x="1123" y="209" type="line"/>
      <point x="1123" y="-35" type="line" smooth="yes"/>
      <point x="1123" y="-364"/>
      <point x="1321" y="-419"/>
      <point x="1565" y="-419" type="curve" smooth="yes"/>
      <point x="1658" y="-419"/>
      <point x="1722" y="-410"/>
      <point x="1766" y="-407" type="curve"/>
      <point x="1766" y="-111" type="line"/>
      <point x="1734" y="-113"/>
      <point x="1705" y="-116"/>
      <point x="1676" y="-116" type="curve" smooth="yes"/>
      <point x="1603" y="-116"/>
      <point x="1524" y="-102"/>
      <point x="1524" y="-35" type="curve" smooth="yes"/>
    </contour>
    <contour>
      <point x="815" y="332" type="curve" smooth="yes"/>
      <point x="614" y="332"/>
      <point x="506" y="477"/>
      <point x="506" y="745" type="curve" smooth="yes"/>
      <point x="506" y="1012"/>
      <point x="614" y="1158"/>
      <point x="815" y="1158" type="curve" smooth="yes"/>
      <point x="1015" y="1158"/>
      <point x="1123" y="1012"/>
      <point x="1123" y="745" type="curve" smooth="yes"/>
      <point x="1123" y="477"/>
      <point x="1015" y="332"/>
    </contour>
  </outline>
</glyph>
<glyph name="ystroke" format="2">
  <advance height="2479" width="1259"/>
  <unicode hex="024F"/>
  <anchor x="1028" y="0" name="bottom"/>
  <anchor x="827" y="-419" name="ogonek"/>
  <anchor x="634" y="1303" name="top"/>
  <outline>
    <contour>
      <point x="1248" y="724" type="line" name="hr00"/>
      <point x="12" y="724" type="line"/>
      <point x="12" y="553" type="line"/>
      <point x="1248" y="553" type="line"/>
    </contour>
    <component base="y" xOffset="17"/>
  </outline>
</glyph>
<glyph name="alphaturned-latin" format="2">
  <advance height="2479" width="1321"/>
  <unicode hex="0252"/>
  <anchor x="660" y="0" name="bottom"/>
  <anchor x="96" y="0" name="ogonek"/>
  <anchor x="637" y="1303" name="rhalfring"/>
  <anchor x="646" y="1303" name="top"/>
  <outline>
    <contour>
      <point x="815" y="-15" type="curve" smooth="yes"/>
      <point x="1053" y="-15"/>
      <point x="1254" y="172"/>
      <point x="1254" y="559" type="curve"/>
      <point x="1254" y="963"/>
      <point x="1039" y="1132"/>
      <point x="817" y="1132" type="curve" smooth="yes"/>
      <point x="652" y="1132"/>
      <point x="547" y="1036"/>
      <point x="503" y="922" type="curve"/>
      <point x="497" y="922" type="line"/>
      <point x="497" y="1117" type="line"/>
      <point x="96" y="1117" type="line"/>
      <point x="96" y="0" type="line"/>
      <point x="495" y="0" type="line"/>
      <point x="495" y="183" type="line"/>
      <point x="503" y="183" type="line"/>
      <point x="550" y="70"/>
      <point x="657" y="-15"/>
    </contour>
    <contour>
      <point x="666" y="294" type="curve" smooth="yes"/>
      <point x="556" y="294"/>
      <point x="489" y="396"/>
      <point x="489" y="559" type="curve"/>
      <point x="489" y="724"/>
      <point x="556" y="823"/>
      <point x="666" y="823" type="curve" smooth="yes"/>
      <point x="777" y="823"/>
      <point x="841" y="724"/>
      <point x="841" y="559" type="curve" smooth="yes"/>
      <point x="841" y="393"/>
      <point x="777" y="294"/>
    </contour>
  </outline>
</glyph>
<glyph name="oopen" format="2">
  <advance height="2479" width="1242"/>
  <unicode hex="0254"/>
  <outline>
    <contour>
      <point x="602" y="-20" type="curve" smooth="yes"/>
      <point x="966" y="-20"/>
      <point x="1181" y="212"/>
      <point x="1181" y="556" type="curve" smooth="yes"/>
      <point x="1181" y="899"/>
      <point x="966" y="1132"/>
      <point x="602" y="1132" type="curve" smooth="yes"/>
      <point x="273" y="1132"/>
      <point x="66" y="943"/>
      <point x="64" y="652" type="curve"/>
      <point x="436" y="652" type="line"/>
      <point x="447" y="769"/>
      <point x="508" y="832"/>
      <point x="596" y="832" type="curve" smooth="yes"/>
      <point x="702" y="832"/>
      <point x="771" y="742"/>
      <point x="771" y="559" type="curve" smooth="yes"/>
      <point x="771" y="375"/>
      <point x="702" y="285"/>
      <point x="596" y="285" type="curve" smooth="yes"/>
      <point x="508" y="285"/>
      <point x="445" y="348"/>
      <point x="436" y="465" type="curve"/>
      <point x="64" y="465" type="line"/>
      <point x="68" y="169"/>
      <point x="271" y="-20"/>
    </contour>
  </outline>
</glyph>
<glyph name="dhook" format="2">
  <advance height="2479" width="1399"/>
  <unicode hex="0257"/>
  <outline>
    <contour>
      <point x="506" y="-15" type="curve" smooth="yes"/>
      <point x="666" y="-15"/>
      <point x="771" y="70"/>
      <point x="817" y="183" type="curve"/>
      <point x="983" y="183" type="line"/>
      <point x="983" y="922" type="line"/>
      <point x="817" y="922" type="line"/>
      <point x="774" y="1036"/>
      <point x="669" y="1132"/>
      <point x="503" y="1132" type="curve" smooth="yes"/>
      <point x="282" y="1132"/>
      <point x="67" y="963"/>
      <point x="67" y="559" type="curve" smooth="yes"/>
      <point x="67" y="172"/>
      <point x="268" y="-15"/>
    </contour>
    <contour>
      <point x="823" y="1111" type="curve"/>
      <point x="823" y="867" type="line"/>
      <point x="972" y="529" type="line"/>
      <point x="826" y="285" type="line"/>
      <point x="826" y="0" type="line"/>
      <point x="1225" y="0" type="line"/>
      <point x="1225" y="1111" type="line" smooth="yes"/>
      <point x="1225" y="1222"/>
      <point x="1356" y="1207"/>
      <point x="1408" y="1207" type="curve" smooth="yes"/>
      <point x="1434" y="1207"/>
      <point x="1457" y="1204"/>
      <point x="1495" y="1199" type="curve"/>
      <point x="1495" y="1492" type="line"/>
      <point x="1457" y="1498"/>
      <point x="1379" y="1510"/>
      <point x="1297" y="1510" type="curve" smooth="yes"/>
      <point x="1111" y="1510"/>
      <point x="823" y="1478"/>
    </contour>
    <contour>
      <point x="655" y="294" type="curve" smooth="yes"/>
      <point x="544" y="294"/>
      <point x="480" y="393"/>
      <point x="480" y="559" type="curve" smooth="yes"/>
      <point x="480" y="724"/>
      <point x="544" y="823"/>
      <point x="655" y="823" type="curve" smooth="yes"/>
      <point x="765" y="823"/>
      <point x="832" y="724"/>
      <point x="832" y="559" type="curve" smooth="yes"/>
      <point x="832" y="396"/>
      <point x="765" y="294"/>
    </contour>
  </outline>
</glyph>
<glyph name="ereversed" format="2">
  <advance height="2479" width="1245"/>
  <unicode hex="0258"/>
  <anchor x="623" y="0" name="bottom"/>
  <anchor x="617" y="0" name="cedilla"/>
  <anchor x="288" y="49" name="ogonek"/>
  <anchor x="623" y="1303" name="top"/>
  <outline>
    <contour>
      <point x="608" y="-20" type="curve"/>
      <point x="966" y="-20"/>
      <point x="1184" y="194"/>
      <point x="1184" y="556" type="curve"/>
      <point x="1184" y="902"/>
      <point x="963" y="1132"/>
      <point x="617" y="1132" type="curve" smooth="yes"/>
      <point x="279" y="1132"/>
      <point x="61" y="914"/>
      <point x="61" y="559" type="curve" smooth="yes"/>
      <point x="61" y="465" type="line"/>
      <point x="1059" y="465" type="line"/>
      <point x="1059" y="687" type="line"/>
      <point x="431" y="687" type="line"/>
      <point x="433" y="783"/>
      <point x="508" y="849"/>
      <point x="608" y="849" type="curve" smooth="yes"/>
      <point x="706" y="849"/>
      <point x="786" y="783"/>
      <point x="788" y="687" type="curve"/>
      <point x="788" y="448" type="line"/>
      <point x="788" y="340"/>
      <point x="719" y="262"/>
      <point x="599" y="262" type="curve" smooth="yes"/>
      <point x="517" y="262"/>
      <point x="451" y="297"/>
      <point x="428" y="361" type="curve"/>
      <point x="61" y="361" type="line"/>
      <point x="99" y="128"/>
      <point x="298" y="-20"/>
    </contour>
  </outline>
</glyph>
<glyph name="eopenreversedhook" format="2">
  <advance height="2479" width="1789"/>
  <unicode hex="025D"/>
  <anchor x="594" y="1303" name="top"/>
  <outline>
    <contour>
      <point x="989" y="646" type="line"/>
      <point x="1149" y="689" type="line"/>
      <point x="1195" y="497"/>
      <point x="1236" y="349"/>
      <point x="1452" y="349" type="curve" smooth="yes"/>
      <point x="1512" y="349"/>
      <point x="1582" y="364"/>
      <point x="1635" y="393" type="curve"/>
      <point x="1585" y="628" type="line"/>
      <point x="1564" y="625"/>
      <point x="1547" y="628"/>
      <point x="1527" y="628" type="curve" smooth="yes"/>
      <point x="1407" y="628"/>
      <point x="1413" y="751"/>
      <point x="1379" y="972" type="curve"/>
      <point x="989" y="887" type="line"/>
    </contour>
    <component base="eopenreversed" xOffset="6"/>
  </outline>
</glyph>
<glyph name="Gsmall" format="2">
  <advance height="2479" width="1178"/>
  <unicode hex="0262"/>
  <outline>
    <contour>
      <point x="703" y="746" type="curve"/>
      <point x="1105" y="746" type="line"/>
      <point x="1080" y="979"/>
      <point x="883" y="1132"/>
      <point x="611" y="1132" type="curve" smooth="yes"/>
      <point x="279" y="1132"/>
      <point x="61" y="902"/>
      <point x="61" y="554" type="curve" smooth="yes"/>
      <point x="61" y="206"/>
      <point x="279" y="-23"/>
      <point x="612" y="-23" type="curve" smooth="yes"/>
      <point x="917" y="-23"/>
      <point x="1117" y="169"/>
      <point x="1116" y="432" type="curve" smooth="yes"/>
      <point x="1117" y="609" type="line"/>
      <point x="618" y="608" type="line"/>
      <point x="618" y="362" type="line"/>
      <point x="788" y="362" type="line"/>
      <point x="716" y="368" type="line"/>
      <point x="716" y="309"/>
      <point x="678" y="271"/>
      <point x="621" y="272" type="curve" smooth="yes"/>
      <point x="522" y="271"/>
      <point x="462" y="385"/>
      <point x="463" y="554" type="curve" smooth="yes"/>
      <point x="462" y="725"/>
      <point x="523" y="837"/>
      <point x="607" y="838" type="curve" smooth="yes"/>
      <point x="655" y="837"/>
      <point x="689" y="801"/>
    </contour>
  </outline>
</glyph>
<glyph name="gamma-latin" format="2">
  <advance height="2479" width="1446"/>
  <unicode hex="0263"/>
  <outline>
    <contour>
      <point x="727" y="-442" type="curve" smooth="yes"/>
      <point x="989" y="-442"/>
      <point x="1151" y="-348"/>
      <point x="1149" y="-150" type="curve" smooth="yes"/>
      <point x="1148" y="-62"/>
      <point x="1119" y="47"/>
      <point x="1050" y="169" type="curve" smooth="yes"/>
      <point x="515" y="1117" type="line"/>
      <point x="113" y="1117" type="line"/>
      <point x="669" y="172" type="line" smooth="yes"/>
      <point x="723" y="80"/>
      <point x="765" y="-41"/>
      <point x="765" y="-137" type="curve" smooth="yes"/>
      <point x="765" y="-183"/>
      <point x="753" y="-195"/>
      <point x="727" y="-195" type="curve" smooth="yes"/>
      <point x="691" y="-195"/>
      <point x="685" y="-175"/>
      <point x="685" y="-137" type="curve" smooth="yes"/>
      <point x="685" y="-55"/>
      <point x="726" y="52"/>
      <point x="797" y="175" type="curve" smooth="yes"/>
      <point x="1341" y="1117" type="line"/>
      <point x="943" y="1117" type="line"/>
      <point x="381" y="154" type="line" smooth="yes"/>
      <point x="318" y="46"/>
      <point x="292" y="-60"/>
      <point x="294" y="-147" type="curve" smooth="yes"/>
      <point x="296" y="-348"/>
      <point x="463" y="-442"/>
    </contour>
  </outline>
</glyph>
<glyph name="mlonglegturned" format="2">
  <advance height="2479" width="1926"/>
  <unicode hex="0270"/>
  <anchor x="966" y="0" name="bottom"/>
  <anchor x="966" y="1303" name="top"/>
  <outline>
    <contour>
      <point x="1443" y="-419" type="line"/>
      <point x="1824" y="-419" type="line"/>
      <point x="1824" y="0" type="line"/>
      <point x="1443" y="0" type="line"/>
    </contour>
    <component base="mturned"/>
  </outline>
</glyph>
<glyph name="nhookleft" format="2">
  <advance height="2479" width="1417"/>
  <unicode hex="0272"/>
  <anchor x="756" y="0" name="bottom"/>
  <anchor x="756" y="1303" name="top"/>
  <outline>
    <contour>
      <point x="195" y="0" type="line"/>
      <point x="195" y="-23" type="line" smooth="yes"/>
      <point x="195" y="-86"/>
      <point x="158" y="-119"/>
      <point x="81" y="-119" type="curve" smooth="yes"/>
      <point x="36" y="-119"/>
      <point x="1" y="-113"/>
      <point x="-35" y="-105" type="curve"/>
      <point x="-70" y="-428" type="line"/>
      <point x="-2" y="-439"/>
      <point x="59" y="-442"/>
      <point x="125" y="-442" type="curve" smooth="yes"/>
      <point x="414" y="-442"/>
      <point x="596" y="-306"/>
      <point x="596" y="-23" type="curve" smooth="yes"/>
      <point x="596" y="0" type="line"/>
    </contour>
    <component base="n" xOffset="93"/>
  </outline>
</glyph>
<glyph name="Nsmall" format="2">
  <advance height="2479" width="1326"/>
  <unicode hex="0274"/>
  <outline>
    <contour>
      <point x="1225" y="1117" type="line"/>
      <point x="829" y="1117" type="line"/>
      <point x="829" y="605" type="line"/>
      <point x="817" y="605" type="line"/>
      <point x="417" y="1117" type="line"/>
      <point x="102" y="1117" type="line"/>
      <point x="102" y="0" type="line"/>
      <point x="489" y="0" type="line"/>
      <point x="489" y="461" type="line"/>
      <point x="497" y="461" type="line"/>
      <point x="855" y="0" type="line"/>
      <point x="1225" y="0" type="line"/>
    </contour>
  </outline>
</glyph>
<glyph name="OEsmall" format="2">
  <advance height="2479" width="1760"/>
  <unicode hex="0276"/>
  <outline>
    <contour>
      <point x="793" y="0" type="line"/>
      <point x="1695" y="0" type="line"/>
      <point x="1695" y="294" type="line"/>
      <point x="1194" y="294" type="line"/>
      <point x="1194" y="412" type="line"/>
      <point x="1655" y="412" type="line"/>
      <point x="1655" y="705" type="line"/>
      <point x="1194" y="705" type="line"/>
      <point x="1194" y="823" type="line"/>
      <point x="1696" y="823" type="line"/>
      <point x="1696" y="1117" type="line"/>
      <point x="793" y="1117" type="line"/>
    </contour>
    <contour>
      <point x="630" y="0" type="curve"/>
      <point x="905" y="0" type="line"/>
      <point x="905" y="294" type="line"/>
      <point x="630" y="294" type="line"/>
      <point x="503" y="294"/>
      <point x="420" y="399"/>
      <point x="420" y="557" type="curve"/>
      <point x="420" y="718"/>
      <point x="503" y="823"/>
      <point x="630" y="823" type="curve"/>
      <point x="905" y="823" type="line"/>
      <point x="905" y="1117" type="line"/>
      <point x="630" y="1117" type="line"/>
      <point x="285" y="1117"/>
      <point x="59" y="895"/>
      <point x="61" y="557" type="curve"/>
      <point x="59" y="221"/>
      <point x="285" y="0"/>
    </contour>
  </outline>
</glyph>
<glyph name="omegaclosed-latin" format="2">
  <advance height="2479" width="2086"/>
  <unicode hex="0277"/>
  <outline>
    <contour>
      <point x="1044" y="1132" type="line"/>
      <point x="570" y="1132"/>
      <point x="218" y="913"/>
      <point x="218" y="474" type="curve" smooth="yes"/>
      <point x="220" y="209"/>
      <point x="348" y="-20"/>
      <point x="676" y="-20" type="curve" smooth="yes"/>
      <point x="967" y="-20"/>
      <point x="1126" y="186"/>
      <point x="1126" y="561" type="curve" smooth="yes"/>
      <point x="1126" y="704" type="line"/>
      <point x="841" y="704" type="line"/>
      <point x="841" y="512" type="line" smooth="yes"/>
      <point x="841" y="343"/>
      <point x="788" y="282"/>
      <point x="708" y="282" type="curve" smooth="yes"/>
      <point x="634" y="282"/>
      <point x="592" y="337"/>
      <point x="591" y="471" type="curve" smooth="yes"/>
      <point x="591" y="655"/>
      <point x="719" y="832"/>
      <point x="1044" y="832" type="curve"/>
    </contour>
    <contour>
      <point x="1044" y="832" type="line"/>
      <point x="1371" y="832"/>
      <point x="1499" y="655"/>
      <point x="1498" y="471" type="curve" smooth="yes"/>
      <point x="1497" y="337"/>
      <point x="1455" y="282"/>
      <point x="1380" y="282" type="curve" smooth="yes"/>
      <point x="1301" y="282"/>
      <point x="1248" y="343"/>
      <point x="1248" y="512" type="curve" smooth="yes"/>
      <point x="1248" y="704" type="line"/>
      <point x="963" y="704" type="line"/>
      <point x="963" y="561" type="line" smooth="yes"/>
      <point x="963" y="186"/>
      <point x="1122" y="-20"/>
      <point x="1412" y="-20" type="curve" smooth="yes"/>
      <point x="1742" y="-20"/>
      <point x="1870" y="209"/>
      <point x="1871" y="474" type="curve" smooth="yes"/>
      <point x="1872" y="913"/>
      <point x="1519" y="1132"/>
      <point x="1044" y="1132" type="curve"/>
    </contour>
  </outline>
</glyph>
<glyph name="rhookturned" format="2">
  <advance height="2479" width="1033"/>
  <unicode hex="027B"/>
  <anchor x="451" y="0" name="bottom"/>
  <anchor x="584.0" y="582.0" name="cross"/>
  <anchor x="586" y="1303" name="top"/>
  <outline>
    <contour>
      <point x="855" y="-436" type="curve" smooth="yes"/>
      <point x="937" y="-436"/>
      <point x="995" y="-431"/>
      <point x="1056" y="-422" type="curve"/>
      <point x="1056" y="-172" type="line"/>
      <point x="1021" y="-175"/>
      <point x="1001" y="-177"/>
      <point x="963" y="-177" type="curve" smooth="yes"/>
      <point x="840" y="-177"/>
      <point x="785" y="-133"/>
      <point x="785" y="-32" type="curve" smooth="yes"/>
      <point x="785" y="0" type="line"/>
      <point x="396" y="0" type="line"/>
      <point x="396" y="-55" type="line" smooth="yes"/>
      <point x="396" y="-387"/>
      <point x="608" y="-436"/>
    </contour>
    <component base="rturned"/>
  </outline>
</glyph>
<glyph name="rtail" format="2">
  <advance height="2479" width="887"/>
  <unicode hex="027D"/>
  <anchor x="305" y="0" name="bottom"/>
  <anchor x="303" y="535" name="cross"/>
  <anchor x="483" y="1303" name="top"/>
  <outline>
    <contour>
      <point x="547" y="-419" type="curve" smooth="yes"/>
      <point x="643" y="-419"/>
      <point x="698" y="-410"/>
      <point x="745" y="-407" type="curve"/>
      <point x="745" y="-111" type="line"/>
      <point x="713" y="-113"/>
      <point x="684" y="-116"/>
      <point x="655" y="-116" type="curve" smooth="yes"/>
      <point x="585" y="-116"/>
      <point x="503" y="-102"/>
      <point x="503" y="-35" type="curve" smooth="yes"/>
      <point x="503" y="0" type="line"/>
      <point x="102" y="0" type="line"/>
      <point x="102" y="-35" type="line" smooth="yes"/>
      <point x="102" y="-364"/>
      <point x="300" y="-419"/>
    </contour>
    <component base="r"/>
  </outline>
</glyph>
<glyph name="rfishhook" format="2">
  <advance height="2479" width="870"/>
  <unicode hex="027E"/>
  <outline>
    <contour>
      <point x="477" y="0" type="line" name="hr00"/>
      <point x="477" y="753" type="line" smooth="yes"/>
      <point x="477" y="858"/>
      <point x="578" y="881"/>
      <point x="657" y="881" type="curve" smooth="yes"/>
      <point x="692" y="881"/>
      <point x="718" y="879"/>
      <point x="748" y="876" type="curve"/>
      <point x="748" y="1117" type="line"/>
      <point x="692" y="1126"/>
      <point x="633" y="1132"/>
      <point x="544" y="1132" type="curve" smooth="yes"/>
      <point x="334" y="1132"/>
      <point x="90" y="1105"/>
      <point x="90" y="751" type="curve" smooth="yes"/>
      <point x="90" y="0" type="line"/>
    </contour>
  </outline>
</glyph>
<glyph name="rfishhookreversed" format="2">
  <advance height="2479" width="876"/>
  <unicode hex="027F"/>
  <outline>
    <contour>
      <point x="785" y="-416" type="line" name="hr00"/>
      <point x="785" y="751" type="line" smooth="yes"/>
      <point x="785" y="1105"/>
      <point x="541" y="1132"/>
      <point x="329" y="1132" type="curve" smooth="yes"/>
      <point x="241" y="1132"/>
      <point x="186" y="1126"/>
      <point x="131" y="1117" type="curve"/>
      <point x="131" y="876" type="line"/>
      <point x="154" y="879"/>
      <point x="192" y="881"/>
      <point x="221" y="881" type="curve" smooth="yes"/>
      <point x="297" y="881"/>
      <point x="399" y="858"/>
      <point x="399" y="753" type="curve" smooth="yes"/>
      <point x="399" y="-416" type="line"/>
    </contour>
  </outline>
</glyph>
<glyph name="shook" format="2">
  <advance height="2479" width="1204"/>
  <unicode hex="0282"/>
  <anchor x="605" y="0" name="bottom"/>
  <anchor x="614" y="0" name="cedilla"/>
  <anchor x="605" y="1303" name="top"/>
  <outline>
    <contour>
      <point x="52" y="361" type="line"/>
      <point x="52" y="-79" type="line" smooth="yes"/>
      <point x="52" y="-312"/>
      <point x="196" y="-454"/>
      <point x="433" y="-454" type="curve" smooth="yes"/>
      <point x="492" y="-454"/>
      <point x="529" y="-451"/>
      <point x="585" y="-439" type="curve"/>
      <point x="585" y="-198" type="line"/>
      <point x="550" y="-202"/>
      <point x="524" y="-204"/>
      <point x="489" y="-204" type="curve" smooth="yes"/>
      <point x="393" y="-204"/>
      <point x="343" y="-152"/>
      <point x="343" y="-52" type="curve" smooth="yes"/>
      <point x="343" y="361" type="line"/>
    </contour>
    <component base="s"/>
  </outline>
</glyph>
<glyph name="esh" format="2">
  <advance height="2479" width="843"/>
  <unicode hex="0283"/>
  <outline>
    <contour>
      <point x="186" y="-442" type="curve" smooth="yes"/>
      <point x="431" y="-442"/>
      <point x="588" y="-308"/>
      <point x="588" y="-32" type="curve" smooth="yes"/>
      <point x="588" y="1167" type="line" smooth="yes"/>
      <point x="588" y="1219"/>
      <point x="608" y="1254"/>
      <point x="684" y="1254" type="curve" smooth="yes"/>
      <point x="713" y="1254"/>
      <point x="756" y="1248"/>
      <point x="785" y="1239" type="curve"/>
      <point x="844" y="1527" type="line"/>
      <point x="797" y="1539"/>
      <point x="689" y="1559"/>
      <point x="588" y="1559" type="curve" smooth="yes"/>
      <point x="343" y="1559"/>
      <point x="186" y="1425"/>
      <point x="186" y="1149" type="curve" smooth="yes"/>
      <point x="186" y="-49" type="line" smooth="yes"/>
      <point x="186" y="-102"/>
      <point x="166" y="-137"/>
      <point x="90" y="-137" type="curve" smooth="yes"/>
      <point x="61" y="-137"/>
      <point x="17" y="-131"/>
      <point x="-12" y="-122" type="curve"/>
      <point x="-70" y="-410" type="line"/>
      <point x="-23" y="-422"/>
      <point x="84" y="-442"/>
    </contour>
  </outline>
</glyph>
<glyph name="eshsquatreversed" format="2">
  <advance height="2479" width="1033"/>
  <unicode hex="0285"/>
  <outline>
    <contour>
      <point x="707" y="0" type="line" name="hr00"/>
      <point x="707" y="736" type="line" smooth="yes"/>
      <point x="707" y="989"/>
      <point x="535" y="1132"/>
      <point x="262" y="1132" type="curve" smooth="yes"/>
      <point x="203" y="1132"/>
      <point x="145" y="1123"/>
      <point x="90" y="1111" type="curve"/>
      <point x="87" y="823" type="line"/>
      <point x="110" y="832"/>
      <point x="130" y="835"/>
      <point x="172" y="835" type="curve" smooth="yes"/>
      <point x="270" y="835"/>
      <point x="329" y="800"/>
      <point x="329" y="736" type="curve" smooth="yes"/>
      <point x="329" y="0" type="line"/>
    </contour>
    <contour>
      <point x="329" y="695" type="line"/>
      <point x="329" y="-47" type="line" smooth="yes"/>
      <point x="329" y="-305"/>
      <point x="500" y="-442"/>
      <point x="768" y="-442" type="curve" smooth="yes"/>
      <point x="840" y="-442"/>
      <point x="895" y="-431"/>
      <point x="943" y="-419" type="curve"/>
      <point x="948" y="-137" type="line"/>
      <point x="921" y="-143"/>
      <point x="901" y="-145"/>
      <point x="858" y="-145" type="curve" smooth="yes"/>
      <point x="761" y="-145"/>
      <point x="707" y="-113"/>
      <point x="707" y="-47" type="curve" smooth="yes"/>
      <point x="707" y="695" type="line"/>
    </contour>
  </outline>
</glyph>
<glyph name="eshcurl" format="2">
  <advance height="2479" width="1210"/>
  <unicode hex="0286"/>
  <outline>
    <contour>
      <point x="905" y="259" type="line"/>
      <point x="518" y="259" type="line"/>
      <point x="518" y="259"/>
      <point x="518" y="-93"/>
      <point x="518" y="-111" type="curve" smooth="yes"/>
      <point x="518" y="-180"/>
      <point x="506" y="-224"/>
      <point x="439" y="-224" type="curve" smooth="yes"/>
      <point x="396" y="-224"/>
      <point x="349" y="-212"/>
      <point x="349" y="-160" type="curve" smooth="yes"/>
      <point x="349" y="-119"/>
      <point x="393" y="-108"/>
      <point x="454" y="-108" type="curve" smooth="yes"/>
      <point x="567" y="-108"/>
      <point x="663" y="-154"/>
      <point x="806" y="-250" type="curve"/>
      <point x="1047" y="-431" type="line"/>
      <point x="1201" y="-201" type="line"/>
      <point x="873" y="35" type="line"/>
      <point x="742" y="108"/>
      <point x="608" y="131"/>
      <point x="413" y="131" type="curve" smooth="yes"/>
      <point x="157" y="131"/>
      <point x="35" y="17"/>
      <point x="35" y="-148" type="curve" smooth="yes"/>
      <point x="35" y="-323"/>
      <point x="160" y="-442"/>
      <point x="448" y="-442" type="curve" smooth="yes"/>
      <point x="803" y="-442"/>
      <point x="905" y="-247"/>
      <point x="905" y="-9" type="curve"/>
    </contour>
    <contour>
      <point x="905" y="-6" type="line"/>
      <point x="905" y="1161" type="line" smooth="yes"/>
      <point x="905" y="1228"/>
      <point x="960" y="1260"/>
      <point x="1056" y="1260" type="curve" smooth="yes"/>
      <point x="1094" y="1260"/>
      <point x="1120" y="1257"/>
      <point x="1140" y="1251" type="curve"/>
      <point x="1137" y="1533" type="line"/>
      <point x="1082" y="1548"/>
      <point x="1027" y="1556"/>
      <point x="969" y="1556" type="curve" smooth="yes"/>
      <point x="698" y="1556"/>
      <point x="518" y="1420"/>
      <point x="518" y="1161" type="curve" smooth="yes"/>
      <point x="518" y="-6" type="line"/>
    </contour>
  </outline>
</glyph>
<glyph name="tretroflexhook" format="2">
  <advance height="2479" width="829"/>
  <unicode hex="0288"/>
  <outline>
    <contour>
      <point x="768" y="1117" type="line"/>
      <point x="32" y="1117" type="line"/>
      <point x="32" y="826" type="line"/>
      <point x="768" y="826" type="line"/>
    </contour>
    <contour>
      <point x="175" y="1385" type="line"/>
      <point x="175" y="-79" type="line"/>
      <point x="172" y="-314"/>
      <point x="317" y="-431"/>
      <point x="593" y="-416" type="curve" smooth="yes"/>
      <point x="684" y="-410"/>
      <point x="753" y="-393"/>
      <point x="788" y="-381" type="curve"/>
      <point x="730" y="-99" type="line"/>
      <point x="716" y="-102"/>
      <point x="675" y="-111"/>
      <point x="652" y="-111" type="curve" smooth="yes"/>
      <point x="599" y="-111"/>
      <point x="576" y="-87"/>
      <point x="576" y="-41" type="curve" smooth="yes"/>
      <point x="576" y="1385" type="line"/>
    </contour>
  </outline>
</glyph>
<glyph name="ubar" format="2">
  <advance height="2479" width="1452"/>
  <unicode hex="0289"/>
  <anchor x="803" y="0" name="bottom"/>
  <anchor x="1289" y="0" name="ogonek"/>
  <anchor x="727" y="1303" name="top"/>
  <outline>
    <contour>
      <point x="1452" y="745" type="line"/>
      <point x="0" y="745" type="line"/>
      <point x="0" y="535" type="line"/>
      <point x="1452" y="535" type="line"/>
    </contour>
    <component base="u" xOffset="61"/>
  </outline>
</glyph>
<glyph name="vhook" format="2">
  <advance height="2479" width="1253"/>
  <unicode hex="028B"/>
  <outline>
    <contour>
      <point x="596" y="-20" type="curve" smooth="yes"/>
      <point x="980" y="-20"/>
      <point x="1152" y="221"/>
      <point x="1152" y="669" type="curve" smooth="yes"/>
      <point x="1152" y="839"/>
      <point x="1127" y="1132"/>
      <point x="733" y="1132" type="curve" smooth="yes"/>
      <point x="695" y="1132"/>
      <point x="686" y="1129"/>
      <point x="577" y="1095" type="curve"/>
      <point x="599" y="854" type="line"/>
      <point x="632" y="867"/>
      <point x="642" y="870"/>
      <point x="659" y="870" type="curve" smooth="yes"/>
      <point x="745" y="870"/>
      <point x="771" y="789"/>
      <point x="771" y="618" type="curve" smooth="yes"/>
      <point x="771" y="384"/>
      <point x="721" y="279"/>
      <point x="605" y="279" type="curve" smooth="yes"/>
      <point x="546" y="279"/>
      <point x="489" y="305"/>
      <point x="489" y="401" type="curve" smooth="yes"/>
      <point x="489" y="1117" type="line"/>
      <point x="102" y="1117" type="line"/>
      <point x="102" y="404" type="line" smooth="yes"/>
      <point x="102" y="111"/>
      <point x="313" y="-20"/>
    </contour>
  </outline>
</glyph>
<glyph name="zcurl" format="2">
  <advance height="2479" width="1585"/>
  <unicode hex="0291"/>
  <outline>
    <contour>
      <point x="564" y="0" type="line"/>
      <point x="1149" y="0" type="line" smooth="yes"/>
      <point x="1412" y="0"/>
      <point x="1546" y="180"/>
      <point x="1548" y="358" type="curve" smooth="yes"/>
      <point x="1546" y="538"/>
      <point x="1407" y="655"/>
      <point x="1248" y="655" type="curve" smooth="yes"/>
      <point x="1040" y="655"/>
      <point x="874" y="463"/>
      <point x="564" y="12" type="curve" smooth="yes"/>
      <point x="445" y="-160" type="line"/>
      <point x="678" y="-297" type="line"/>
      <point x="911" y="17" type="line" smooth="yes"/>
      <point x="1121" y="303"/>
      <point x="1156" y="367"/>
      <point x="1207" y="367" type="curve" smooth="yes"/>
      <point x="1229" y="367"/>
      <point x="1247" y="352"/>
      <point x="1248" y="343" type="curve" smooth="yes"/>
      <point x="1247" y="311"/>
      <point x="1235" y="303"/>
      <point x="1175" y="303" type="curve" smooth="yes"/>
      <point x="564" y="303" type="line"/>
    </contour>
    <contour>
      <point x="969" y="303" type="line"/>
      <point x="605" y="303" type="line"/>
      <point x="1076" y="908" type="line"/>
      <point x="1076" y="1117" type="line"/>
      <point x="145" y="1117" type="line"/>
      <point x="145" y="815" type="line"/>
      <point x="585" y="815" type="line"/>
      <point x="113" y="207" type="line"/>
      <point x="113" y="0" type="line"/>
      <point x="969" y="0" type="line"/>
    </contour>
  </outline>
</glyph>
<glyph name="glottalstopinverted" format="2">
  <advance height="2479" width="1239"/>
  <unicode hex="0296"/>
  <anchor x="649" y="1273" name="cross"/>
  <outline>
    <contour>
      <point x="591" y="-23" type="curve" smooth="yes"/>
      <point x="948" y="-23"/>
      <point x="1178" y="215"/>
      <point x="1178" y="575" type="curve" smooth="yes"/>
      <point x="1178" y="934"/>
      <point x="948" y="1169"/>
      <point x="599" y="1169" type="curve"/>
      <point x="593" y="870" type="line"/>
      <point x="699" y="870"/>
      <point x="768" y="752"/>
      <point x="768" y="573" type="curve" smooth="yes"/>
      <point x="768" y="394"/>
      <point x="699" y="276"/>
      <point x="586" y="276" type="curve" smooth="yes"/>
      <point x="505" y="276"/>
      <point x="444" y="340"/>
      <point x="433" y="457" type="curve"/>
      <point x="61" y="457" type="line"/>
      <point x="63" y="166"/>
      <point x="271" y="-23"/>
    </contour>
    <contour>
      <point x="448" y="870" type="line"/>
      <point x="849" y="870" type="line"/>
      <point x="849" y="1510" type="line"/>
      <point x="448" y="1510" type="line"/>
    </contour>
  </outline>
</glyph>
<glyph name="cstretched" format="2">
  <advance height="2479" width="1242"/>
  <unicode hex="0297"/>
  <outline>
    <contour>
      <point x="662" y="-442" type="curve" smooth="yes"/>
      <point x="961" y="-442"/>
      <point x="1175" y="-250"/>
      <point x="1178" y="42" type="curve"/>
      <point x="806" y="42" type="line"/>
      <point x="799" y="-73"/>
      <point x="736" y="-148"/>
      <point x="657" y="-148" type="curve" smooth="yes"/>
      <point x="535" y="-148"/>
      <point x="471" y="33"/>
      <point x="471" y="346" type="curve" smooth="yes"/>
      <point x="471" y="659"/>
      <point x="535" y="837"/>
      <point x="656" y="838" type="curve" smooth="yes"/>
      <point x="735" y="837"/>
      <point x="799" y="763"/>
      <point x="806" y="652" type="curve"/>
      <point x="1178" y="652" type="line"/>
      <point x="1177" y="941"/>
      <point x="963" y="1132"/>
      <point x="663" y="1132" type="curve" smooth="yes"/>
      <point x="276" y="1132"/>
      <point x="61" y="814"/>
      <point x="61" y="345" type="curve" smooth="yes"/>
      <point x="61" y="-124"/>
      <point x="276" y="-442"/>
    </contour>
  </outline>
</glyph>
<glyph name="qhook" format="2">
  <advance height="2479" width="1439"/>
  <unicode hex="02A0"/>
  <anchor x="1015" y="-401" name="bottom"/>
  <anchor x="-67" y="-477" name="bottom0315"/>
  <anchor x="1021" y="-163" name="cross"/>
  <anchor x="593" y="1303" name="top"/>
  <outline>
    <contour>
      <point x="1219" y="1117" type="line"/>
      <point x="1219" y="1164"/>
      <point x="1244" y="1185"/>
      <point x="1312" y="1184" type="curve" smooth="yes"/>
      <point x="1368" y="1183"/>
      <point x="1423" y="1169"/>
      <point x="1440" y="1164" type="curve"/>
      <point x="1440" y="1411" type="line"/>
      <point x="1403" y="1420"/>
      <point x="1333" y="1434"/>
      <point x="1242" y="1434" type="curve" smooth="yes"/>
      <point x="941" y="1434"/>
      <point x="820" y="1353"/>
      <point x="820" y="1117" type="curve"/>
    </contour>
    <contour>
      <point x="1219" y="-419" type="line"/>
      <point x="1219" y="1117" type="line"/>
      <point x="820" y="1117" type="line"/>
      <point x="820" y="922" type="line"/>
      <point x="812" y="922" type="line"/>
      <point x="768" y="1036"/>
      <point x="663" y="1132"/>
      <point x="497" y="1132" type="curve" smooth="yes"/>
      <point x="276" y="1132"/>
      <point x="61" y="963"/>
      <point x="61" y="559" type="curve"/>
      <point x="61" y="172"/>
      <point x="262" y="-15"/>
      <point x="500" y="-15" type="curve" smooth="yes"/>
      <point x="657" y="-15"/>
      <point x="765" y="70"/>
      <point x="812" y="183" type="curve"/>
      <point x="817" y="183" type="line"/>
      <point x="817" y="-419" type="line"/>
    </contour>
    <contour>
      <point x="826" y="559" type="curve"/>
      <point x="826" y="396"/>
      <point x="759" y="294"/>
      <point x="649" y="294" type="curve" smooth="yes"/>
      <point x="538" y="294"/>
      <point x="474" y="393"/>
      <point x="474" y="559" type="curve" smooth="yes"/>
      <point x="474" y="724"/>
      <point x="538" y="823"/>
      <point x="649" y="823" type="curve" smooth="yes"/>
      <point x="759" y="823"/>
      <point x="826" y="724"/>
    </contour>
  </outline>
</glyph>
<glyph name="dzaltone" format="2">
  <advance height="2479" width="2368"/>
  <unicode hex="02A3"/>
  <anchor x="660" y="0" name="bottom"/>
  <anchor x="1024" y="1280" name="cross"/>
  <anchor x="1341" y="1489" name="raccent"/>
  <anchor x="547" y="1489" name="top"/>
  <outline>
    <contour>
      <point x="1268" y="0" type="line"/>
      <point x="2249" y="0" type="line"/>
      <point x="2249" y="305" type="line"/>
      <point x="1786" y="305" type="line"/>
      <point x="1786" y="311" type="line"/>
      <point x="2231" y="873" type="line"/>
      <point x="2231" y="1117" type="line"/>
      <point x="1053" y="1117" type="line"/>
      <point x="1053" y="812" type="line"/>
      <point x="1757" y="812" type="line"/>
      <point x="1757" y="806" type="line"/>
      <point x="1268" y="221" type="line"/>
    </contour>
    <component base="d"/>
  </outline>
</glyph>
<glyph name="dezh" format="2">
  <advance height="2479" width="2476"/>
  <unicode hex="02A4"/>
  <anchor x="660" y="0" name="bottom"/>
  <anchor x="1024" y="1280" name="cross"/>
  <anchor x="1341" y="1489" name="raccent"/>
  <anchor x="547" y="1489" name="top"/>
  <outline>
    <contour>
      <point x="1790" y="-442" type="curve" smooth="yes"/>
      <point x="2137" y="-441"/>
      <point x="2395" y="-239"/>
      <point x="2394" y="45" type="curve" smooth="yes"/>
      <point x="2394" y="266"/>
      <point x="2236" y="422"/>
      <point x="1918" y="463" type="curve"/>
      <point x="1918" y="474" type="line"/>
      <point x="2320" y="823" type="line"/>
      <point x="2320" y="1117" type="line"/>
      <point x="1214.25" y="1117.0" type="line"/>
      <point x="1214.25" y="791.0" type="line"/>
      <point x="1840" y="791" type="line"/>
      <point x="1840" y="783" type="line"/>
      <point x="1537" y="512" type="line"/>
      <point x="1537" y="244" type="line"/>
      <point x="1726" y="244" type="line" smooth="yes"/>
      <point x="1911" y="244"/>
      <point x="2002" y="172"/>
      <point x="2003" y="55" type="curve" smooth="yes"/>
      <point x="2002" y="-61"/>
      <point x="1912" y="-139"/>
      <point x="1782" y="-140" type="curve" smooth="yes"/>
      <point x="1689" y="-139"/>
      <point x="1611" y="-99"/>
      <point x="1610" y="-47" type="curve"/>
      <point x="1223" y="-47" type="line"/>
      <point x="1225" y="-271"/>
      <point x="1472" y="-441"/>
    </contour>
    <component base="d"/>
  </outline>
</glyph>
<glyph name="tesh" format="2">
  <advance height="2479" width="1425"/>
  <unicode hex="02A7"/>
  <anchor x="464" y="0" name="bottom"/>
  <anchor x="570" y="0" name="cedilla"/>
  <anchor x="705" y="1562" name="raccent"/>
  <anchor x="375" y="1542" name="top"/>
  <outline>
    <contour>
      <point x="657" y="1117" type="line"/>
      <point x="657" y="826" type="line"/>
      <point x="768" y="826" type="line"/>
      <point x="768" y="1117" type="line"/>
    </contour>
    <contour>
      <point x="652" y="289" type="curve"/>
      <point x="593" y="-16" type="line"/>
      <point x="734" y="1"/>
      <point x="797" y="34"/>
      <point x="833" y="45" type="curve"/>
      <point x="780" y="313" type="line"/>
      <point x="755" y="307"/>
      <point x="697" y="291"/>
    </contour>
    <component base="t"/>
    <component base="esh" xOffset="582"/>
  </outline>
</glyph>
<glyph name="bilabialpercussive" format="2">
  <advance height="2479" width="1303"/>
  <unicode hex="02AC"/>
  <outline>
    <contour>
      <point x="413" y="1047" type="line"/>
      <point x="390" y="873" type="line"/>
      <point x="535" y="873" type="line"/>
      <point x="698" y="1265" type="line"/>
      <point x="751" y="1457" type="line"/>
      <point x="561" y="1457" type="line"/>
    </contour>
    <contour>
      <point x="425" y="1457" type="line"/>
      <point x="180" y="1457" type="line"/>
      <point x="337" y="873" type="line"/>
      <point x="521" y="873" type="line"/>
      <point x="509" y="1053" type="line"/>
    </contour>
    <contour>
      <point x="791" y="1056" type="line"/>
      <point x="785" y="873" type="line"/>
      <point x="966" y="873" type="line"/>
      <point x="1123" y="1457" type="line"/>
      <point x="876" y="1457" type="line"/>
    </contour>
    <contour>
      <point x="739" y="1457" type="line"/>
      <point x="556" y="1457" type="line"/>
      <point x="608" y="1263" type="line"/>
      <point x="768" y="873" type="line"/>
      <point x="916" y="873" type="line"/>
      <point x="890" y="1053" type="line"/>
    </contour>
    <contour>
      <point x="413" y="177" type="line"/>
      <point x="390" y="0" type="line"/>
      <point x="535" y="0" type="line"/>
      <point x="698" y="393" type="line"/>
      <point x="751" y="585" type="line"/>
      <point x="561" y="585" type="line"/>
    </contour>
    <contour>
      <point x="425" y="585" type="line"/>
      <point x="180" y="585" type="line"/>
      <point x="337" y="0" type="line"/>
      <point x="521" y="0" type="line"/>
      <point x="509" y="183" type="line"/>
    </contour>
    <contour>
      <point x="791" y="186" type="line"/>
      <point x="785" y="0" type="line"/>
      <point x="966" y="0" type="line"/>
      <point x="1123" y="585" type="line"/>
      <point x="876" y="585" type="line"/>
    </contour>
    <contour>
      <point x="739" y="585" type="line"/>
      <point x="556" y="585" type="line"/>
      <point x="608" y="393" type="line"/>
      <point x="768" y="0" type="line"/>
      <point x="916" y="0" type="line"/>
      <point x="890" y="177" type="line"/>
    </contour>
  </outline>
</glyph>
<glyph name="bidentalpercussive" format="2">
  <advance height="2479" width="966"/>
  <unicode hex="02AD"/>
  <outline>
    <contour>
      <point x="660" y="585" type="line"/>
      <point x="303" y="585" type="line"/>
      <point x="303" y="378" type="line"/>
      <point x="660" y="378" type="line"/>
    </contour>
    <contour>
      <point x="320" y="585" type="line"/>
      <point x="49" y="585" type="line"/>
      <point x="49" y="0" type="line"/>
      <point x="320" y="0" type="line"/>
    </contour>
    <contour>
      <point x="913" y="585" type="line"/>
      <point x="643" y="585" type="line"/>
      <point x="643" y="0" type="line"/>
      <point x="913" y="0" type="line"/>
    </contour>
    <contour>
      <point x="660" y="1457" type="line"/>
      <point x="303" y="1457" type="line"/>
      <point x="303" y="1248" type="line"/>
      <point x="660" y="1248" type="line"/>
    </contour>
    <contour>
      <point x="320" y="1457" type="line"/>
      <point x="49" y="1457" type="line"/>
      <point x="49" y="873" type="line"/>
      <point x="320" y="873" type="line"/>
    </contour>
    <contour>
      <point x="913" y="1457" type="line"/>
      <point x="643" y="1457" type="line"/>
      <point x="643" y="873" type="line"/>
      <point x="913" y="873" type="line"/>
    </contour>
  </outline>
</glyph>
<glyph name="hturnedfishhook" format="2">
  <advance height="2479" width="1495"/>
  <unicode hex="02AE"/>
  <outline>
    <contour>
      <point x="26" y="823" type="line"/>
      <point x="58" y="826"/>
      <point x="87" y="829"/>
      <point x="116" y="829" type="curve" smooth="yes"/>
      <point x="186" y="829"/>
      <point x="268" y="815"/>
      <point x="268" y="748" type="curve" smooth="yes"/>
      <point x="268" y="404" type="line" smooth="yes"/>
      <point x="268" y="160"/>
      <point x="422" y="-15"/>
      <point x="657" y="-15" type="curve" smooth="yes"/>
      <point x="823" y="-15"/>
      <point x="945" y="70"/>
      <point x="995" y="212" type="curve"/>
      <point x="1007" y="212" type="line"/>
      <point x="1007" y="-419" type="line"/>
      <point x="1393" y="-419" type="line"/>
      <point x="1393" y="1117" type="line"/>
      <point x="992" y="1117" type="line"/>
      <point x="992" y="489" type="line" smooth="yes"/>
      <point x="992" y="378"/>
      <point x="928" y="311"/>
      <point x="829" y="311" type="curve" smooth="yes"/>
      <point x="727" y="311"/>
      <point x="669" y="378"/>
      <point x="669" y="489" type="curve" smooth="yes"/>
      <point x="669" y="748" type="line" smooth="yes"/>
      <point x="669" y="1076"/>
      <point x="468" y="1132"/>
      <point x="224" y="1132" type="curve" smooth="yes"/>
      <point x="128" y="1132"/>
      <point x="73" y="1123"/>
      <point x="26" y="1120" type="curve"/>
    </contour>
  </outline>
</glyph>
<glyph name="hmod" format="2">
  <advance height="2479" width="876"/>
  <unicode hex="02B0"/>
  <outline>
    <contour>
      <point x="329" y="1146" type="line" smooth="yes"/>
      <point x="329" y="1236"/>
      <point x="378" y="1280"/>
      <point x="445" y="1280" type="curve" smooth="yes"/>
      <point x="512" y="1280"/>
      <point x="547" y="1239"/>
      <point x="547" y="1161" type="curve" smooth="yes"/>
      <point x="547" y="745" type="line"/>
      <point x="812" y="745" type="line"/>
      <point x="812" y="1207" type="line" smooth="yes"/>
      <point x="812" y="1396"/>
      <point x="710" y="1498"/>
      <point x="553" y="1498" type="curve" smooth="yes"/>
      <point x="425" y="1498"/>
      <point x="364" y="1437"/>
      <point x="332" y="1356" type="curve"/>
      <point x="320" y="1356" type="line"/>
      <point x="320" y="1737" type="line"/>
      <point x="64" y="1737" type="line"/>
      <point x="64" y="745" type="line"/>
      <point x="329" y="745" type="line"/>
    </contour>
  </outline>
</glyph>
<glyph name="hhookmod" format="2">
  <advance height="2479" width="1041"/>
  <unicode hex="02B1"/>
  <outline>
    <contour>
      <point x="393" y="1478" type="line"/>
      <point x="391" y="1539"/>
      <point x="423" y="1597"/>
      <point x="524" y="1597" type="curve" smooth="yes"/>
      <point x="543" y="1597"/>
      <point x="557" y="1597"/>
      <point x="585" y="1588" type="curve"/>
      <point x="585" y="1804" type="line"/>
      <point x="577" y="1804"/>
      <point x="470" y="1809"/>
      <point x="433" y="1809" type="curve" smooth="yes"/>
      <point x="249" y="1809"/>
      <point x="144" y="1757"/>
      <point x="145" y="1510" type="curve" smooth="yes"/>
      <point x="145" y="655" type="line"/>
      <point x="393" y="655" type="line"/>
    </contour>
    <contour>
      <point x="364" y="1079" type="line"/>
      <point x="362" y="1178"/>
      <point x="406" y="1254"/>
      <point x="524" y="1254" type="curve" smooth="yes"/>
      <point x="618" y="1254"/>
      <point x="650" y="1193"/>
      <point x="652" y="1065" type="curve" smooth="yes"/>
      <point x="652" y="655" type="line"/>
      <point x="902" y="655" type="line"/>
      <point x="902" y="1161" type="line" smooth="yes"/>
      <point x="900" y="1376"/>
      <point x="793" y="1466"/>
      <point x="617" y="1466" type="curve" smooth="yes"/>
      <point x="423" y="1466"/>
      <point x="316" y="1303"/>
      <point x="317" y="1076" type="curve"/>
    </contour>
  </outline>
</glyph>
<glyph name="jmod" format="2">
  <advance height="2479" width="390"/>
  <unicode hex="02B2"/>
  <outline>
    <contour>
      <point x="61" y="1489" type="line"/>
      <point x="61" y="745" type="line" smooth="yes"/>
      <point x="61" y="701"/>
      <point x="58" y="675"/>
      <point x="-9" y="675" type="curve" smooth="yes"/>
      <point x="-17" y="675"/>
      <point x="-29" y="675"/>
      <point x="-41" y="678" type="curve"/>
      <point x="-38" y="468" type="line"/>
      <point x="-20" y="468"/>
      <point x="6" y="468"/>
      <point x="6" y="468" type="curve" smooth="yes"/>
      <point x="215" y="463"/>
      <point x="326" y="544"/>
      <point x="326" y="739" type="curve" smooth="yes"/>
      <point x="326" y="1489" type="line"/>
    </contour>
    <contour>
      <point x="195" y="1559" type="curve" smooth="yes"/>
      <point x="271" y="1559"/>
      <point x="335" y="1620"/>
      <point x="335" y="1696" type="curve" smooth="yes"/>
      <point x="335" y="1772"/>
      <point x="271" y="1833"/>
      <point x="195" y="1833" type="curve" smooth="yes"/>
      <point x="119" y="1833"/>
      <point x="52" y="1772"/>
      <point x="52" y="1696" type="curve" smooth="yes"/>
      <point x="52" y="1620"/>
      <point x="119" y="1559"/>
    </contour>
  </outline>
</glyph>
<glyph name="rmod" format="2">
  <advance height="2479" width="611"/>
  <unicode hex="02B3"/>
  <outline>
    <contour>
      <point x="64" y="745" type="line"/>
      <point x="329" y="745" type="line"/>
      <point x="329" y="1140" type="line" smooth="yes"/>
      <point x="329" y="1216"/>
      <point x="384" y="1268"/>
      <point x="451" y="1268" type="curve" smooth="yes"/>
      <point x="480" y="1268"/>
      <point x="500" y="1260"/>
      <point x="521" y="1251" type="curve"/>
      <point x="599" y="1466" type="line"/>
      <point x="570" y="1487"/>
      <point x="535" y="1501"/>
      <point x="492" y="1501" type="curve" smooth="yes"/>
      <point x="416" y="1501"/>
      <point x="352" y="1452"/>
      <point x="329" y="1359" type="curve"/>
      <point x="320" y="1359" type="line"/>
      <point x="320" y="1489" type="line"/>
      <point x="64" y="1489" type="line"/>
    </contour>
  </outline>
</glyph>
<glyph name="rhookturnedmod" format="2">
  <advance height="2479" width="826"/>
  <unicode hex="02B5"/>
  <outline>
    <contour>
      <point x="70" y="655" type="line"/>
      <point x="82" y="652"/>
      <point x="97" y="649"/>
      <point x="119" y="649" type="curve" smooth="yes"/>
      <point x="286" y="649"/>
      <point x="393" y="812"/>
      <point x="393" y="1041" type="curve"/>
      <point x="343" y="1036" type="line"/>
      <point x="344" y="937"/>
      <point x="271" y="899"/>
      <point x="169" y="899" type="curve" smooth="yes"/>
      <point x="135" y="899"/>
      <point x="97" y="902"/>
      <point x="70" y="911" type="curve"/>
    </contour>
    <contour>
      <point x="756" y="355" type="curve"/>
      <point x="756" y="567" type="line"/>
      <point x="734" y="561"/>
      <point x="716" y="559"/>
      <point x="701" y="559" type="curve" smooth="yes"/>
      <point x="603" y="559"/>
      <point x="568" y="620"/>
      <point x="567" y="678" type="curve" smooth="yes"/>
      <point x="567" y="1460" type="line"/>
      <point x="320" y="1460" type="line"/>
      <point x="320" y="646" type="line" smooth="yes"/>
      <point x="321" y="401"/>
      <point x="423" y="346"/>
      <point x="611" y="346" type="curve" smooth="yes"/>
      <point x="661" y="346"/>
      <point x="751" y="355"/>
    </contour>
  </outline>
</glyph>
<glyph name="ymod" format="2">
  <advance height="2479" width="832"/>
  <unicode hex="02B8"/>
  <outline>
    <contour>
      <point x="215" y="457" type="curve" smooth="yes"/>
      <point x="390" y="457"/>
      <point x="492" y="550"/>
      <point x="538" y="681" type="curve" smooth="yes"/>
      <point x="823" y="1489" type="line"/>
      <point x="541" y="1489" type="line"/>
      <point x="419" y="1004" type="line"/>
      <point x="410" y="1004" type="line"/>
      <point x="288" y="1489" type="line"/>
      <point x="9" y="1489" type="line"/>
      <point x="262" y="724" type="line"/>
      <point x="262" y="719" type="line" smooth="yes"/>
      <point x="262" y="663"/>
      <point x="207" y="672"/>
      <point x="140" y="687" type="curve"/>
      <point x="81" y="480" type="line"/>
      <point x="102" y="471"/>
      <point x="151" y="457"/>
    </contour>
  </outline>
</glyph>
<glyph name="primemod" format="2">
  <advance height="2479" width="529"/>
  <unicode hex="02B9"/>
  <outline>
    <contour>
      <point x="157" y="838" type="line"/>
      <point x="375" y="838" type="line"/>
      <point x="448" y="1489" type="line"/>
      <point x="81" y="1489" type="line"/>
    </contour>
  </outline>
</glyph>
<glyph name="commareversedmod" format="2">
  <advance height="2479" width="646"/>
  <unicode hex="02BD"/>
  <outline>
    <contour>
      <point x="272" y="992" type="curve"/>
      <point x="519" y="992" type="line"/>
      <point x="496" y="1072"/>
      <point x="429" y="1280"/>
      <point x="429" y="1478" type="curve" smooth="yes"/>
      <point x="429" y="1559" type="line"/>
      <point x="127" y="1559" type="line"/>
      <point x="132" y="1478" type="line" smooth="yes"/>
      <point x="148" y="1267"/>
      <point x="237" y="1072"/>
    </contour>
  </outline>
</glyph>
<glyph name="ringhalfleft" format="2">
  <advance height="2479" width="332"/>
  <unicode hex="02BF"/>
  <outline>
    <contour>
      <point x="285" y="1108" type="curve"/>
      <point x="285" y="1245" type="line"/>
      <point x="247" y="1245"/>
      <point x="218" y="1270"/>
      <point x="218" y="1303" type="curve" smooth="yes"/>
      <point x="218" y="1340"/>
      <point x="247" y="1366"/>
      <point x="285" y="1366" type="curve"/>
      <point x="285" y="1507" type="line"/>
      <point x="172" y="1507"/>
      <point x="79" y="1423"/>
      <point x="79" y="1303" type="curve" smooth="yes"/>
      <point x="79" y="1187"/>
      <point x="172" y="1108"/>
    </contour>
  </outline>
</glyph>
<glyph name="glottalstopmod" format="2">
  <advance height="2479" width="1050"/>
  <unicode hex="02C0"/>
  <outline>
    <contour>
      <point x="183" y="1527" type="curve"/>
      <point x="433" y="1527" type="line"/>
      <point x="430" y="1562"/>
      <point x="450" y="1609"/>
      <point x="521" y="1609" type="curve" smooth="yes"/>
      <point x="601" y="1609"/>
      <point x="604" y="1536"/>
      <point x="605" y="1417" type="curve" smooth="yes"/>
      <point x="605" y="1158" type="line" smooth="yes"/>
      <point x="604" y="1065"/>
      <point x="543" y="1036"/>
      <point x="468" y="1036" type="curve" smooth="yes"/>
      <point x="399" y="1036" type="line"/>
      <point x="399" y="832" type="line"/>
      <point x="512" y="832" type="line" smooth="yes"/>
      <point x="747" y="832"/>
      <point x="869" y="963"/>
      <point x="870" y="1172" type="curve" smooth="yes"/>
      <point x="870" y="1428" type="line" smooth="yes"/>
      <point x="869" y="1687"/>
      <point x="747" y="1809"/>
      <point x="515" y="1809" type="curve" smooth="yes"/>
      <point x="316" y="1809"/>
      <point x="180" y="1716"/>
    </contour>
    <contour>
      <point x="381" y="1036" type="line"/>
      <point x="381" y="655" type="line"/>
      <point x="646" y="655" type="line"/>
      <point x="646" y="1036" type="line"/>
    </contour>
  </outline>
</glyph>
<glyph name="arrowheadrightmod" format="2">
  <advance height="2479" width="1309"/>
  <unicode hex="02C3"/>
  <outline>
    <contour>
      <point x="1068" y="902" type="line"/>
      <point x="1068" y="1082" type="line"/>
      <point x="241" y="1341" type="line"/>
      <point x="241" y="1103" type="line"/>
      <point x="698" y="960" type="line"/>
    </contour>
    <contour>
      <point x="241" y="576" type="line"/>
      <point x="1068" y="835" type="line"/>
      <point x="1068" y="1015" type="line"/>
      <point x="698" y="954" type="line"/>
      <point x="241" y="820" type="line"/>
    </contour>
  </outline>
</glyph>
<glyph name="verticallinemod" format="2">
  <advance height="2479" width="448"/>
  <unicode hex="02C8"/>
  <outline>
    <contour>
      <point x="335" y="1591" type="line"/>
      <point x="113" y="1591" type="line"/>
      <point x="113" y="1132" type="line"/>
      <point x="335" y="1132" type="line"/>
    </contour>
  </outline>
</glyph>
<glyph name="uptackmod" format="2">
  <advance height="2479" width="847"/>
  <unicode hex="02D4"/>
  <outline>
    <contour>
      <point x="145" y="140" type="line"/>
      <point x="701" y="140" type="line"/>
      <point x="701" y="352" type="line"/>
      <point x="145" y="352" type="line"/>
    </contour>
    <contour>
      <point x="308" y="140" type="line"/>
      <point x="538" y="140" type="line"/>
      <point x="538" y="620" type="line"/>
      <point x="308" y="620" type="line"/>
    </contour>
  </outline>
</glyph>
<glyph name="plusmod" format="2">
  <advance height="2479" width="847"/>
  <unicode hex="02D6"/>
  <outline>
    <contour>
      <point x="538" y="675" type="line"/>
      <point x="308" y="675" type="line"/>
      <point x="308" y="61" type="line"/>
      <point x="538" y="61" type="line"/>
    </contour>
    <contour>
      <point x="145" y="480" type="line"/>
      <point x="145" y="262" type="line"/>
      <point x="701" y="262" type="line"/>
      <point x="701" y="480" type="line"/>
    </contour>
  </outline>
</glyph>
<glyph name="tilde" format="2">
  <advance height="2479" width="1024"/>
  <unicode hex="02DC"/>
  <anchor x="512" y="1303" name="_top"/>
  <anchor x="512" y="1676" name="top"/>
  <outline>
    <contour>
      <point x="314" y="1257" type="line"/>
      <point x="314" y="1329"/>
      <point x="343" y="1367"/>
      <point x="390" y="1367" type="curve" smooth="yes"/>
      <point x="464" y="1367"/>
      <point x="508" y="1247"/>
      <point x="660" y="1248" type="curve" smooth="yes"/>
      <point x="796" y="1249"/>
      <point x="905" y="1356"/>
      <point x="908" y="1562" type="curve"/>
      <point x="713" y="1562" type="line"/>
      <point x="711" y="1492"/>
      <point x="690" y="1449"/>
      <point x="634" y="1449" type="curve" smooth="yes"/>
      <point x="565" y="1448"/>
      <point x="514" y="1569"/>
      <point x="364" y="1568" type="curve" smooth="yes"/>
      <point x="226" y="1567"/>
      <point x="116" y="1466"/>
      <point x="116" y="1257" type="curve"/>
    </contour>
  </outline>
</glyph>
<glyph name="hungarumlaut" format="2">
  <advance height="2479" width="1076"/>
  <unicode hex="02DD"/>
  <anchor x="390" y="1292" name="_top"/>
  <anchor x="390" y="1649" name="mkmktop_acc"/>
  <outline>
    <contour>
      <point x="451" y="1239" type="line"/>
      <point x="716" y="1239" type="line"/>
      <point x="995" y="1536" type="line"/>
      <point x="687" y="1536" type="line"/>
    </contour>
    <contour>
      <point x="29" y="1239" type="line"/>
      <point x="300" y="1239" type="line"/>
      <point x="553" y="1536" type="line"/>
      <point x="244" y="1536" type="line"/>
    </contour>
  </outline>
</glyph>
<glyph name="crossaccentmod" format="2">
  <advance height="2479" width="832"/>
  <unicode hex="02DF"/>
  <outline>
    <contour>
      <point x="256" y="1143" type="line"/>
      <point x="727" y="1606" type="line"/>
      <point x="582" y="1751" type="line"/>
      <point x="108" y="1292" type="line"/>
    </contour>
    <contour>
      <point x="576" y="1140" type="line"/>
      <point x="724" y="1289" type="line"/>
      <point x="256" y="1754" type="line"/>
      <point x="108" y="1606" type="line"/>
    </contour>
  </outline>
</glyph>
<glyph name="lmod" format="2">
  <advance height="2479" width="393"/>
  <unicode hex="02E1"/>
  <outline>
    <contour>
      <point x="329" y="1737" type="line"/>
      <point x="64" y="1737" type="line"/>
      <point x="64" y="745" type="line"/>
      <point x="329" y="745" type="line"/>
    </contour>
  </outline>
</glyph>
<glyph name="smod" format="2">
  <advance height="2479" width="797"/>
  <unicode hex="02E2"/>
  <outline>
    <contour>
      <point x="739" y="1263" type="line"/>
      <point x="727" y="1396"/>
      <point x="614" y="1498"/>
      <point x="396" y="1498" type="curve" smooth="yes"/>
      <point x="189" y="1498"/>
      <point x="52" y="1405"/>
      <point x="52" y="1254" type="curve" smooth="yes"/>
      <point x="52" y="1135"/>
      <point x="125" y="1062"/>
      <point x="282" y="1033" type="curve" smooth="yes"/>
      <point x="416" y="1007" type="line" smooth="yes"/>
      <point x="463" y="998"/>
      <point x="492" y="986"/>
      <point x="492" y="963" type="curve" smooth="yes"/>
      <point x="492" y="940"/>
      <point x="454" y="922"/>
      <point x="401" y="922" type="curve" smooth="yes"/>
      <point x="346" y="922"/>
      <point x="303" y="943"/>
      <point x="294" y="989" type="curve"/>
      <point x="35" y="972" type="line"/>
      <point x="52" y="823"/>
      <point x="186" y="730"/>
      <point x="401" y="730" type="curve" smooth="yes"/>
      <point x="608" y="730"/>
      <point x="762" y="835"/>
      <point x="762" y="989" type="curve" smooth="yes"/>
      <point x="762" y="1117"/>
      <point x="669" y="1172"/>
      <point x="529" y="1199" type="curve" smooth="yes"/>
      <point x="390" y="1225" type="line" smooth="yes"/>
      <point x="332" y="1236"/>
      <point x="314" y="1245"/>
      <point x="314" y="1268" type="curve" smooth="yes"/>
      <point x="314" y="1295"/>
      <point x="358" y="1309"/>
      <point x="399" y="1309" type="curve" smooth="yes"/>
      <point x="463" y="1309"/>
      <point x="497" y="1271"/>
      <point x="500" y="1245" type="curve"/>
    </contour>
  </outline>
</glyph>
<glyph name="xmod" format="2">
  <advance height="2479" width="817"/>
  <unicode hex="02E3"/>
  <outline>
    <contour>
      <point x="294" y="1489" type="line"/>
      <point x="20" y="1489" type="line"/>
      <point x="233" y="1108" type="line"/>
      <point x="20" y="745" type="line"/>
      <point x="294" y="745" type="line"/>
      <point x="410" y="963" type="line"/>
      <point x="527" y="745" type="line"/>
      <point x="797" y="745" type="line"/>
      <point x="585" y="1108" type="line"/>
      <point x="800" y="1489" type="line"/>
      <point x="527" y="1489" type="line"/>
      <point x="410" y="1248" type="line"/>
    </contour>
  </outline>
</glyph>
<glyph name="glottalstopreversedsuperior" format="2">
  <advance height="2479" width="1039"/>
  <unicode hex="02E4"/>
  <outline>
    <contour>
      <point x="646" y="1152" type="curve"/>
      <point x="867" y="1152" type="line"/>
      <point x="868" y="1332"/>
      <point x="735" y="1466"/>
      <point x="524" y="1466" type="curve" smooth="yes"/>
      <point x="310" y="1466"/>
      <point x="173" y="1338"/>
      <point x="172" y="1100" type="curve" smooth="yes"/>
      <point x="173" y="925"/>
      <point x="284" y="751"/>
      <point x="471" y="751" type="curve" smooth="yes"/>
      <point x="640" y="751" type="line"/>
      <point x="640" y="922" type="line"/>
      <point x="527" y="922" type="line" smooth="yes"/>
      <point x="461" y="922"/>
      <point x="417" y="989"/>
      <point x="416" y="1082" type="curve" smooth="yes"/>
      <point x="417" y="1190"/>
      <point x="470" y="1260"/>
      <point x="544" y="1260" type="curve" smooth="yes"/>
      <point x="601" y="1260"/>
      <point x="647" y="1222"/>
    </contour>
    <contour>
      <point x="646" y="655" type="line"/>
      <point x="646" y="922" type="line"/>
      <point x="404" y="922" type="line"/>
      <point x="404" y="655" type="line"/>
    </contour>
  </outline>
</glyph>
<glyph name="tonebarmidmod" format="2">
  <advance height="2479" width="829"/>
  <unicode hex="02E7"/>
  <outline>
    <contour>
      <point x="759" y="1457" type="line"/>
      <point x="384" y="1457" type="line"/>
      <point x="384" y="0" type="line"/>
      <point x="759" y="0" type="line"/>
    </contour>
    <contour>
      <point x="727" y="879" type="line"/>
      <point x="76" y="879" type="line"/>
      <point x="76" y="579" type="line"/>
      <point x="727" y="579" type="line"/>
    </contour>
  </outline>
</glyph>
<glyph name="yindepartingtonemod" format="2">
  <advance height="2479" width="1100"/>
  <unicode hex="02EA"/>
  <outline>
    <contour>
      <point x="948" y="303" type="line"/>
      <point x="390" y="303" type="line"/>
      <point x="390" y="0" type="line"/>
      <point x="948" y="0" type="line"/>
    </contour>
    <contour>
      <point x="532" y="908" type="line"/>
      <point x="154" y="908" type="line"/>
      <point x="154" y="0" type="line"/>
      <point x="532" y="0" type="line"/>
    </contour>
  </outline>
</glyph>
<glyph name="doubleapostrophemod" format="2">
  <advance height="2479" width="1041"/>
  <unicode hex="02EE"/>
  <outline>
    <contour>
      <point x="512" y="1559" type="line"/>
      <point x="218" y="1559" type="line"/>
      <point x="218" y="1364" type="line" smooth="yes"/>
      <point x="217" y="1222"/>
      <point x="188" y="1135"/>
      <point x="145" y="1047" type="curve"/>
      <point x="320" y="969" type="line"/>
      <point x="409" y="1053"/>
      <point x="511" y="1216"/>
      <point x="512" y="1364" type="curve" smooth="yes"/>
    </contour>
    <contour>
      <point x="893" y="1559" type="line"/>
      <point x="602" y="1559" type="line"/>
      <point x="602" y="1364" type="line" smooth="yes"/>
      <point x="601" y="1216"/>
      <point x="569" y="1126"/>
      <point x="529" y="1047" type="curve"/>
      <point x="704" y="969" type="line"/>
      <point x="793" y="1053"/>
      <point x="892" y="1213"/>
      <point x="893" y="1364" type="curve" smooth="yes"/>
    </contour>
  </outline>
</glyph>
<glyph name="lowdownarrowheadmod" format="2">
  <advance height="2479" width="841"/>
  <unicode hex="02EF"/>
  <outline>
    <contour>
      <point x="332" y="-556" type="line"/>
      <point x="463" y="-556" type="line"/>
      <point x="416" y="-335" type="line"/>
      <point x="314" y="-73" type="line"/>
      <point x="140" y="-73" type="line"/>
    </contour>
    <contour>
      <point x="381" y="-556" type="line"/>
      <point x="509" y="-556" type="line"/>
      <point x="701" y="-73" type="line"/>
      <point x="529" y="-73" type="line"/>
      <point x="425" y="-335" type="line"/>
    </contour>
  </outline>
</glyph>
<glyph name="lowleftarrowheadmod" format="2">
  <advance height="2479" width="841"/>
  <unicode hex="02F1"/>
  <outline>
    <contour>
      <point x="131" y="-343" type="line"/>
      <point x="387" y="-303" type="line"/>
      <point x="710" y="-215" type="line"/>
      <point x="710" y="-55" type="line"/>
      <point x="131" y="-227" type="line"/>
    </contour>
    <contour>
      <point x="710" y="-556" type="line"/>
      <point x="710" y="-396" type="line"/>
      <point x="387" y="-311" type="line"/>
      <point x="131" y="-268" type="line"/>
      <point x="131" y="-390" type="line"/>
    </contour>
  </outline>
</glyph>
<glyph name="lowrightarrowheadmod" format="2">
  <advance height="2479" width="841"/>
  <unicode hex="02F2"/>
  <outline>
    <contour>
      <point x="710" y="-343" type="line"/>
      <point x="710" y="-227" type="line"/>
      <point x="131" y="-55" type="line"/>
      <point x="131" y="-215" type="line"/>
      <point x="451" y="-303" type="line"/>
    </contour>
    <contour>
      <point x="131" y="-556" type="line"/>
      <point x="710" y="-390" type="line"/>
      <point x="710" y="-268" type="line"/>
      <point x="451" y="-311" type="line"/>
      <point x="131" y="-396" type="line"/>
    </contour>
  </outline>
</glyph>
<glyph name="beginhightonemod" format="2">
  <advance height="2479" width="916"/>
  <unicode hex="02F9"/>
  <outline>
    <contour>
      <point x="236" y="1126" type="line"/>
      <point x="463" y="1126" type="line"/>
      <point x="463" y="1536" type="line"/>
      <point x="236" y="1536" type="line"/>
    </contour>
    <contour>
      <point x="236" y="1327" type="line"/>
      <point x="681" y="1327" type="line"/>
      <point x="681" y="1536" type="line"/>
      <point x="236" y="1536" type="line"/>
    </contour>
  </outline>
</glyph>
<glyph name="lowleftarrowmod" format="2">
  <advance height="2479" width="1312"/>
  <unicode hex="02FF"/>
  <outline>
    <contour>
      <point x="1062" y="-15" type="line"/>
      <point x="381" y="-15" type="line"/>
      <point x="381" y="-253" type="line"/>
      <point x="1062" y="-253" type="line"/>
    </contour>
    <contour>
      <point x="567" y="169" type="line"/>
      <point x="250" y="-134" type="line"/>
      <point x="433" y="-212" type="line"/>
      <point x="829" y="169" type="line"/>
    </contour>
    <contour>
      <point x="829" y="-436" type="line"/>
      <point x="439" y="-61" type="line"/>
      <point x="250" y="-134" type="line"/>
      <point x="567" y="-436" type="line"/>
    </contour>
  </outline>
</glyph>
<glyph name="brevecomb" format="2">
  <advance height="2479"/>
  <unicode hex="0306"/>
  <outline>
    <contour>
      <point x="-556" y="1556" type="line"/>
      <point x="-557" y="1492"/>
      <point x="-595" y="1434"/>
      <point x="-701" y="1434" type="curve" smooth="yes"/>
      <point x="-810" y="1434"/>
      <point x="-851" y="1495"/>
      <point x="-849" y="1556" type="curve"/>
      <point x="-1100" y="1556" type="line"/>
      <point x="-1101" y="1364"/>
      <point x="-944" y="1233"/>
      <point x="-701" y="1233" type="curve" smooth="yes"/>
      <point x="-458" y="1233"/>
      <point x="-301" y="1364"/>
      <point x="-300" y="1556" type="curve"/>
    </contour>
  </outline>
</glyph>
<glyph name="hookabovecomb" format="2">
  <advance height="2479"/>
  <unicode hex="0309"/>
  <anchor x="-739" y="1309" name="_top"/>
  <outline>
    <contour>
      <point x="-599" y="1289" type="line"/>
      <point x="-599" y="1347" type="line"/>
      <point x="-519" y="1359"/>
      <point x="-441" y="1402"/>
      <point x="-442" y="1484" type="curve" smooth="yes"/>
      <point x="-441" y="1612"/>
      <point x="-601" y="1684"/>
      <point x="-899" y="1684" type="curve"/>
      <point x="-908" y="1524" type="line"/>
      <point x="-828" y="1524"/>
      <point x="-769" y="1516"/>
      <point x="-771" y="1463" type="curve" smooth="yes"/>
      <point x="-769" y="1431"/>
      <point x="-810" y="1405"/>
      <point x="-913" y="1402" type="curve"/>
      <point x="-887" y="1289" type="line"/>
    </contour>
  </outline>
</glyph>
<glyph name="caroncomb" format="2">
  <advance height="2479"/>
  <unicode hex="030C"/>
  <anchor x="-652" y="1199" name="_top"/>
  <outline>
    <contour>
      <point x="-759" y="1239" type="line"/>
      <point x="-544" y="1239" type="line"/>
      <point x="-186" y="1521" type="line"/>
      <point x="-186" y="1536" type="line"/>
      <point x="-483" y="1536" type="line"/>
      <point x="-652" y="1411" type="line"/>
      <point x="-820" y="1536" type="line"/>
      <point x="-1108" y="1536" type="line"/>
      <point x="-1108" y="1516" type="line"/>
    </contour>
  </outline>
</glyph>
<glyph name="dblgravecomb" format="2">
  <advance height="2479"/>
  <unicode hex="030F"/>
  <anchor x="-609" y="1303" name="_top"/>
  <outline>
    <contour>
      <point x="-925" y="1257" type="line"/>
      <point x="-660" y="1257" type="line"/>
      <point x="-800" y="1583" type="line"/>
      <point x="-1143" y="1583" type="line"/>
    </contour>
    <contour>
      <point x="-531" y="1257" type="line"/>
      <point x="-273" y="1257" type="line"/>
      <point x="-348" y="1583" type="line"/>
      <point x="-672" y="1583" type="line"/>
    </contour>
  </outline>
</glyph>
<glyph name="commaturnedabovecomb" format="2">
  <advance height="2479"/>
  <unicode hex="0312"/>
  <anchor x="-675" y="1071" name="_marktop"/>
  <anchor x="-675" y="1684" name="mkmktop"/>
  <anchor x="-643" y="1315" name="parent_top"/>
  <outline>
    <contour>
      <point x="-826" y="1012" type="line"/>
      <point x="-532" y="1012" type="line"/>
      <point x="-532" y="1222" type="line" smooth="yes"/>
      <point x="-532" y="1361"/>
      <point x="-500" y="1460"/>
      <point x="-460" y="1536" type="curve"/>
      <point x="-634" y="1617" type="line"/>
      <point x="-727" y="1533"/>
      <point x="-825" y="1367"/>
      <point x="-826" y="1222" type="curve" smooth="yes"/>
    </contour>
  </outline>
</glyph>
<glyph name="horncomb" format="2">
  <advance height="2479"/>
  <unicode hex="031B"/>
  <outline>
    <contour>
      <point x="-180" y="1617" type="curve"/>
      <point x="-474" y="1617" type="line"/>
      <point x="-474" y="1306"/>
      <point x="-492" y="1251"/>
      <point x="-547" y="1097" type="curve"/>
      <point x="-372" y="1012" type="line"/>
      <point x="-192" y="1181"/>
      <point x="-180" y="1283"/>
    </contour>
  </outline>
</glyph>
<glyph name="cedillacomb" format="2">
  <advance height="2479"/>
  <unicode hex="0327"/>
  <outline>
    <contour>
      <point x="-867" y="15" type="line"/>
      <point x="-899" y="-137" type="line"/>
      <point x="-800" y="-140"/>
      <point x="-762" y="-160"/>
      <point x="-762" y="-201" type="curve" smooth="yes"/>
      <point x="-762" y="-250"/>
      <point x="-794" y="-271"/>
      <point x="-844" y="-271" type="curve"/>
      <point x="-835" y="-486" type="line"/>
      <point x="-573" y="-486"/>
      <point x="-433" y="-381"/>
      <point x="-433" y="-224" type="curve" smooth="yes"/>
      <point x="-433" y="-111"/>
      <point x="-512" y="-64"/>
      <point x="-591" y="-52" type="curve"/>
      <point x="-579" y="15" type="line"/>
    </contour>
  </outline>
</glyph>
<glyph name="bridgebelowcomb" format="2">
  <advance height="2479"/>
  <unicode hex="032A"/>
  <anchor x="-640" y="0" name="_bottom"/>
  <outline>
    <contour>
      <point x="-1024" y="-480" type="line"/>
      <point x="-800" y="-480" type="line"/>
      <point x="-800" y="-81" type="line"/>
      <point x="-1024" y="-81" type="line"/>
    </contour>
    <contour>
      <point x="-849" y="-291" type="line"/>
      <point x="-436" y="-291" type="line"/>
      <point x="-436" y="-81" type="line"/>
      <point x="-849" y="-81" type="line"/>
    </contour>
    <contour>
      <point x="-480" y="-480" type="line"/>
      <point x="-256" y="-480" type="line"/>
      <point x="-256" y="-81" type="line"/>
      <point x="-480" y="-81" type="line"/>
    </contour>
  </outline>
</glyph>
<glyph name="breveinvertedbelowcomb" format="2">
  <advance height="2479"/>
  <unicode hex="032F"/>
  <outline>
    <contour>
      <point x="-305" y="-410" type="line"/>
      <point x="-304" y="-221"/>
      <point x="-458" y="-87"/>
      <point x="-704" y="-87" type="curve" smooth="yes"/>
      <point x="-950" y="-87"/>
      <point x="-1104" y="-221"/>
      <point x="-1105" y="-410" type="curve"/>
      <point x="-852" y="-410" type="line"/>
      <point x="-851" y="-349"/>
      <point x="-810" y="-291"/>
      <point x="-704" y="-291" type="curve" smooth="yes"/>
      <point x="-598" y="-291"/>
      <point x="-557" y="-349"/>
      <point x="-559" y="-410" type="curve"/>
    </contour>
  </outline>
</glyph>
<glyph name="strokelongcomb" format="2">
  <advance height="2479"/>
  <unicode hex="0336"/>
  <outline>
    <contour>
      <point x="-52" y="631" type="line"/>
      <point x="-1411" y="631" type="line"/>
      <point x="-1411" y="428" type="line"/>
      <point x="-52" y="428" type="line"/>
    </contour>
  </outline>
</glyph>
<glyph name="slashshortcomb" format="2">
  <advance height="2479"/>
  <unicode hex="0337"/>
  <outline>
    <contour>
      <point x="-256" y="1225" type="line"/>
      <point x="-451" y="1225" type="line"/>
      <point x="-1146" y="-148" type="line"/>
      <point x="-954" y="-148" type="line"/>
    </contour>
  </outline>
</glyph>
<glyph name="slashlongcomb" format="2">
  <advance height="2479"/>
  <unicode hex="0338"/>
  <outline>
    <contour>
      <point x="-337" y="1519" type="line"/>
      <point x="-497" y="1519" type="line"/>
      <point x="-1457" y="-96" type="line"/>
      <point x="-1297" y="-96" type="line"/>
    </contour>
  </outline>
</glyph>
<glyph name="xabovecomb" format="2">
  <advance height="2479"/>
  <unicode hex="033D"/>
  <outline>
    <contour>
      <point x="-838" y="1274" type="line"/>
      <point x="-477" y="1615" type="line"/>
      <point x="-591" y="1725" type="line"/>
      <point x="-951" y="1385" type="line"/>
    </contour>
    <contour>
      <point x="-593" y="1271" type="line"/>
      <point x="-477" y="1382" type="line"/>
      <point x="-835" y="1728" type="line"/>
      <point x="-951" y="1617" type="line"/>
    </contour>
  </outline>
</glyph>
<glyph name="dbloverlinecomb" format="2">
  <advance height="2479"/>
  <unicode hex="033F"/>
  <outline>
    <contour>
      <point x="-239" y="1667" type="line"/>
      <point x="-1184" y="1667" type="line"/>
      <point x="-1184" y="1519" type="line"/>
      <point x="-239" y="1519" type="line"/>
    </contour>
    <contour>
      <point x="-239" y="1978" type="line"/>
      <point x="-1184" y="1978" type="line"/>
      <point x="-1184" y="1833" type="line"/>
      <point x="-239" y="1833" type="line"/>
    </contour>
  </outline>
</glyph>
<glyph name="ypogegrammenicomb" format="2">
  <advance height="2479"/>
  <unicode hex="0345"/>
  <outline>
    <contour>
      <point x="-791" y="-70" type="line"/>
      <point x="-791" y="-335" type="line" smooth="yes"/>
      <point x="-791" y="-471"/>
      <point x="-697" y="-527"/>
      <point x="-588" y="-527" type="curve" smooth="yes"/>
      <point x="-546" y="-527"/>
      <point x="-514" y="-521"/>
      <point x="-480" y="-509" type="curve"/>
      <point x="-480" y="-378" type="line"/>
      <point x="-494" y="-381"/>
      <point x="-508" y="-381"/>
      <point x="-527" y="-381" type="curve" smooth="yes"/>
      <point x="-575" y="-381"/>
      <point x="-587" y="-367"/>
      <point x="-588" y="-337" type="curve" smooth="yes"/>
      <point x="-588" y="-70" type="line"/>
    </contour>
  </outline>
</glyph>
<glyph name="nottildeabovecomb" format="2">
  <advance height="2479"/>
  <unicode hex="034A"/>
  <outline>
    <contour>
      <point x="-559" y="1257" type="curve" smooth="yes"/>
      <point x="-415" y="1257"/>
      <point x="-313" y="1399"/>
      <point x="-314" y="1539" type="curve"/>
      <point x="-521" y="1551" type="line"/>
      <point x="-519" y="1489"/>
      <point x="-560" y="1469"/>
      <point x="-599" y="1469" type="curve" smooth="yes"/>
      <point x="-697" y="1469"/>
      <point x="-784" y="1548"/>
      <point x="-893" y="1548" type="curve" smooth="yes"/>
      <point x="-1034" y="1548"/>
      <point x="-1136" y="1405"/>
      <point x="-1137" y="1265" type="curve"/>
      <point x="-931" y="1254" type="line"/>
      <point x="-929" y="1315"/>
      <point x="-895" y="1338"/>
      <point x="-852" y="1338" type="curve" smooth="yes"/>
      <point x="-746" y="1338"/>
      <point x="-685" y="1257"/>
    </contour>
    <contour>
      <point x="-704" y="1149" type="line"/>
      <point x="-544" y="1551" type="line"/>
      <point x="-681" y="1612" type="line"/>
      <point x="-844" y="1210" type="line"/>
    </contour>
  </outline>
</glyph>
<glyph name="arrowleftrightbelowcomb" format="2">
  <advance height="2479"/>
  <unicode hex="034D"/>
  <outline>
    <contour>
      <point x="-311" y="-276" type="line"/>
      <point x="-1143" y="-276" type="line"/>
      <point x="-1143" y="-428" type="line"/>
      <point x="-311" y="-428" type="line"/>
    </contour>
    <contour>
      <point x="-829" y="-553" type="line"/>
      <point x="-1108" y="-300" type="line"/>
      <point x="-1233" y="-352" type="line"/>
      <point x="-1015" y="-553" type="line"/>
    </contour>
    <contour>
      <point x="-1015" y="-154" type="line"/>
      <point x="-1233" y="-352" type="line"/>
      <point x="-1103" y="-401" type="line"/>
      <point x="-829" y="-154" type="line"/>
    </contour>
    <contour>
      <point x="-419" y="-553" type="line"/>
      <point x="-198" y="-352" type="line"/>
      <point x="-326" y="-300" type="line"/>
      <point x="-602" y="-553" type="line"/>
    </contour>
    <contour>
      <point x="-602" y="-154" type="line"/>
      <point x="-329" y="-401" type="line"/>
      <point x="-198" y="-352" type="line"/>
      <point x="-419" y="-154" type="line"/>
    </contour>
  </outline>
</glyph>
<glyph name="lefthalfringabovecomb" format="2">
  <advance height="2479"/>
  <unicode hex="0351"/>
  <outline>
    <contour>
      <point x="-617" y="1158" type="curve"/>
      <point x="-617" y="1254" type="line"/>
      <point x="-676" y="1254"/>
      <point x="-711" y="1292"/>
      <point x="-710" y="1344" type="curve" smooth="yes"/>
      <point x="-711" y="1399"/>
      <point x="-676" y="1437"/>
      <point x="-617" y="1437" type="curve"/>
      <point x="-617" y="1536" type="line"/>
      <point x="-745" y="1536"/>
      <point x="-841" y="1449"/>
      <point x="-841" y="1344" type="curve" smooth="yes"/>
      <point x="-841" y="1239"/>
      <point x="-745" y="1158"/>
    </contour>
  </outline>
</glyph>
<glyph name="xbelowcomb" format="2">
  <advance height="2479"/>
  <unicode hex="0353"/>
  <outline>
    <contour>
      <point x="-841" y="-524" type="line"/>
      <point x="-474" y="-175" type="line"/>
      <point x="-588" y="-61" type="line"/>
      <point x="-954" y="-410" type="line"/>
    </contour>
    <contour>
      <point x="-591" y="-524" type="line"/>
      <point x="-474" y="-413" type="line"/>
      <point x="-838" y="-58" type="line"/>
      <point x="-954" y="-175" type="line"/>
    </contour>
  </outline>
</glyph>
<glyph name="asteriskbelowcomb" format="2">
  <advance height="2479"/>
  <unicode hex="0359"/>
  <outline>
    <contour>
      <point x="-876" y="-492" type="line"/>
      <point x="-785" y="-553" type="line"/>
      <point x="-689" y="-401" type="line"/>
      <point x="-593" y="-559" type="line"/>
      <point x="-503" y="-495" type="line"/>
      <point x="-617" y="-352" type="line"/>
      <point x="-445" y="-305" type="line"/>
      <point x="-480" y="-198" type="line"/>
      <point x="-640" y="-271" type="line"/>
      <point x="-625" y="-79" type="line"/>
      <point x="-742" y="-79" type="line"/>
      <point x="-724" y="-265" type="line"/>
      <point x="-893" y="-192" type="line"/>
      <point x="-928" y="-300" type="line"/>
      <point x="-756" y="-346" type="line"/>
    </contour>
  </outline>
</glyph>
<glyph name="tildedoublecomb" format="2">
  <advance height="2479"/>
  <unicode hex="0360"/>
  <outline>
    <contour>
      <point x="-1024" y="1210" type="line"/>
      <point x="-993" y="1283"/>
      <point x="-903" y="1303"/>
      <point x="-803" y="1303" type="curve" smooth="yes"/>
      <point x="-492" y="1303"/>
      <point x="209" y="1239"/>
      <point x="652" y="1239" type="curve" smooth="yes"/>
      <point x="840" y="1239"/>
      <point x="983" y="1306"/>
      <point x="1001" y="1475" type="curve"/>
      <point x="803" y="1533" type="line"/>
      <point x="782" y="1466"/>
      <point x="706" y="1443"/>
      <point x="588" y="1443" type="curve" smooth="yes"/>
      <point x="302" y="1443"/>
      <point x="-519" y="1501"/>
      <point x="-858" y="1501" type="curve" smooth="yes"/>
      <point x="-1060" y="1501"/>
      <point x="-1173" y="1443"/>
      <point x="-1222" y="1271" type="curve"/>
    </contour>
  </outline>
</glyph>
<glyph name="icomb" format="2">
  <advance height="2479"/>
  <unicode hex="0365"/>
  <outline>
    <contour>
      <point x="-588" y="1754" type="line"/>
      <point x="-768" y="1754" type="line"/>
      <point x="-768" y="1201" type="line"/>
      <point x="-588" y="1201" type="line"/>
    </contour>
    <contour>
      <point x="-780" y="1900" type="curve" smooth="yes"/>
      <point x="-781" y="1847"/>
      <point x="-737" y="1809"/>
      <point x="-681" y="1809" type="curve" smooth="yes"/>
      <point x="-621" y="1809"/>
      <point x="-580" y="1847"/>
      <point x="-579" y="1900" type="curve" smooth="yes"/>
      <point x="-580" y="1949"/>
      <point x="-621" y="1987"/>
      <point x="-681" y="1987" type="curve" smooth="yes"/>
      <point x="-737" y="1987"/>
      <point x="-781" y="1952"/>
    </contour>
  </outline>
</glyph>
